<svg width="322" height="129" fill="none" xmlns="http://www.w3.org/2000/svg"><path d="M313.63 114.55c-.61-.93-2.03-3.1-35.92-5.47-22.68-1.6-51.25-2.6-80.54-2.86-4.8 0-9.71-.06-14.56-.06-51.55 0-124.75 2.3-180.78 13.2H1.6A2.39 2.39 0 0 0 .05 121c-.5 2.12 2.7 5.5 4.65 7.31l.37.34.36.34.52-.11.52-.11c.37-.08 37.05-8 92.53-12.7a969.51 969.51 0 0 1 81.88-3.51c45 0 88.03 3.23 127.87 9.67.3.05.6.08.92.07a4.53 4.53 0 0 0 3.65-1.72 5.6 5.6 0 0 0 .31-6.04zM133.9 99.66c-4.07.98-6.93.83-8.59-.47a7.88 7.88 0 0 1-3.04-4.74 16.7 16.7 0 0 1 .56-8c0-1 .36-1.54 1.1-1.66a1.18 1.18 0 0 1 1.1.74.81.81 0 0 1 0 .74 2.54 2.54 0 0 0 .74 2.5c.74.81 2.58 1.27 5.54 1.4 3.07-.13 5.54-.2 7.39-.2 1.85 0 3.57-.06 5.18-.19a24.67 24.67 0 0 1-5.18-2.41c-.5-.25-.62-.56-.37-.94a.6.6 0 0 1 .37-.56c.24-.31.6-.51 1-.56h.8v.19h.19a17.82 17.82 0 0 0 7.41.65 31.1 31.1 0 0 0 13.19-4.73 65.97 65.97 0 0 0 4.9-3c1.43-.97 2.8-2.04 4.1-3.19 1.48-1.33 3.2-2.97 5.18-4.92l8.34-8.4h-.19a42.54 42.54 0 0 1-13.02-9.2 45.96 45.96 0 0 1-7.4-10.22 38.65 38.65 0 0 1-3.33-8.52c-.37-1.44-.64-2.9-.8-4.37a4.58 4.58 0 0 1 0-2.6v-.37c.08-.64.27-1.27.55-1.85.22-.45.46-.89.73-1.3.34-.35.71-.66 1.1-.93.38-.25 1.33-.84 2.87-1.77 1.54-.94 2.8-1.7 3.79-2.32.62-.24.98-.3 1.1-.19a.17.17 0 0 1 .18.11c.01.03.02.05.01.08a.52.52 0 0 1 .11.72c-.14.16-.24.35-.28.56-.54.39-.93.96-1.1 1.6-.13.4-.13.82 0 1.22l-.19.37c.16.62.23 1.26.19 1.9.02 1.28.14 2.56.37 3.81a43.23 43.23 0 0 0 4.68 14.06 41.26 41.26 0 0 0 14.29 15.33 658.1 658.1 0 0 0 14.05-14.99c4.69-5.15 9.25-10.18 13.68-15.08a333.98 333.98 0 0 1 14.97-15.52c3.18-3.12 6.56-6.04 10.12-8.72A20.25 20.25 0 0 1 246.7.28a7.5 7.5 0 0 1 4.07 0c1.2.56 2.34 1.23 3.41 2a9.85 9.85 0 0 1 2.98 3.35 11.82 11.82 0 0 1 1.39 5.1 16.5 16.5 0 0 1-1.48 7.06 42.13 42.13 0 0 1-3.78 6.88 91.35 91.35 0 0 1-7.4 9.75c-3.03 3.5-6.46 7.1-10.27 10.83-3.83 3.72-8 7.05-12.48 9.94a67.48 67.48 0 0 1-14.13 7 35.99 35.99 0 0 1-14.92 2 165.34 165.34 0 0 1-15.87 15.17 83.82 83.82 0 0 1-6.74 5.1 20.18 20.18 0 0 1-4.9 2.6c7.02-.75 13.43-1.25 19.24-1.5 5.8-.24 11.3-.3 16.46-.18 2.58.03 5.15.34 7.67.93 1.46.36 2.86.93 4.16 1.68a4.5 4.5 0 0 1 1.99 2.6c.1 1.49.29 2.98.55 4.45a43.46 43.46 0 0 1 .75 5.43c-.12.48-.22.98-.28 1.48-.06.49-.4.74-1 .74-.59 0-.73-.12-.73-.37a.23.23 0 0 1 0-.33 4.57 4.57 0 0 0-1.99-2.6c-1-.73-2.08-1.35-3.2-1.86-1.34-.5-2.75-.99-4.26-1.48-5-1.21-10.1-2.02-15.23-2.42-4.7-.36-9.42-.49-14.14-.37-4.43.12-8.41.37-11.93.74-3.52.38-6.26.74-8.22 1.11-2.1.37-3.92.68-5.45.93-1.54.25-3.15.56-4.82.93l-5.36 1.2-6.89 1.49zm68.39-44.18l-1.1 1.12c-.4.4-.78.84-1.11 1.3a52.63 52.63 0 0 0 8.59-3.9 92.55 92.55 0 0 0 10.42-6.88c5.9-4.53 11.47-9.5 16.63-14.86a103.9 103.9 0 0 0 10.54-12.82 43.2 43.2 0 0 0 5.18-9.57c.86-2.53.98-4.18.36-4.92-.49-.5-1.69.04-3.6 1.6a95.13 95.13 0 0 0-7.1 6.6 259.37 259.37 0 0 0-9.34 9.94l-10.34 11.44c-3.52 3.9-6.93 7.67-10.26 11.33a676.48 676.48 0 0 1-8.87 9.62z" fill="#fff"/><path d="M227.76 81.49a7.47 7.47 0 0 1-3.7-3 7.63 7.63 0 0 1-.8-5.11 22.64 22.64 0 0 1 2.72-7.46c1.96-3.49 4.2-6.8 6.72-9.9a88.22 88.22 0 0 1 8.22-8.9 35.71 35.71 0 0 1 5.74-4.47 7.67 7.67 0 0 1 4.28-1.4c.78.12 1.54.28 2.3.5.64.2 1.27.46 1.89.73.6.28 1.17.52 1.72.74a2.68 2.68 0 0 1 1.39 2.14c.06.88.08 1.5.08 1.81 0 .23-.06.46-.16.66a1 1 0 0 1-.66.5c-.44 0-.65-.1-.65-.34a.21.21 0 0 1 0-.29 1.2 1.2 0 0 0-.66-1.15 1.27 1.27 0 0 0-.49-.16 2.9 2.9 0 0 0-1.99.5c-.88.51-1.7 1.12-2.46 1.8a7.3 7.3 0 0 1 3.12-.58c.69-.02 1.37.12 1.99.41l.8.81c.37.4.62.88.74 1.4.16.8.14 1.63-.08 2.42-.35 1.33-.9 2.61-1.6 3.8a20.7 20.7 0 0 0 2.62-.58 21 21 0 0 1 2.72-.58 2.67 2.67 0 0 1 1.72.16c.32.22.16.75-.49 1.6a3.58 3.58 0 0 1-1.72 1.4c-.71.28-1.46.48-2.22.58-.76.11-1.52.2-2.3.25-.72.05-1.43.19-2.12.41-1.85 3.07-4 5.95-6.41 8.59-4.5 5.28-8.23 8.75-11.23 10.4-3 1.64-5.1 2.5-6.32 2.56-.52.11-1.05.11-1.57 0a5.18 5.18 0 0 1-1.14-.25zm14.12-23.1a113.55 113.55 0 0 0-5.83 7.43 47 47 0 0 0-3.37 5.36 25.94 25.94 0 0 0-1.55 3.46c-.23.61-.36 1.25-.4 1.9a.76.76 0 0 0 .48.8c1.37 0 2.7-.47 3.78-1.32a35.1 35.1 0 0 0 4.97-4 70.8 70.8 0 0 0 5.17-5.44c1.7-2 3.2-3.92 4.52-5.78a4.72 4.72 0 0 1-3.27-1.7 4.68 4.68 0 0 1-.58-3.88 9.1 9.1 0 0 1 .8-2.14 22.24 22.24 0 0 0-3.46 3.62l-1.26 1.7zm8.54-5a2 2 0 0 0-.73 1.57c0 .39.15.77.4 1.07.28.4.68.68 1.15.8h.8c1.42-2.53 1.8-4.01 1.15-4.45a1.6 1.6 0 0 0-1.8.16c-.4.19-.75.48-1 .85h.03zM280.83 81.49a7.47 7.47 0 0 1-3.7-3 7.63 7.63 0 0 1-.8-5.11 22.64 22.64 0 0 1 2.71-7.43c1.95-3.49 4.2-6.8 6.72-9.9a88.23 88.23 0 0 1 8.22-8.9 35.71 35.71 0 0 1 5.74-4.47 7.67 7.67 0 0 1 4.28-1.42c.77.1 1.54.27 2.3.48.64.22 1.27.47 1.88.74.6.28 1.17.52 1.73.74a2.68 2.68 0 0 1 1.39 2.14c.06.88.08 1.5.08 1.81 0 .23-.06.46-.16.66a1 1 0 0 1-.66.5c-.44 0-.65-.1-.65-.34a.21.21 0 0 1 0-.29 1.2 1.2 0 0 0-.66-1.15 1.27 1.27 0 0 0-.49-.16 2.9 2.9 0 0 0-1.99.5c-.88.51-1.7 1.12-2.46 1.8a7.3 7.3 0 0 1 3.12-.58c.68-.02 1.37.12 1.99.41l.8.81c.36.4.62.88.74 1.4.16.8.14 1.63-.08 2.42-.35 1.33-.9 2.61-1.6 3.8a20.7 20.7 0 0 0 2.62-.58 21 21 0 0 1 2.72-.58 2.67 2.67 0 0 1 1.72.16c.32.22.16.75-.49 1.6a3.58 3.58 0 0 1-1.72 1.4c-.71.28-1.46.48-2.22.58-.76.11-1.52.2-2.3.25-.72.05-1.43.19-2.12.41-1.85 3.06-4 5.92-6.42 8.54-4.5 5.28-8.23 8.75-11.23 10.4-3 1.64-5.1 2.52-6.32 2.63-.51.11-1.04.11-1.56 0a5.18 5.18 0 0 1-1.13-.27zm14.1-23.1a113.5 113.5 0 0 0-5.83 7.42 46.99 46.99 0 0 0-3.37 5.36 25.95 25.95 0 0 0-1.57 3.46c-.23.61-.36 1.25-.4 1.9a.76.76 0 0 0 .48.8c1.37 0 2.7-.47 3.78-1.32a35.1 35.1 0 0 0 4.97-4 70.8 70.8 0 0 0 5.17-5.44c1.7-2 3.2-3.92 4.52-5.78a4.71 4.71 0 0 1-3.22-1.73 4.68 4.68 0 0 1-.57-3.87 9.1 9.1 0 0 1 .8-2.14 22.24 22.24 0 0 0-3.46 3.62l-1.3 1.71zm8.54-5a2 2 0 0 0-.73 1.56c0 .39.15.77.4 1.07.28.4.68.68 1.15.8h.8c1.42-2.53 1.8-4.01 1.15-4.45a1.6 1.6 0 0 0-1.8.16c-.4.19-.75.48-1 .85h.03zM57.8 42.34a6.58 6.58 0 0 1 2.07 2.75 2.7 2.7 0 0 1-.43 3.08c-.23.23-.53.56-.92 1-.39.44-1 1.1-1.9 2a286.5 286.5 0 0 0-7.96 9 185.3 185.3 0 0 0-6.42 7.49 92.23 92.23 0 0 0-4.56 6 .65.65 0 0 0 .08.91c.34.31.78.49 1.24.5.66.05 1.31-.07 1.91-.33.88-.39 1.64-.99 2.24-1.74a104.4 104.4 0 0 1 3.49-3.66l3.3-3.33 6.96-6.82c.16-.27.4-.5.67-.67.55-.33-2.4 2.93-1.84 3.16a1.17 1.17 0 0 1 .17 1.64l-.1.1c-.5.61-.85 1-1.08 1.25-2.82 2.9-5.34 5.5-7.56 7.83-1.88 2-3.67 3.88-5.4 5.63-1.71 1.75-2.73 2.83-3.07 3.17a6.72 6.72 0 0 1-3.4 1.5c-1.6.33-2.73.28-3.4-.16a4.06 4.06 0 0 0-.74-.59c-.3-.2-.56-.45-.75-.75l-1.82 2.17-1.66 2c1.21.22 2.37.38 3.48.5 1 .09 2 .26 2.98.5 1.37.2 2.71.6 3.98 1.16.73.33 1.4.78 2 1.33.4.4.68.92.8 1.5v2.5c0 .6-.03 1.21-.08 1.82-.06.56-.08.9-.08 1 0 .89-.23 1.27-.67 1.16-.44-.11-.5-.06-.5-.16v-.17a3.79 3.79 0 0 0-.74-1.6 8.4 8.4 0 0 0-1.41-1.43 7.88 7.88 0 0 0-2.1-1.12 46.98 46.98 0 0 0-5.54-1.9c-1.82-.5-3.62-.92-5.38-1.26a325.6 325.6 0 0 1-3.31 3.83c-.89 1-1.55 1.77-1.99 2.34a7.78 7.78 0 0 0-1.16 1.62c-.37.35-.72.73-1.04 1.13-.26.31-.57.58-.91.8-.55.67-1.16 1.29-1.82 1.84-.46.38-.96.71-1.5 1l-.5.33c-.44.14-.88.3-1.31.5-.51.2-1.07.26-1.6.16-.32-.09-.62-.2-.92-.33h-.17a10.5 10.5 0 0 1-1.82-1.16 26 26 0 0 1-1.66-1.08A26 26 0 0 0 2.3 99.2h-.16l-.5-.33a1.77 1.77 0 0 1-.66-1.5v-1a4.85 4.85 0 0 1 1-3c.3-.42.7-.76 1.16-1a96.95 96.95 0 0 0 6.63-4.24 62.9 62.9 0 0 1 4.97-3.23c.18-.02.35-.08.5-.17.31-.13.65-.18 1-.16h1.32l2.32-2.34c.8-.8 1.63-1.66 2.49-2.58.6-.5 1.16-1.06 1.66-1.67a31.83 31.83 0 0 1-4.15 3.17c-2.32 1.55-3.78 2.19-4.4 1.9a3.23 3.23 0 0 1-1.4-2.24 18.38 18.38 0 0 1 .5-8c.73-2.6 1.68-5.13 2.82-7.57a63.41 63.41 0 0 1 5.96-10.07c.23-.22.33-.4.33-.5a85.85 85.85 0 0 0 2.94-4.12l1.53-2.3v-.17c.8-.81 1.53-1.7 2.16-2.66.25-.28.42-.63.5-1 .23-.64.23-1.35 0-2a.48.48 0 0 1-.16-.33.68.68 0 0 1 .33-.66l.33-.33c.27 0 .55.05.8.17.37.48.79.92 1.24 1.32.5.45 1.04.9 1.6 1.33.57.5 1.1 1 1.62 1.55l.32.67c.2.59.32 1.2.33 1.83 0 .23-.02.45-.08.67-.05.22-.08.44-.08.67a.27.27 0 0 1-.16.25.27.27 0 0 0-.16.25 13.06 13.06 0 0 1-2 3.5l-1.32 1.67a30.7 30.7 0 0 0-1.33 1.75c-.44.62-.94 1.27-1.49 1.93a77.07 77.07 0 0 0-8.95 13.46A42.34 42.34 0 0 0 19 77.75c.53-.1 1.72-.96 3.56-2.58 1.83-1.6 3.91-3.59 6.24-5.93 2.32-2.33 4.7-4.78 7.13-7.33 2.43-2.55 4.59-4.82 6.46-6.82.9-1.23 1.86-2.4 2.9-3.5a72.67 72.67 0 0 0 2.9-3.17c.56-.67 1.07-1.3 1.6-1.9l1.41-1.62 1.28-1.3.8-.8c.4-.44.85-.83 1.32-1.18h.16a2.97 2.97 0 0 1 2.16.17c.32.15.62.33.89.55zM10.6 92.31c.32-.33.66-.69.99-1.08.33-.39.8-.86 1.32-1.42l-8.28 5.33c-.11.1-.31.33-.59.67a.87.87 0 0 0 .08 1.16c.08.1.2.16.33.17.25.11.53.17.8.16.53-.1 1-.4 1.33-.81.77-.78 1.46-1.5 2.06-2.17.65-.69 1.28-1.35 1.93-2h.02z" fill="#fff"/><path d="M54.25 81.67a7.5 7.5 0 0 1-3.73-3 7.69 7.69 0 0 1-.8-5.17 22.93 22.93 0 0 1 2.76-7.48 70.48 70.48 0 0 1 6.8-10c2.54-3.18 5.3-6.19 8.25-8.99a36.1 36.1 0 0 1 5.8-4.5 7.42 7.42 0 0 1 4.3-1.5c.79.12 1.57.29 2.33.5.67.23 1.3.48 1.9.75.6.27 1.18.52 1.74.75a2.71 2.71 0 0 1 1.37 2.22c.05.89.08 1.5.08 1.83 0 .24-.06.47-.17.67a1 1 0 0 1-.66.5c-.44 0-.67-.1-.67-.33a.21.21 0 0 1 0-.29 1.2 1.2 0 0 0-.67-1.17 1.32 1.32 0 0 0-.5-.16c-.7-.07-1.4.1-1.98.5-.89.53-1.72 1.14-2.49 1.83 1-.42 2.07-.62 3.14-.58.69-.02 1.37.13 2 .42l.8.81c.37.4.62.89.74 1.42.17.8.14 1.63-.08 2.42a14.77 14.77 0 0 1-1.66 3.83c.9-.18 1.79-.41 2.66-.7.9-.26 1.81-.45 2.73-.58.58-.15 1.2-.1 1.74.16.34.23.17.8-.5 1.67a3.62 3.62 0 0 1-1.73 1.41c-.73.28-1.48.48-2.24.6-.8.1-1.55.18-2.33.24-.73.05-1.46.2-2.16.42-1.86 3.1-4.02 6-6.46 8.66-4.53 5.33-8.3 8.82-11.34 10.47-3.04 1.65-5.18 2.54-6.42 2.66-.53.11-1.07.11-1.6 0a5.14 5.14 0 0 1-.95-.29zm14.24-23.3a117.9 117.9 0 0 0-5.9 7.49 46.94 46.94 0 0 0-3.38 5.38 26.2 26.2 0 0 0-1.6 3.5 6.71 6.71 0 0 0-.42 1.9.81.81 0 0 0 .5.81 6.26 6.26 0 0 0 3.8-1.33 35.56 35.56 0 0 0 4.98-4 78.14 78.14 0 0 0 9.77-11.32 4.8 4.8 0 0 1-3.21-1.75 4.72 4.72 0 0 1-.59-3.91c.18-.76.45-1.49.8-2.17-.7.6-1.36 1.24-1.98 1.92-.56.6-1.05 1.19-1.5 1.75l-1.27 1.72zm8.62-5a2 2 0 0 0-.77 1.6c.02.4.16.78.42 1.09.28.4.7.68 1.16.8h.8c1.45-2.55 1.83-4.05 1.17-4.5a1.6 1.6 0 0 0-1.83.18c-.4.18-.74.47-1 .83h.05z" fill="#fff"/><path d="M123.36 59.07c5.28 1.77-23.71 22.99-26.94 22.99-.55.1-1.11 0-1.6-.25A9.2 9.2 0 0 1 93 79.56a6.72 6.72 0 0 1-.67-4.4c.19-.37.3-.77.33-1.18.29-1.1.73-2.18 1.32-3.16a734.02 734.02 0 0 1-6.12 5.41 76.32 76.32 0 0 1-4.98 4.08c-2.31 1.55-3.8 2.19-4.47 1.9a3.08 3.08 0 0 1-1.5-2.24c-.1-.94-.1-1.89 0-2.83.21-1.75.6-3.48 1.16-5.15.88-2.6 1.96-5.13 3.24-7.56a97.32 97.32 0 0 1 6.14-10.32c0-.06.1-.14.33-.25 1.1-1.67 2.07-3.08 2.89-4.25.5-.72 1.03-1.42 1.6-2.08v-.17l1-1.33.99-1.33c.25-.28.42-.62.5-1 .22-.64.22-1.35 0-2-.33-.32-.27-.72.17-1.16a.34.34 0 0 0 .24-.08.35.35 0 0 1 .25-.08c.28 0 .56.05.8.17.38.48.8.93 1.25 1.32.5.45.97.9 1.4 1.33.44.44 1 .94 1.66 1.5a2 2 0 0 1 .33.5c.25.58.37 1.2.34 1.83v.17c-.06.46-.17.9-.34 1.33v.33a10 10 0 0 1-2.32 3.67 15.5 15.5 0 0 1-1.16 1.67c-.44.54-.91 1.12-1.4 1.75-.5.6-1 1.25-1.6 1.91a76.99 76.99 0 0 0-5.28 7.29c-1.5 2.33-2.8 4.39-3.9 6.17-1.22 2-2.32 3.87-3.31 5.63.56-.1 1.74-1 3.56-2.67a275.86 275.86 0 0 0 13.33-13.17l6.47-6.82a211.9 211.9 0 0 1 5.8-6.8c.55-.68 1.07-1.28 1.6-1.84l1.4-1.5 1.33-1.34c.18-.3.4-.57.67-.8.2-.22.42-.42.66-.6.24-.17.46-.37.67-.57.12-.01.24-.07.33-.16a2.65 2.65 0 0 1 2.32.33c.09.09.2.15.33.16.18.02.35.08.5.17.89.79 1.57 1.78 1.99 2.9a2.55 2.55 0 0 1-.5 2.92c-.23.23-.56.58-1 1.08l-1.66 1.91a455.44 455.44 0 0 0-7.95 9.16 857.04 857.04 0 0 0-6.41 7.5c-2.06 2.44-3.43 4.5-4.56 5.83-7.93 9.43 22.3-13.9 22.6-13.57z" fill="#fff"/><path d="M137.41 73.64c-.1.5-.6.63-1.46.41-.9-.37-1.74-.86-2.5-1.46-.46-.4-.83-.9-1.06-1.46-1.18-2.06-1.07-4.56.33-7.49a44.5 44.5 0 0 1 5.5-8.62c-1.94 1.33-3.93 2.8-5.97 4.4a40.22 40.22 0 0 0-5.34 5 898.4 898.4 0 0 0-5.26 6.74 63.62 63.62 0 0 0-3.32 4.63h.16l-.88 1.22c-.27.4-.52.8-.73 1.22a.15.15 0 0 0-.15.1v.06l-.65 1-.65 1c-.12.27-.23.55-.3.84a1.12 1.12 0 0 0 .15 1.3.46.46 0 0 1 .16.33c0 .1-.11.27-.33.49l-.16.16a1 1 0 0 1-.64-.16c-.33-.22-.79-.54-1.38-1-.5-.34-.97-.71-1.42-1.12-.1-.11-.19-.16-.24-.16-.05 0-.13-.05-.24-.16a.14.14 0 0 1-.16-.16c-.21 0-.37-.16-.48-.49a2.4 2.4 0 0 1 0-2.12l.16-.33c.07-.39.18-.77.32-1.14.1-.1.18-.2.24-.33.07-.12.15-.23.24-.33 1.51-2.82 3.21-5.72 5.1-8.7 1.9-2.99 3.91-6.05 6.07-9.2 1.72-2.49 3.26-4.68 4.61-6.58 1.35-1.9 2.14-3.01 2.35-3.34v-.16a7.26 7.26 0 0 0 2.1-2.6c.25-.28.42-.63.48-1 .24-.64.24-1.35 0-2 0-.16-.03-.33-.08-.49a.67.67 0 0 1 .24-.64.47.47 0 0 1 .33-.16.81.81 0 0 1 .8.16c.48.36.91.77 1.3 1.21.45.5.93.97 1.46 1.38.43.44.97.93 1.62 1.47a2 2 0 0 1 .33.5c.11.21.22.45.33.72.12.34.17.7.16 1.06v.16c-.1.18-.15.37-.16.57-.01.2-.07.4-.16.57a.33.33 0 0 1-.08.24.33.33 0 0 0-.08.24c-.23.56-.5 1.1-.8 1.63a39.1 39.1 0 0 1-1.3 2l3.48-2.44a79.77 79.77 0 0 1 3.98-2.6 36.21 36.21 0 0 0 4.82-3.76c.3-.19.56-.4.8-.65l.65-.65c.2-.2.41-.36.65-.49.18-.08.34-.2.49-.33a.65.65 0 0 1 .49-.16h.15c.9.1 1.73.45 2.43 1a3.9 3.9 0 0 1 2.1 2.44v.84a.14.14 0 0 1 .16.1v.06c-.1.2-.17.43-.23.65-.08.25-.22.48-.4.65a20.67 20.67 0 0 1-2.6 3.09 73.65 73.65 0 0 1-3.07 2.93l-3.56 3.26a42.45 42.45 0 0 0-6.7 7.99 80.97 80.97 0 0 0-3.33 5.86c-.22.65-.06 1.09.49 1.3l.8.49c-.02.34-.07.68-.16 1.01z" fill="#fff"/><path d="M213.41 26.34l3.31-3.56a979.48 979.48 0 0 1-46.15 2.54 21 21 0 0 0 .3 2.92v.1c.17 1.2.42 2.4.71 3.6 12.14-.24 24.86-.63 37.9-1.22l3.93-4.38zM236.95 20.98c-1.1 1.19-2.23 2.43-3.4 3.73l-4.48 5 6.15-.4c2.62-2.82 5.08-5.78 7.37-8.87l-5.64.54zM139.38 32.26c5.63 0 11.54 0 17.63-.09-.13-.69-.23-1.38-.32-2.07a7.02 7.02 0 0 1 0-3.38V26.3c0-.22.04-.44.12-.66-5.24.1-10.47.14-15.68.14-45 0-88.03-3.22-127.87-9.67-.3-.05-.61-.07-.92-.07a4.52 4.52 0 0 0-3.66 1.72 5.6 5.6 0 0 0-.3 6.1c.61.93 2.03 3.1 35.92 5.46 22.68 1.61 51.25 2.6 80.54 2.86 4.79.03 9.69.1 14.54.1zM317.3 10.02l-.37-.34-.36-.33-.52.1-.52.12c-.28.06-21.57 4.63-56.18 8.9l-.1.27a44.46 44.46 0 0 1-3.99 7.23c-.4.62-.83 1.23-1.26 1.85a641.35 641.35 0 0 0 66.17-8.78H320.4a2.39 2.39 0 0 0 1.55-1.71c.5-2.12-2.7-5.5-4.65-7.3z" fill="#F14ABC"/><path d="M281.38 52.86c-2.34 1.22-4.3 2.26-5.86 3.1-1.56.84-3.2 1.78-4.9 2.84-1.74 1.06-3.22 2-4.44 2.85-.91.57-1.75 1.25-2.51 2.01-.45.5-.12.7 1 .59a58.8 58.8 0 0 1 3.6-.5c.88-.08 1.75-.25 2.6-.5a4.9 4.9 0 0 1 3.09.33c.95.45 1.14.99.59 1.63l-2.68 3.01c0 .12-.22.4-.67.82-.45.43-.82 1.03-1.43 1.76a56.4 56.4 0 0 0-2.45 3.27c-.33.67 0 1.06 1.09 1.18 1.09.11 2.37-.67 3.93-2.35a48.8 48.8 0 0 1 3.35-3.68l3.35-3.35 3.51-3.52c.35-.33.74-.6 1.17-.82.78-.33 1.32-.33 1.64 0a1.03 1.03 0 0 1 .16 1.59c-.3.44-.64.86-1 1.26a2604.54 2604.54 0 0 0-12.8 13.43 40.22 40.22 0 0 1-3.43 3.35c-.43.4-.9.74-1.43 1a11.08 11.08 0 0 1-4.02 1.24c-.49.08-.99-.01-1.42-.25a4.46 4.46 0 0 1-1.5-1.5c-.82.88-1.51 1.7-2.18 2.44-.66.72-1.28 1.48-1.84 2.27 1.23.1 2.4.22 3.52.34 1.06.1 2.13.26 3.18.5 1.33.21 2.63.64 3.85 1.25.73.38 1.4.86 2 1.42.43.4.71.94.82 1.51v5.36c-.18.25-.32.52-.41.81-.06.23-.26.34-.6.34a.15.15 0 0 1-.15-.16v-.34a4.38 4.38 0 0 0-2.35-2.84c-.69-.46-1.42-.85-2.18-1.17a52.62 52.62 0 0 0-10.88-3.36 539.58 539.58 0 0 0-3.34 3.94l-1.93 2.26v.17l-1.34 1.63c-.44.44-.82.82-1.09 1.17-.26.32-.58.6-.92.82-.53.64-1.12 1.23-1.76 1.76a9 9 0 0 1-1.6 1.08.5.5 0 0 1-.33.17l-1.5.67c-.5.2-1.06.26-1.59.16a5.94 5.94 0 0 1-1.08-.43.15.15 0 0 1 0-.07c-.66-.3-1.29-.68-1.87-1.11l-1.63-1-1.64-1.01-.16-.16v-.17l-.34-.16c-.2-.18-.34-.42-.42-.67a3.08 3.08 0 0 0-.25-.67 3.2 3.2 0 0 1-.16-1c-.12-.6-.03-1.23.25-1.77.28-.5.53-.92.75-1.25.3-.42.7-.76 1.17-1a87 87 0 0 0 6.7-4.35 44.65 44.65 0 0 1 5.19-3.35.48.48 0 0 1 .33-.16h2.35c1.79-2.12 3.18-3.76 4.19-4.9 1-1.16 1.78-2.08 2.33-2.77l1.26-1.5c.28-.34.64-.82 1.1-1.35.44-.52 1.02-1.3 1.75-2.26.73-.96 1.86-2.32 3.43-4.1l-2.5.68c-1.8.67-2.91.33-3.35-1 .03-1.1.14-2.2.33-3.28a9.32 9.32 0 0 1 2.35-4.44c2.23-2.12 4.24-3.93 6.03-5.44 1.78-1.5 3.82-3.12 6.1-4.85a51.82 51.82 0 0 1 7.29-4.6h.16l.33-.34c.11 0 .14 0 .09-.08a.66.66 0 0 0-.42-.09 66.46 66.46 0 0 0-3.93-.5c-1.1-.1-2.2-.26-3.27-.5-.56 0-.82-.1-.82-.33.02-.28.14-.55.33-.75.31-.42.67-.8 1.05-1.15.67 0 1.73.03 3.18.09l4.52.16a113.2 113.2 0 0 1 8.04.59 4.9 4.9 0 0 1 1.63 2.5 7.54 7.54 0 0 1-.41 3.94c-.5 1.4-1.2 2.21-2.1 2.45l-1.42.5c-.78.27-1.57.49-2.38.66zm-39.5 37.66l-8.7 5.53c-.22.11-.4.29-.5.5a1.2 1.2 0 0 0 .16 1.35c.11 0 .16 0 .16.08s.06.08.16.08c.26.11.55.14.82.08.53-.18.99-.5 1.34-.92.74-.63 1.44-1.3 2.1-2.01.6-.67 1.25-1.4 1.92-2.18l2.54-2.5z" fill="#fff"/></svg>