<svg width="322" height="129" fill="none" xmlns="http://www.w3.org/2000/svg"><path d="M313.6 114.5c-.6-.9-2-3-35.9-5.4a1363 1363 0 0 0-80.5-2.9h-14.6c-51.5 0-124.7 2.3-180.8 13.2h-.2A2.4 2.4 0 0 0 .1 121c-.6 2.1 2.6 5.5 4.6 7.3l.4.4.3.3.6-.1.5-.1c.3-.1 37-8 92.5-12.7 27.2-2.3 54.8-3.5 81.9-3.5a804.8 804.8 0 0 1 128.8 9.7 4.5 4.5 0 0 0 3.6-1.7 5.6 5.6 0 0 0 .3-6zM133.9 99.7c-4 1-7 .8-8.6-.5a7.9 7.9 0 0 1-3-4.7c-.5-2.7-.3-5.5.5-8 0-1 .4-1.6 1.1-1.7a1.2 1.2 0 0 1 1.1.7.8.8 0 0 1 0 .8 2.5 2.5 0 0 0 .8 2.5c.7.8 2.6 1.2 5.5 1.4a188.6 188.6 0 0 1 12.6-.4c-1.8-.6-3.6-1.4-5.2-2.4-.5-.3-.6-.6-.4-1a.6.6 0 0 1 .4-.5c.2-.3.6-.5 1-.6h.8v.2h.2a17.8 17.8 0 0 0 7.4.6 32 32 0 0 0 13.2-4.7 66 66 0 0 0 9-6.2l5.2-4.9 8.3-8.4h-.2a42.5 42.5 0 0 1-24.5-32.3c-.3-.8-.3-1.7 0-2.6v-.4c0-.6.2-1.2.5-1.8l.8-1.3 1-1 3-1.7 3.7-2.3c.6-.3 1-.3 1.1-.2a.2.2 0 0 1 .2 0v.2a.5.5 0 0 1 .1.7l-.3.5c-.5.4-.9 1-1 1.6a2 2 0 0 0 0 1.3l-.3.3c.2.6.3 1.3.2 2a40.3 40.3 0 0 0 5 17.9 42.2 42.2 0 0 0 14.4 15.2c4.6-4.8 9.3-9.8 14-15l13.7-15a334 334 0 0 1 15-15.6c3.1-3 6.5-6 10-8.7 2-1.5 4.2-2.7 6.5-3.4 1.3-.4 2.7-.4 4 0 1.3.5 2.4 1.2 3.5 2 1.2.9 2.2 2 3 3.3.8 1.6 1.3 3.3 1.3 5.1 0 2.5-.4 4.9-1.4 7-1 2.5-2.3 4.8-3.8 7a91.3 91.3 0 0 1-7.4 9.7c-3 3.5-6.5 7.1-10.3 10.9-3.8 3.7-8 7-12.5 9.9a67.5 67.5 0 0 1-14 7 36 36 0 0 1-15 2 150.3 150.3 0 0 1-22.6 20.3c-1.5 1-3.2 2-5 2.6a306.2 306.2 0 0 1 35.8-1.7c2.6 0 5.1.3 7.7 1 1.4.3 2.8.8 4.1 1.6 1 .6 1.7 1.5 2 2.6a42.7 42.7 0 0 0 1.1 7.9l.2 2-.3 1.4c0 .5-.4.8-1 .8s-.7-.1-.7-.4a.2.2 0 0 1 0-.3c-.3-1.1-1-2-2-2.6-1-.7-2-1.4-3.2-1.9l-4.3-1.4c-5-1.3-10-2-15.2-2.5a138 138 0 0 0-34.3 1.5 324.9 324.9 0 0 1-10.2 1.9l-5.4 1.2-6.9 1.5zm68.4-44.2l-1.1 1.1-1.1 1.3c3-1 5.8-2.3 8.6-3.9 3.6-2 7-4.4 10.4-6.9 5.9-4.5 11.5-9.5 16.6-14.8 3.9-4 7.4-8.3 10.6-12.9 2-3 3.8-6.1 5.1-9.5.9-2.6 1-4.2.4-5-.5-.4-1.7 0-3.6 1.7A259.4 259.4 0 0 0 231.8 23l-10.4 11.4a4244.3 4244.3 0 0 1-19.1 21z" fill="#fff"/><path d="M227.8 81.5a7.5 7.5 0 0 1-3.7-3 7.6 7.6 0 0 1-.8-5.1c.4-2.7 1.3-5.2 2.7-7.5a88.2 88.2 0 0 1 15-18.8c1.7-1.7 3.6-3.2 5.7-4.4a7.7 7.7 0 0 1 4.2-1.4 17.3 17.3 0 0 1 6 2 2.7 2.7 0 0 1 1.3 2l.1 1.9-.1.6a1 1 0 0 1-.7.5c-.4 0-.7 0-.7-.3a.2.2 0 0 1 0-.3 1.2 1.2 0 0 0-.6-1.1l-.5-.2c-.7 0-1.4 0-2 .5-.9.5-1.7 1.1-2.5 1.8 1-.4 2.1-.6 3.2-.6.7 0 1.3.1 2 .4l.8.8.7 1.4c.2.8.1 1.7 0 2.4-.4 1.4-1 2.7-1.7 3.8 1 0 1.8-.3 2.6-.5a21 21 0 0 1 2.8-.6c.5-.2 1.1-.1 1.7.1.3.3.1.8-.5 1.7-.4.6-1 1-1.7 1.4l-2.2.5-2.3.3c-.8 0-1.5.2-2.2.4-1.8 3-4 6-6.4 8.6a46 46 0 0 1-11.2 10.4c-3 1.6-5.1 2.5-6.3 2.5-.5.1-1 .1-1.6 0-.4 0-.8 0-1.1-.2zm14-23.1a113.5 113.5 0 0 0-9.1 12.8 26 26 0 0 0-1.6 3.4l-.4 2a.8.8 0 0 0 .5.7c1.4 0 2.7-.4 3.8-1.3a70.8 70.8 0 0 0 14.7-15.2 4.7 4.7 0 0 1-3.3-1.7 4.7 4.7 0 0 1-.6-3.9c.2-.7.4-1.4.8-2.1a22.2 22.2 0 0 0-3.5 3.6l-1.2 1.7zm8.6-5a2 2 0 0 0-.7 1.6c0 .3.1.7.4 1 .3.4.7.7 1.1.8h.8c1.5-2.5 1.8-4 1.2-4.4a1.6 1.6 0 0 0-1.8.1c-.4.2-.8.5-1 .9zM280.8 81.5a7.5 7.5 0 0 1-3.7-3 7.6 7.6 0 0 1-.8-5.1c.5-2.6 1.4-5.2 2.7-7.5a88.2 88.2 0 0 1 15-18.8c1.7-1.6 3.7-3.1 5.7-4.4a7.7 7.7 0 0 1 4.3-1.4 17.3 17.3 0 0 1 6 2 2.7 2.7 0 0 1 1.3 2v2.5a1 1 0 0 1-.7.5c-.5 0-.7 0-.7-.3a.2.2 0 0 1 0-.3 1.2 1.2 0 0 0-.7-1.1l-.4-.2c-.7 0-1.4 0-2 .5-1 .5-1.7 1.1-2.5 1.8 1-.4 2-.6 3.1-.6.7 0 1.4.1 2 .4l.8.8c.4.4.6 1 .8 1.4.1.8.1 1.7-.1 2.4-.4 1.4-1 2.7-1.6 3.8.9 0 1.7-.3 2.6-.5a21 21 0 0 1 2.7-.6c.6-.2 1.2-.1 1.7.1.4.3.2.8-.4 1.7-.5.6-1 1-1.8 1.4l-2.2.5-2.3.3c-.7 0-1.4.2-2.1.4-1.9 3-4 6-6.4 8.5a46 46 0 0 1-11.3 10.4c-3 1.7-5 2.5-6.3 2.7H282l-1.2-.3zM295 58.4a113.5 113.5 0 0 0-9.2 12.8 26 26 0 0 0-1.5 3.4c-.3.6-.4 1.3-.4 2a.8.8 0 0 0 .4.7c1.4 0 2.7-.4 3.8-1.3a70.8 70.8 0 0 0 14.7-15.2 4.7 4.7 0 0 1-3.2-1.7 4.7 4.7 0 0 1-.6-4c.2-.7.4-1.4.8-2a22.2 22.2 0 0 0-3.5 3.6l-1.3 1.7zm8.6-5a2 2 0 0 0-.8 1.5c0 .4.2.8.4 1.1.3.4.7.7 1.2.8h.8c1.4-2.5 1.8-4 1.1-4.4a1.6 1.6 0 0 0-1.8.1c-.4.2-.7.5-1 .9zM57.8 42.3c1 .8 1.6 1.7 2 2.8a2.7 2.7 0 0 1-.4 3l-.9 1a286.5 286.5 0 0 0-21 25.2l.3.3c.3.3.7.5 1.2.5.7 0 1.3-.1 2-.4A6 6 0 0 0 43 73l3.5-3.7L50 66l7-6.8.7-.7c.5-.3-2.4 3-1.9 3.2a1.2 1.2 0 0 1 .2 1.6l-.1.1-1 1.3a985.4 985.4 0 0 0-13 13.4l-3.1 3.2c-1 .8-2.2 1.3-3.4 1.5-1.6.3-2.7.3-3.4-.2a4 4 0 0 0-.8-.6c-.3-.1-.5-.4-.7-.7l-1.8 2.2-1.7 2 3.5.5c1 0 2 .2 3 .5 1.4.2 2.7.6 4 1.1.7.4 1.4.8 2 1.4.4.4.6.9.8 1.5V93a18.3 18.3 0 0 1-.2 2.8c0 .9-.2 1.3-.7 1.1l-.5-.1v-.2c0-.6-.3-1.1-.7-1.6l-1.4-1.4a47 47 0 0 0-13-4.3 325.6 325.6 0 0 1-6 7l-.5.8-1 1.1-1 .8a14 14 0 0 1-1.8 1.9 9 9 0 0 1-1.5 1l-.5.3-1.3.5c-.5.2-1 .3-1.6.1l-.9-.3h-.2l-1.8-1.1a26 26 0 0 1-1.6-1.1 26 26 0 0 0-1.7-1.1H2l-.5-.3a1.8 1.8 0 0 1-.6-1.5v-1c0-1.1.3-2.2 1-3 .3-.4.7-.8 1.1-1A97 97 0 0 0 9.8 88a63 63 0 0 1 5.4-3.4c.3-.1.7-.2 1-.1h1.4A252 252 0 0 1 24 78a31.8 31.8 0 0 1-4.1 3.2c-2.3 1.5-3.8 2.1-4.4 1.9a3.2 3.2 0 0 1-1.4-2.3l-.3-2.8c0-1.8.3-3.5.8-5.2a50.2 50.2 0 0 1 8.8-17.6l.3-.5 3-4.2 1.5-2.2V48c.8-.8 1.5-1.7 2.1-2.7.3-.3.4-.6.5-1a3 3 0 0 0 0-2l-.2-.3a.7.7 0 0 1 .4-.7l.3-.3c.3 0 .6 0 .8.2l1.3 1.3 1.6 1.3 1.6 1.6.3.6c.2.6.3 1.2.3 1.9v.6l-.1.7a.3.3 0 0 1-.2.3.3.3 0 0 0-.2.2 13 13 0 0 1-2 3.5L33.4 55l-1.3 1.7-1.5 2a77 77 0 0 0-11.6 19c.5 0 1.7-1 3.6-2.5a478.6 478.6 0 0 0 25.6-26.8l1.6-1.9 1.4-1.6 1.3-1.3.8-.8 1.3-1.2h.2a3 3 0 0 1 2.1.2l1 .5zm-47.2 50l1-1c.3-.5.8-1 1.3-1.5l-8.3 5.3a8 8 0 0 0-.6.7.9.9 0 0 0 .1 1.2l.3.1c.3.2.6.2.9.2.5-.1 1-.4 1.3-.8a64 64 0 0 0 4-4.2z" fill="#fff"/><path d="M54.2 81.7a7.5 7.5 0 0 1-3.7-3 7.7 7.7 0 0 1-.8-5.2 23 23 0 0 1 2.8-7.5 88.4 88.4 0 0 1 15-19c1.8-1.7 3.7-3.2 5.8-4.5 1.3-1 2.8-1.4 4.3-1.5a17.6 17.6 0 0 1 6 2 2.7 2.7 0 0 1 1.4 2.3 36.5 36.5 0 0 1-.1 2.5 1 1 0 0 1-.7.5c-.4 0-.7-.1-.7-.4a.2.2 0 0 1 0-.3 1.2 1.2 0 0 0-.6-1.1l-.5-.2a3 3 0 0 0-2 .5c-.9.5-1.7 1.1-2.5 1.8 1-.4 2-.6 3.2-.5.6 0 1.3 0 2 .4l.7.8c.4.4.7.9.8 1.4.2.8.1 1.6 0 2.4-.5 1.4-1 2.7-1.7 3.8.9-.1 1.7-.4 2.6-.7l2.7-.5c.6-.2 1.2-.1 1.8.1.3.3.2.8-.5 1.7-.4.6-1 1.1-1.8 1.4-.7.3-1.4.5-2.2.6l-2.3.3c-.8 0-1.5.1-2.2.4a54 54 0 0 1-6.4 8.6 46 46 0 0 1-11.4 10.5 21 21 0 0 1-6.4 2.7h-1.6l-1-.3zm14.3-23.3a118 118 0 0 0-9.3 12.8l-1.6 3.5c-.2.6-.4 1.3-.4 2a.8.8 0 0 0 .5.8c1.4 0 2.7-.5 3.8-1.4a71.4 71.4 0 0 0 14.7-15.3 4.8 4.8 0 0 1-3.2-1.7 4.7 4.7 0 0 1-.6-4l.8-2.1a21.7 21.7 0 0 0-3.4 3.6l-1.3 1.8zm8.6-5a2 2 0 0 0-.8 1.6c0 .4.2.8.5 1 .2.5.7.7 1.1.9h.8c1.5-2.6 1.9-4 1.2-4.5a1.6 1.6 0 0 0-1.8.1c-.4.2-.8.5-1 .9z" fill="#fff"/><path d="M123.4 59c5.2 1.8-23.8 23-27 23-.5.2-1 0-1.6-.2a9.2 9.2 0 0 1-1.8-2.2c-.7-1.4-1-3-.7-4.4l.4-1.2c.2-1.1.7-2.2 1.3-3.2a734 734 0 0 1-11.1 9.5c-2.3 1.6-3.8 2.2-4.5 2A3 3 0 0 1 77 80a12 12 0 0 1 0-2.9 51.6 51.6 0 0 1 4.4-12.7 97.3 97.3 0 0 1 11-16.9v-.1l1-1.4 1-1.3.5-1a3 3 0 0 0 0-2c-.4-.3-.3-.7.1-1.2a.3.3 0 0 0 .3 0l.2-.1.8.1 1.3 1.4 1.4 1.3 1.6 1.5.4.5.3 1.8v.2c0 .5-.2.9-.3 1.3v.4a10 10 0 0 1-2.4 3.6l-1.1 1.7-1.4 1.7-1.6 2a77 77 0 0 0-5.3 7.3A597 597 0 0 0 81.9 77c.5-.1 1.7-1 3.5-2.7A247.5 247.5 0 0 0 98.8 61l6.4-6.8a211.9 211.9 0 0 1 8.8-10.1l1.4-1.4.6-.8.7-.6.7-.6.3-.1a2.7 2.7 0 0 1 2.3.3l.4.2.5.1c.8.8 1.5 1.8 2 3a2.5 2.5 0 0 1-.6 2.9l-1 1-1.6 2a455.4 455.4 0 0 0-14.4 16.6c-2 2.4-3.4 4.5-4.5 5.8-8 9.5 22.3-13.9 22.6-13.5z" fill="#fff"/><path d="M137.4 73.6c-.1.5-.6.7-1.4.5-1-.4-1.8-1-2.6-1.5-.4-.4-.8-1-1-1.5-1.2-2-1-4.5.3-7.5 1.5-3 3.4-6 5.5-8.6-2 1.3-4 2.8-6 4.4-1.9 1.5-3.7 3.2-5.3 5a898.4 898.4 0 0 0-8.6 11.4h.2l-.9 1.2-.7 1.2a.1.1 0 0 0-.2.1l-.6 1-.7 1a6.8 6.8 0 0 0-.4 1.6c0 .2.1.5.3.6a.5.5 0 0 1 .1.4s0 .2-.3.4l-.1.2a1 1 0 0 1-.7-.2 22.5 22.5 0 0 1-2.8-2l-.2-.2s-.2 0-.3-.2a.1.1 0 0 1-.1-.1c-.2 0-.4-.2-.5-.5a2.4 2.4 0 0 1 0-2.2l.1-.3.4-1.1.2-.4.3-.3a140.3 140.3 0 0 1 11.1-17.9 594.7 594.7 0 0 1 7-10 7.3 7.3 0 0 0 2-2.7c.3-.2.5-.6.6-1a3 3 0 0 0 0-2l-.1-.5a.7.7 0 0 1 .2-.6.5.5 0 0 1 .4-.2.8.8 0 0 1 .8.2l1.2 1.2 1.5 1.4 1.6 1.5.4.5.3.7c.1.3.2.7.1 1v.2l-.1.6c0 .2 0 .4-.2.5a.3.3 0 0 1 0 .3.3.3 0 0 0-.1.2l-.8 1.6a39 39 0 0 1-1.3 2l3.5-2.4a79.8 79.8 0 0 1 6-4 36.2 36.2 0 0 0 3.6-3l.6-.6.7-.5.4-.4a.7.7 0 0 1 .5-.1h.2c.9 0 1.7.4 2.4 1a4 4 0 0 1 2.1 2.4v.9a.1.1 0 0 1 .2 0v.1l-.3.7a20.7 20.7 0 0 1-3 3.7l-3 3-3.6 3.2a42.4 42.4 0 0 0-10 13.8c-.2.7 0 1.1.5 1.3l.8.5-.2 1z" fill="#fff"/><path d="M213.4 26.3l3.3-3.5c-15.3 1.2-30.8 2-46.1 2.5l.3 3c.1 1.2.4 2.4.7 3.6 12.1-.2 24.8-.6 37.9-1.2l4-4.4zM237 21l-3.4 3.7-4.5 5 6.1-.4c2.6-2.8 5.1-5.8 7.4-8.9l-5.7.6zM139.4 32.3l17.6-.1a37 37 0 0 1-.3-2.1 7 7 0 0 1 0-3.4v-.4l.1-.7-15.7.2A804.8 804.8 0 0 1 12.3 16a4.5 4.5 0 0 0-3.6 1.7 5.6 5.6 0 0 0-.3 6.1c.6 1 2 3.1 35.9 5.5a1363 1363 0 0 0 80.5 2.9h14.6zM317.3 10l-.4-.3-.3-.4-.6.2h-.5c-.2.1-21.5 4.7-56.1 9l-.2.2c-1 2.6-2.4 5-4 7.3l-1.2 1.8c22.2-1.8 44.3-4.7 66.2-8.8h.2a2.4 2.4 0 0 0 1.5-1.7c.6-2-2.6-5.5-4.6-7.3z" fill="#F14ABC"/><path d="M281.4 52.9a657 657 0 0 0-10.8 5.9 102.5 102.5 0 0 0-7 4.9c-.4.5 0 .7 1 .5l3.7-.5c.8 0 1.7-.2 2.6-.5 1-.2 2 0 3 .4s1.2 1 .6 1.6l-2.6 3-.7.8-1.4 1.8-2.5 3.3c-.3.6 0 1 1.1 1.1 1.1.2 2.4-.6 4-2.3 1-1.2 2-2.5 3.3-3.7L279 66l3.6-3.5c.3-.4.7-.7 1.1-.9.8-.3 1.3-.3 1.7 0a1 1 0 0 1 .1 1.6l-1 1.3a2604.5 2604.5 0 0 0-16.2 16.8l-1.4 1a11 11 0 0 1-4 1.2c-.5 0-1 0-1.5-.3-.6-.3-1.1-.8-1.5-1.5l-2.2 2.5a23 23 0 0 0-1.8 2.3 264.3 264.3 0 0 1 6.7.8c1.3.2 2.6.6 3.8 1.2.8.4 1.5 1 2 1.5.5.4.8 1 .9 1.5v5.3l-.4.9c-.1.2-.3.3-.6.3a.1.1 0 0 1-.2-.2v-.3a4.4 4.4 0 0 0-2.3-2.9l-2.2-1.1a52.6 52.6 0 0 0-10.9-3.4 539.6 539.6 0 0 0-5.3 6.2v.2l-1.3 1.6-1.1 1.2-1 .8a13 13 0 0 1-3.6 3l-1.5.7c-.5.2-1 .3-1.6.2a6 6 0 0 1-1-.5c-.7-.4-1.4-.7-2-1.2l-1.6-1-1.6-1-.2-.1v-.2l-.3-.2c-.2-.1-.4-.4-.4-.6a3 3 0 0 0-.3-.7l-.2-1c0-.6 0-1.2.3-1.8l.8-1.2c.3-.4.7-.8 1.1-1a87 87 0 0 0 6.7-4.4 44.7 44.7 0 0 1 5.5-3.5h2.4a415.2 415.2 0 0 1 6.5-7.7l1.3-1.5 1-1.3 1.8-2.3c.7-1 1.9-2.3 3.5-4l-2.6.6c-1.7.7-2.9.4-3.3-1l.3-3.3a9.3 9.3 0 0 1 2.4-4.4 135.3 135.3 0 0 1 12.1-10.3c2.3-1.7 4.7-3.3 7.3-4.6h.2l.3-.3c.1 0 .1 0 0-.1a25.8 25.8 0 0 1-7.6-1c-.5 0-.8-.2-.8-.4 0-.3.2-.6.4-.8l1-1.1h3.2l4.5.2a113.2 113.2 0 0 1 8 .6 5 5 0 0 1 1.7 2.5c.2 1.3 0 2.7-.4 4-.5 1.3-1.2 2.2-2.1 2.4l-1.4.5-2.4.7zm-39.5 37.6l-8.7 5.6c-.2 0-.4.2-.5.5a1.2 1.2 0 0 0 .1 1.3h.2c0 .2 0 .2.2.2s.5.1.8 0a23.8 23.8 0 0 0 5.4-5.1l2.5-2.5z" fill="#fff"/></svg>