<?xml version="1.0" standalone="no"?>
<!DOCTYPE svg PUBLIC "-//W3C//DTD SVG 1.1//EN" "http://www.w3.org/Graphics/SVG/1.1/DTD/svg11.dtd" >
<svg>
<metadata>
Created by FontForge 20090914 at Wed Dec 26 22:48:56 2018
 By www-data
Copyright (c) 2016 by Iulian Maftei All rights reserved.
</metadata>
<defs>
<font id="MoskBold700" horiz-adv-x="568" >
  <font-face 
    font-family="Mosk Bold 700"
    font-weight="700"
    font-stretch="normal"
    units-per-em="1000"
    panose-1="2 0 5 6 0 0 0 2 0 4"
    ascent="800"
    descent="-200"
    x-height="485"
    cap-height="680"
    bbox="-72 -230 1293 943"
    underline-thickness="50"
    underline-position="-75"
    unicode-range="U+0020-U+FB02"
  />
<missing-glyph horiz-adv-x="225" 
 />
    <glyph glyph-name=".notdef" horiz-adv-x="225" 
 />
    <glyph glyph-name="space" unicode=" " horiz-adv-x="225" 
 />
    <glyph glyph-name="exclam" unicode="!" horiz-adv-x="207" 
d="M156 196l-104 48l-17 458h136zM30 73c0 20.667 7.16699 38 21.5 52s31.5 21 51.5 21c20.667 0 38.167 -7 52.5 -21s21.5 -31.333 21.5 -52s-7.16699 -38 -21.5 -52s-31.833 -21 -52.5 -21c-20 0 -37.167 7 -51.5 21s-21.5 31.333 -21.5 52z" />
    <glyph glyph-name="quotedbl" unicode="&#x22;" horiz-adv-x="394" 
d="M31 668c0 18 7.16699 34.832 21.5 50.499s31.5 23.5 51.5 23.5c21.333 0 39.333 -8.33301 54 -25s22 -38 22 -64c0 -38 -12.5 -77.167 -37.5 -117.5s-56.5 -71.166 -94.5 -92.499l-28 61c21.333 18.667 36.833 34 46.5 46s16.5 27.667 20.5 47
c-12 0 -24.333 7.5 -37 22.5s-19 31.167 -19 48.5zM216 667.999c0 18 7.33301 34.832 22 50.499s32 23.5 52 23.5c20.667 0 38.167 -8.33301 52.5 -25s21.5 -38 21.5 -64c0 -38 -12.5 -77.167 -37.5 -117.5s-56.167 -71.166 -93.5 -92.499l-29 61
c22 19.333 37.833 34.833 47.5 46.5s16.5 27.167 20.5 46.5c-12.667 0 -25.167 7.5 -37.5 22.5s-18.5 31.167 -18.5 48.5z" />
    <glyph glyph-name="numbersign" unicode="#" horiz-adv-x="584" 
d="M387 408l25 112l112 -3l-24 -109h44l10 -97h-76l-26 -112h92l10 -96h-124l-26 -118l-111 5l25 113h-120l-27 -118l-110 5l25 113h-45l-11 96h78l25 112h-92l-11 97h126l26 112l111 -3l-26 -109h120zM339 199l26 112h-119l-25 -112h118z" />
    <glyph glyph-name="dollar" unicode="$" horiz-adv-x="527" 
d="M461 645l-43 -103.997c-27.333 13.333 -52.166 23.666 -74.499 30.999s-46.5 11 -72.5 11c-30 0 -54.5 -5.83301 -73.5 -17.5s-28.5 -28.834 -28.5 -51.501c0 -19.333 7.5 -35.5 22.5 -48.5s39.5 -29.5 73.5 -49.5l32 -18l29 -17
c39.333 -22.667 70.666 -42.5 93.999 -59.5s42.833 -37.667 58.5 -62s23.5 -52.833 23.5 -85.5c0 -37.333 -10.667 -70.5 -32 -99.5s-51.666 -51.167 -90.999 -66.5v-136h-89v117c-17.333 -1.33301 -31.333 -2 -42 -2h-15v-115h-88v133
c-42.667 12.667 -75.334 26 -98.001 40l29 105c24.667 -12.667 52.667 -23.834 84 -33.501s60 -14.5 86 -14.5c40 0 70.333 6.33301 91 19s31 31 31 55c0 16.667 -8.16699 31.834 -24.5 45.501s-41.5 29.834 -75.5 48.501l-30 18c-44.667 26.667 -80.167 49.667 -106.5 69
s-49 42.166 -68 68.499s-28.5 55.833 -28.5 88.5c0 36.667 10.333 69.5 31 98.5s50.334 50.5 89.001 64.5v117l88 14v-113l26 1c7.33301 0 17.666 -0.666992 30.999 -2v100l89 14v-134c20.667 -6.66699 44.667 -16.334 72 -29.001z" />
    <glyph glyph-name="percent" unicode="%" horiz-adv-x="932" 
d="M249 0l298 710l131 -4l-298 -710zM191 363c-28.667 0 -55.668 6.83398 -81.001 20.501s-45.833 33.5 -61.5 59.5s-23.5 56 -23.5 90c0 33.333 7.83301 62.833 23.5 88.5s36.167 45.5 61.5 59.5s52.333 21 81 21s55.834 -6.83301 81.501 -20.5
s46.167 -33.334 61.5 -59.001s23 -55.5 23 -89.5c0 -33.333 -7.83301 -63 -23.5 -89s-36.167 -46 -61.5 -60s-52.333 -21 -81 -21zM190.999 608.001c-15.333 0 -28.666 -6.66797 -39.999 -20.001s-17 -31.333 -17 -54c0 -25.333 5.16699 -44.666 15.5 -57.999
s24.166 -20 41.499 -20c15.333 0 28.833 6.83301 40.5 20.5s17.5 32.167 17.5 55.5c0 24 -5.5 42.667 -16.5 56s-24.833 20 -41.5 20zM742.999 0c-28.667 0 -55.668 6.83008 -81.001 20.4971s-45.833 33.334 -61.5 59.001s-23.5 55.5 -23.5 89.5s7.83301 63.833 23.5 89.5
s36.167 45.334 61.5 59.001s52.333 20.5 81 20.5s55.5 -6.66699 80.5 -20s45.167 -32.666 60.5 -57.999s23 -55.333 23 -90c0 -33.333 -7.66699 -63 -23 -89s-35.666 -46 -60.999 -60s-52 -21 -80 -21zM742.998 244.997c-15.333 0 -28.832 -6.66699 -40.499 -20
s-17.5 -31.333 -17.5 -54c0 -25.333 5.33301 -44.833 16 -58.5s24.667 -20.5 42 -20.5c15.333 0 28.666 7 39.999 21s17 32.667 17 56s-5.5 41.833 -16.5 55.5s-24.5 20.5 -40.5 20.5z" />
    <glyph glyph-name="ampersand" unicode="&#x26;" horiz-adv-x="683" 
d="M314 696c31.333 0 63.3301 -4.66797 95.9971 -14.001s62.667 -21.666 90 -36.999l-44 -104c-24 13.333 -47 23.666 -69 30.999s-46 11 -72 11c-24 0 -43 -7 -57 -21s-21 -31.333 -21 -52c0 -19.333 6.5 -38.5 19.5 -57.5s33.833 -41.167 62.5 -66.5l160 -145
c16.667 40.667 26.334 89 29.001 145l117 -47c-4 -66 -19.333 -128.667 -46 -188l79 -69l-78 -97l-76 70c-25.333 -21.333 -55.166 -37.666 -89.499 -48.999s-72.166 -17 -113.499 -17c-50 0.666992 -95.167 9.83398 -135.5 27.501s-72.166 43.667 -95.499 78
s-35 76.166 -35 125.499c0 34.667 8.66699 69 26 103s40.666 63.667 69.999 89c-18.667 27.333 -28 58.333 -28 93s8.83301 66.5 26.5 95.5s42.5 52.167 74.5 69.5s68.667 26 110 26zM300.997 105.999c42 0 78.667 11.333 110 34l-198 181
c-26.667 -30.667 -40.334 -64 -41.001 -100c0 -38 12.333 -66.667 37 -86s55.334 -29 92.001 -29z" />
    <glyph glyph-name="quotesingle" unicode="'" horiz-adv-x="210" 
d="M31 668c0 18 7.16699 34.832 21.5 50.499s31.5 23.5 51.5 23.5c21.333 0 39.333 -8.33301 54 -25s22 -38 22 -64c0 -38 -12.5 -77.167 -37.5 -117.5s-56.5 -71.166 -94.5 -92.499l-28 61c21.333 18.667 36.833 34 46.5 46s16.5 27.667 20.5 47
c-12 0 -24.333 7.5 -37 22.5s-19 31.167 -19 48.5z" />
    <glyph glyph-name="parenleft" unicode="(" horiz-adv-x="308" 
d="M170 322c0 -51.333 10.666 -109.331 31.999 -173.998s46.333 -114.334 75 -149.001l-100 -38c-40.667 53.333 -72 110.5 -94 171.5s-33 123.833 -33 188.5c0 62.667 10.667 123.5 32 182.5s53 118.5 95 178.5l101 -37c-29.333 -40.667 -54.666 -92.334 -75.999 -155.001
s-32 -118.667 -32 -168z" />
    <glyph glyph-name="parenright" unicode=")" horiz-adv-x="308" 
d="M136 321c0 51.333 -10.5 109.501 -31.5 174.501s-45.5 114.167 -73.5 147.5l100 39c40 -54 71.167 -111.667 93.5 -173s33.5 -124 33.5 -188c0 -62 -10.833 -122.333 -32.5 -181s-53.5 -118.334 -95.5 -179.001l-100 37c28.667 40 53.5 91.5 74.5 154.5
s31.5 119.167 31.5 168.5z" />
    <glyph glyph-name="asterisk" unicode="*" horiz-adv-x="388" 
d="M143 767h102l1 -99l102 22l30 -91l-101 -20l69 -98l-78 -61l-74 99l-73 -99l-79 61l69 97l-101 21l30 91l101 -22z" />
    <glyph glyph-name="plus" unicode="+" horiz-adv-x="538" 
d="M335 324h163l10 -99h-173v-221l-122 4v217h-175l-8 99h183v210l122 -3v-207z" />
    <glyph glyph-name="comma" unicode="," horiz-adv-x="211" 
d="M33 72c0 18.667 7.16699 35.668 21.5 51.001s31.166 23 50.499 23c20.667 0 38.5 -8.5 53.5 -25.5s22.5 -38.5 22.5 -64.5c0 -37.333 -12.667 -76.333 -38 -117s-56.666 -71.667 -93.999 -93l-29 62c21.333 18 37 33 47 45s17 27.667 21 47
c-12 0 -24.167 7.66699 -36.5 23s-18.5 31.666 -18.5 48.999z" />
    <glyph glyph-name="hyphen" unicode="-" horiz-adv-x="332" 
d="M30 325h262l10 -102h-261z" />
    <glyph glyph-name="period" unicode="." horiz-adv-x="206" 
d="M176 73c0 -20.667 -6.83301 -38 -20.5 -52s-30.834 -21 -51.501 -21s-38.167 7 -52.5 21s-21.5 31.333 -21.5 52s7.16699 38 21.5 52s31.833 21 52.5 21s37.834 -7 51.501 -21s20.5 -31.333 20.5 -52z" />
    <glyph glyph-name="slash" unicode="/" horiz-adv-x="454" 
d="M10 0l298 710l136 -4l-299 -710z" />
    <glyph glyph-name="zero" unicode="0" horiz-adv-x="606" 
d="M303 -13c-52.667 0 -100.166 12.834 -142.499 38.501s-75.5 61.167 -99.5 106.5s-36 96.333 -36 153c0 56 12 106.333 36 151s57.167 79.667 99.5 105s90.166 38 143.499 38c52.667 0 100.167 -12.5 142.5 -37.5s75.333 -59.833 99 -104.5s35.5 -94.667 35.5 -150
c0 -57.333 -12 -108.833 -36 -154.5s-57.167 -81.334 -99.5 -107.001s-89.833 -38.5 -142.5 -38.5zM303.001 469.001c-30 0 -57.167 -7.83203 -81.5 -23.499s-43.333 -37.167 -57 -64.5s-20.5 -58.333 -20.5 -93c0 -36 6.83301 -68.5 20.5 -97.5s32.667 -51.667 57 -68
s51.833 -24.5 82.5 -24.5s58.167 8 82.5 24s43.333 38 57 66s20.5 59.667 20.5 95s-7 67.166 -21 95.499s-33.167 50.5 -57.5 66.5s-51.833 24 -82.5 24z" />
    <glyph glyph-name="one" unicode="1" horiz-adv-x="368" 
d="M303 566v-566h-130v422l-114 -44l-49 97l206 91h87z" />
    <glyph glyph-name="two" unicode="2" horiz-adv-x="487" 
d="M38 527c58 34.667 122.331 51.999 192.998 51.999c42 0 78.333 -7.66699 109 -23s54.334 -36.333 71.001 -63s25 -56.667 25 -90c0 -44 -10.333 -81.667 -31 -113s-56.667 -68.666 -108 -111.999l-95 -79h253l12 -99h-442v87l202 172c34.667 29.333 60 55 76 77
s24 42.667 24 62c0 24.667 -9.83301 43.5 -29.5 56.5s-46.167 19.5 -79.5 19.5c-45.333 0 -97.666 -17 -156.999 -51l-23 104v0z" />
    <glyph glyph-name="three" unicode="3" horiz-adv-x="484" 
d="M19 509c34.667 22.667 69.3359 40 104.003 52s71 18 109 18c44.667 0 82.834 -7.83301 114.501 -23.5s55.5 -36.667 71.5 -63s24 -55.5 24 -87.5c0 -28.667 -8.33301 -55.5 -25 -80.5s-35.334 -42.167 -56.001 -51.5c13.333 -3.33301 27.166 -12 41.499 -26
s26.5 -32 36.5 -54s15 -46 15 -72c0 -36.667 -9.66699 -70 -29 -100s-47 -53.667 -83 -71s-77.333 -26 -124 -26c-34 0 -70.333 6 -109 18s-75 27 -109 45l66 87c26.667 -16 51.667 -27.5 75 -34.5s49.666 -10.5 78.999 -10.5c31.333 0 58.333 8.33301 81 25
s34 38.667 34 66c0 31.333 -12.333 55.833 -37 73.5s-62.334 26.5 -113.001 26.5h-42l-18 101h66c40 0 72 7.5 96 22.5s36 34.833 36 59.5c0 20 -8.66699 36.833 -26 50.5s-40 20.5 -68 20.5c-49.333 0 -99 -17.333 -149 -52l-61 87v0z" />
    <glyph glyph-name="four" unicode="4" horiz-adv-x="560" 
d="M435 166h105l-13 -107h-92v-128h-131v128h-277l-17 107l328 405h97v-405zM304 166v197l-154 -197h154z" />
    <glyph glyph-name="five" unicode="5" horiz-adv-x="512" 
d="M269 253c-21.333 0 -39.6689 -4.83301 -55.002 -14.5s-25.666 -20.5 -30.999 -32.5h-115l18 360h366l-14 -105h-242l-6 -119c19.333 10 44 15 74 15c48 0 88.667 -9.5 122 -28.5s58.333 -44.333 75 -76s25.334 -66.834 26.001 -105.501c0 -43.333 -10 -82 -30 -116
s-48.5 -60.333 -85.5 -79s-80.5 -28 -130.5 -28c-34.667 0 -71.167 5.83301 -109.5 17.5s-73.833 26.5 -106.5 44.5l64 91c28 -15.333 53.667 -26.5 77 -33.5s49.333 -10.5 78 -10.5c36 0 65.833 10.333 89.5 31s35.5 48.334 35.5 83.001c0 32 -9.33301 57.667 -28 77
s-42.667 29 -72 29z" />
    <glyph glyph-name="six" unicode="6" horiz-adv-x="525" 
d="M500 195c0 -40.667 -9.33105 -76.668 -27.998 -108.001s-44.334 -55.833 -77.001 -73.5s-69.667 -26.5 -111 -26.5c-50.667 0 -95.5 10.167 -134.5 30.5s-69.5 50.333 -91.5 90s-33 87.834 -33 144.501c0 73.333 20.333 137.5 61 192.5s91 98.5 151 130.5
s119.333 51.667 178 59l18 -107c-124 -34 -208 -83.333 -252 -148c32 15.333 65.333 23 100 23c41.333 0 78.666 -9.33301 111.999 -28s59.5 -43.667 78.5 -75s28.5 -66 28.5 -104zM384.002 189.999c0 31.333 -10 57.499 -30 78.499s-45.333 31.5 -76 31.5
c-51.333 0 -95.333 -13.667 -132 -41c0.666992 -56 13 -97.5 37 -124.5s56.333 -40.5 97 -40.5c29.333 0 54 9.33301 74 28s30 41.334 30 68.001z" />
    <glyph glyph-name="seven" unicode="7" horiz-adv-x="474" 
d="M454 514l-196 -583l-121 35l174 495h-285l-16 105h406z" />
    <glyph glyph-name="eight" unicode="8" horiz-adv-x="514" 
d="M51 468c0 32 8.5 61.335 25.5 88.002s41.167 47.834 72.5 63.501s67.666 23.5 108.999 23.5s77.5 -7.83301 108.5 -23.5s55 -36.834 72 -63.501s25.5 -56 25.5 -88c0 -27.333 -8 -52.5 -24 -75.5s-37 -40.5 -63 -52.5c29.333 -10 55.333 -30.167 78 -60.5
s34 -61.833 34 -94.5c0 -36 -9.33301 -69.167 -28 -99.5s-45.5 -54.333 -80.5 -72s-75.833 -26.5 -122.5 -26.5c-47.333 0 -88.666 8.83301 -123.999 26.5s-62.333 41.5 -81 71.5s-28 63.333 -28 100c0 32.667 11.333 64.167 34 94.5s48.667 50.5 78 60.5
c-26 11.333 -46.833 28.666 -62.5 51.999s-23.5 48.666 -23.5 75.999zM347 468.002c0 18.667 -8.83301 34.834 -26.5 48.501s-39.167 20.5 -64.5 20.5c-24.667 0 -45.667 -7 -63 -21s-26 -30.667 -26 -50c0 -22 7.83301 -39.833 23.5 -53.5s38.167 -22.834 67.5 -27.501
c29.333 4.66699 51.5 14 66.5 28s22.5 32.333 22.5 55zM373 183.002c0 25.333 -10.167 47.666 -30.5 66.999s-48.5 32 -84.5 38c-37.333 -6 -66 -18.667 -86 -38s-30 -41.666 -30 -66.999c0 -27.333 11.333 -49.333 34 -66s49.667 -25 81 -25c30.667 0 57.667 8.33301 81 25
s35 38.667 35 66z" />
    <glyph glyph-name="nine" unicode="9" horiz-adv-x="525" 
d="M500 314c0 -73.333 -20.335 -137.499 -61.002 -192.499s-91 -98.5 -151 -130.5s-119.333 -51.667 -178 -59l-18 107c124 34 208 83.333 252 148c-32 -15.333 -65.333 -23 -100 -23c-41.333 0 -78.666 9.33301 -111.999 28s-59.5 43.667 -78.5 75s-28.5 66 -28.5 104
c0 40.667 9.33301 76.667 28 108s44.334 55.833 77.001 73.5s69.667 26.5 111 26.5c50.667 0 95.5 -10.167 134.5 -30.5s69.5 -50.333 91.5 -90s33 -87.834 33 -144.501zM246.998 266.001c51.333 0 95.333 13.668 132 41.001c-0.666992 56 -13 97.5 -37 124.5
s-56.333 40.5 -97 40.5c-29.333 0 -54 -9.33301 -74 -28s-30 -41.334 -30 -68.001c0 -31.333 10 -57.5 30 -78.5s45.333 -31.5 76 -31.5z" />
    <glyph glyph-name="colon" unicode=":" horiz-adv-x="206" 
d="M176 401c0 -20.667 -6.83203 -38.167 -20.499 -52.5s-30.834 -21.5 -51.501 -21.5s-38.167 7.16699 -52.5 21.5s-21.5 31.833 -21.5 52.5c0 20 7.16699 37.167 21.5 51.5s31.833 21.5 52.5 21.5c20 0 37 -7.16699 51 -21.5s21 -31.5 21 -51.5zM176.001 73
c0 -20.667 -6.83301 -38 -20.5 -52s-30.834 -21 -51.501 -21s-38.167 7 -52.5 21s-21.5 31.333 -21.5 52s7.16699 38 21.5 52s31.833 21 52.5 21s37.834 -7 51.501 -21s20.5 -31.333 20.5 -52z" />
    <glyph glyph-name="semicolon" unicode=";" horiz-adv-x="212" 
d="M34 401c0 20 7.33301 37.167 22 51.5s32.334 21.5 53.001 21.5s38 -7.16699 52 -21.5s21 -31.5 21 -51.5c0 -20.667 -7 -38.167 -21 -52.5s-31.333 -21.5 -52 -21.5s-38.334 7.16699 -53.001 21.5s-22 31.833 -22 52.5zM33 72c0 18.667 7.16699 35.668 21.5 51.001
s31.166 23 50.499 23c20.667 0 38.5 -8.5 53.5 -25.5s22.5 -38.5 22.5 -64.5c0 -37.333 -12.667 -76.333 -38 -117s-56.666 -71.667 -93.999 -93l-29 62c21.333 18 37 33 47 45s17 27.667 21 47c-12 0 -24.167 7.66699 -36.5 23s-18.5 31.666 -18.5 48.999z" />
    <glyph glyph-name="less" unicode="&#x3c;" horiz-adv-x="348" 
d="M160 245l168 -118l-23 -108l-275 197v58l275 196l23 -107z" />
    <glyph glyph-name="equal" unicode="=" horiz-adv-x="516" 
d="M30 408h447l9 -97h-445zM30 199h447l9 -96h-445z" />
    <glyph glyph-name="greater" unicode="&#x3e;" horiz-adv-x="348" 
d="M43 470l275 -196v-58l-275 -197l-23 108l168 118l-168 118z" />
    <glyph glyph-name="question" unicode="?" horiz-adv-x="435" 
d="M10 645c30 19.333 60.8311 33.501 92.498 42.501s65.5 13.5 101.5 13.5c64.667 0 114.334 -16.167 149.001 -48.5s52 -75.833 52 -130.5c0 -35.333 -15.667 -72.333 -47 -111s-70.666 -70.334 -117.999 -95.001l-17 -137l-92 39l-8 165c48.667 16 88 36.167 118 60.5
s45 49.833 45 76.5c0 22 -8 39.667 -24 53s-36.333 20 -61 20c-22.667 0 -49.5 -5.33301 -80.5 -16s-62.167 -26.667 -93.5 -48zM95.998 73.001c0 20.667 7.16699 38 21.5 52s31.833 21 52.5 21s38 -7 52 -21s21 -31.333 21 -52s-7 -38 -21 -52s-31.333 -21 -52 -21
s-38.167 7 -52.5 21s-21.5 31.333 -21.5 52z" />
    <glyph glyph-name="at" unicode="@" horiz-adv-x="765" 
d="M521 434l35.9971 -44.9961l-23 -195c0 -9.33301 2.33301 -17 7 -23s9.66699 -9 15 -9c12.667 0 24.834 5.66699 36.501 17s21.167 27.666 28.5 48.999s11 46 11 74c0 38 -9.16699 72 -27.5 102s-43.666 53.333 -75.999 70s-68.833 25 -109.5 25
c-47.333 0 -92.5 -11.333 -135.5 -34s-77.667 -54.834 -104 -96.501s-39.5 -89.5 -39.5 -143.5c0 -43.333 10.333 -81.5 31 -114.5s48.334 -58.333 83.001 -76s72.334 -26.5 113.001 -26.5c64.667 0 120.334 12 167.001 36l32 -99
c-32.667 -16.667 -65.667 -27.834 -99 -33.501s-70 -8.5 -110 -8.5c-56 0 -109.5 13.5 -160.5 40.5s-92.333 65 -124 114s-47.5 104.833 -47.5 167.5c0 68 16.333 131 49 189s79 104 139 138s129 51 207 51c60 0 114.5 -12.833 163.5 -38.5s87.333 -61 115 -106
s41.5 -95.5 41.5 -151.5c0 -53.333 -8.16699 -98.5 -24.5 -135.5s-38.833 -65 -67.5 -84s-61.334 -28.5 -98.001 -28.5c-30.667 0 -57 8.33301 -79 25c-12.667 -6.66699 -26.334 -12.334 -41.001 -17.001s-29 -7 -43 -7c-58.667 0 -103 14.667 -133 44s-45 69 -45 119
c0 41.333 10.833 78 32.5 110s50.167 56.833 85.5 74.5s73.333 26.5 114 26.5h80zM384.997 162.004c11.333 0 20.833 4.50098 28.5 13.501s12.167 19.833 13.5 32.5l17 129c-34 0 -62.667 -10.333 -86 -31s-35 -48.334 -35 -83.001c0 -16.667 5.16699 -31 15.5 -43
s25.833 -18 46.5 -18z" />
    <glyph glyph-name="A" unicode="A" horiz-adv-x="659" 
d="M10 0l265 680h110l264 -672l-130 -18l-61 170h-258l-60 -160h-130zM238 265h180l-91 237z" />
    <glyph glyph-name="B" unicode="B" horiz-adv-x="629" 
d="M604 200c0 -62 -21.668 -110.833 -65.001 -146.5s-101.666 -53.5 -174.999 -53.5h-279v680h264c70 0 124.667 -15.333 164 -46s59 -78.667 59 -144c0 -42.667 -24.333 -83 -73 -121c70 -36.667 105 -93 105 -169zM434.999 488c0 30.667 -8.83203 52.333 -26.499 65
s-43.834 19 -78.501 19h-116v-169h96c38 0 68.333 7.16699 91 21.5s34 35.5 34 63.5zM469 198.999c0 31.333 -9.5 55.667 -28.5 73s-44.833 26 -77.5 26h-149v-191h140c35.333 0 63.333 8 84 24s31 38.667 31 68z" />
    <glyph glyph-name="C" unicode="C" horiz-adv-x="564" 
d="M363 694c24 0 53.334 -3.66699 88.001 -11s65.334 -18.333 92.001 -33l-40 -93l-25 7c-26 8 -46.667 13.5 -62 16.5s-34.333 4.5 -57 4.5c-36 0 -68.333 -10 -97 -30s-51.167 -48.667 -67.5 -86s-24.5 -81 -24.5 -131c0 -44.667 7.16699 -85.5 21.5 -122.5
s35.166 -66.333 62.499 -88s59.666 -32.5 96.999 -32.5c49.333 0 99 10.333 149 31l49 -96c-25.333 -13.333 -56.166 -24 -92.499 -32s-69.166 -12 -98.499 -12c-68.667 0 -127.334 15.333 -176.001 46s-85.334 72.5 -110.001 125.5s-37 112.833 -37 179.5
c0 69.333 13.5 131 40.5 185s65.333 96.167 115 126.5s107.167 45.5 172.5 45.5z" />
    <glyph glyph-name="D" unicode="D" horiz-adv-x="691" 
d="M656 344c0 -107.333 -27.167 -191.169 -81.5 -251.502s-131.5 -91.166 -231.5 -92.499h-258v680h258c68.667 0 126.5 -14.167 173.5 -42.5s82 -67.666 105 -117.999s34.5 -108.833 34.5 -175.5zM522 343.997c0 72.667 -14.332 128.5 -42.999 167.5
s-72.334 58.5 -131.001 58.5h-134v-461h127c57.333 0 101.833 18.833 133.5 56.5s47.5 97.167 47.5 178.5z" />
    <glyph glyph-name="E" unicode="E" horiz-adv-x="581" 
d="M540 101l21 -101h-476v680h455l20 -102h-346v-183h222l21 -103h-243v-191h326z" />
    <glyph glyph-name="F" unicode="F" horiz-adv-x="510" 
d="M214 389h213l19 -101h-232v-288h-129v680h385l20 -102h-276v-189z" />
    <glyph glyph-name="G" unicode="G" horiz-adv-x="630" 
d="M469 272l-143 0.000976562l11 100h248v-336c-28 -14.667 -60.333 -26.667 -97 -36s-75 -14 -115 -14c-68.667 0 -128.5 15.5 -179.5 46.5s-90.167 73.167 -117.5 126.5s-41 112.666 -41 177.999c0 68 15.167 129.167 45.5 183.5s72.5 96.833 126.5 127.5
s114.667 46 182 46c24.667 0 55 -3.66699 91 -11s67.667 -18.333 95 -33l-41 -93c-18.667 6 -27.667 8.66699 -27 8c-25.333 7.33301 -45.5 12.5 -60.5 15.5s-33.5 4.5 -55.5 4.5c-41.333 0 -78.666 -9.33301 -111.999 -28s-59.833 -46.5 -79.5 -83.5
s-29.5 -82.167 -29.5 -135.5c0 -48.667 8.33301 -91.5 25 -128.5s40.167 -65.333 70.5 -85s65.166 -29.5 104.499 -29.5c30.667 0 63.667 3.66699 99 11v166z" />
    <glyph glyph-name="H" unicode="H" horiz-adv-x="696" 
d="M611 680v-680h-129v288h-268v-288h-129v680l129 5v-293h268v288h129z" />
    <glyph glyph-name="I" unicode="I" horiz-adv-x="299" 
d="M214 680v-680h-129v680h129z" />
    <glyph glyph-name="J" unicode="J" horiz-adv-x="294" 
d="M10 -6c24.667 8.66699 42.168 16.499 52.501 23.499s17.166 15.333 20.499 25s5 24.5 5 44.5v593h131v-612c0 -31.333 -4.83301 -57 -14.5 -77s-25.667 -37.167 -48 -51.5s-53.833 -28.166 -94.5 -41.499l-52 96v0z" />
    <glyph glyph-name="K" unicode="K" horiz-adv-x="658" 
d="M215 213v-213h-130v680h130v-285l295 300l96 -74l-234 -244l276 -377h-161l-205 283z" />
    <glyph glyph-name="L" unicode="L" horiz-adv-x="544" 
d="M214 101h300l20 -101h-449v680h129v-579z" />
    <glyph glyph-name="M" unicode="M" horiz-adv-x="770" 
d="M554 392l-127 -179l-50 -7l-163 209v-415h-129v680h82l230 -314l209 314h79v-680h-131v392z" />
    <glyph glyph-name="N" unicode="N" horiz-adv-x="744" 
d="M214 455v-455h-129v680h129l315 -454v454h130v-680h-130z" />
    <glyph glyph-name="O" unicode="O" horiz-adv-x="737" 
d="M35 337c0 68.667 13.8301 129.999 41.4971 183.999s66.834 96.333 117.501 127s108.667 46.667 174 48c68.667 0 128.334 -15.5 179.001 -46.5s89.167 -73.167 115.5 -126.5s39.5 -113 39.5 -179c0 -69.333 -14 -130.833 -42 -184.5s-67.167 -95.667 -117.5 -126
s-108.5 -46.166 -174.5 -47.499c-68.667 0 -128.167 15.5 -178.5 46.5s-88.666 73 -114.999 126s-39.5 112.5 -39.5 178.5zM369.997 585.999c-36 0 -69.167 -10.1689 -99.5 -30.502s-54.666 -49.333 -72.999 -87s-27.5 -81.167 -27.5 -130.5c0 -47.333 8 -89.5 24 -126.5
s38.833 -65.667 68.5 -86s64.5 -30.5 104.5 -30.5c37.333 0 71.166 9.16699 101.499 27.5s54.333 46.333 72 84s26.5 83.5 26.5 137.5c0 46.667 -8 88.334 -24 125.001s-39 65.334 -69 86.001s-64.667 31 -104 31z" />
    <glyph glyph-name="P" unicode="P" horiz-adv-x="592" 
d="M214 237v-237h-129v680h213c80 0 144.833 -17.833 194.5 -53.5s74.5 -90.5 74.5 -164.5c0 -49.333 -12.833 -91 -38.5 -125s-59.5 -59.167 -101.5 -75.5s-88 -24.5 -138 -24.5h-75zM430 454c0 42 -11.5 72.167 -34.5 90.5s-56.833 27.5 -101.5 27.5h-80v-228h82
c40 0 71.667 9.16699 95 27.5s36.333 45.833 39 82.5z" />
    <glyph glyph-name="Q" unicode="Q" horiz-adv-x="737" 
d="M617 96l66.9971 -64.999l-76 -67l-71 66c-50.667 -28.667 -107 -43.334 -169 -44.001c-68.667 0 -128.167 15.5 -178.5 46.5s-88.666 73 -114.999 126s-39.5 112.5 -39.5 178.5c0 68.667 13.833 130 41.5 184s66.834 96.333 117.501 127s108.667 46.667 174 48
c68.667 0 128.334 -15.5 179.001 -46.5s89.167 -73.167 115.5 -126.5s39.5 -113 39.5 -179c0 -50 -7.33301 -96 -22 -138s-35.667 -78.667 -63 -110zM448.997 112.001l-82.001 75.998l88 67l73 -71c26 42 39 95.333 39 160c0 46.667 -8 88.334 -24 125.001
s-39 65.334 -69 86.001s-64.667 31 -104 31c-36 0 -69.167 -10.167 -99.5 -30.5s-54.666 -49.333 -72.999 -87s-27.5 -81.167 -27.5 -130.5c0 -47.333 8 -89.5 24 -126.5s38.833 -65.667 68.5 -86s64.5 -30.5 104.5 -30.5c28.667 0 56 5.66699 82 17z" />
    <glyph glyph-name="R" unicode="R" horiz-adv-x="628" 
d="M85 0v680.001h213c78.667 0 143.167 -17.833 193.5 -53.5s75.5 -87.5 75.5 -155.5c0 -40.667 -10.5 -76.334 -31.5 -107.001s-49.167 -54.667 -84.5 -72l167 -292h-138l-144 258h-122v-258h-129zM430 465.001c0 71.333 -45.333 107 -136 107h-80v-208h82
c40.667 0 73.167 8.16699 97.5 24.5s36.5 41.833 36.5 76.5z" />
    <glyph glyph-name="S" unicode="S" horiz-adv-x="527" 
d="M248 -13c-28 0 -62.833 6.16699 -104.5 18.5s-73.834 25.5 -96.501 39.5l29 105c24.667 -12.667 52.667 -23.834 84 -33.501s60 -14.5 86 -14.5c40 0 70.333 6.33301 91 19s31 31 31 55c0 16.667 -8.16699 31.834 -24.5 45.501s-41.5 29.834 -75.5 48.501l-30 18
c-44.667 26.667 -80.167 49.667 -106.5 69s-49 42.166 -68 68.499s-28.5 55.833 -28.5 88.5c0 34.667 9.33301 65.834 28 93.501s45.5 49.334 80.5 65.001s76.833 23.5 125.5 23.5c57.333 0 121.333 -17 192 -51l-43 -104c-27.333 13.333 -52.166 23.666 -74.499 30.999
s-46.5 11 -72.5 11c-30 0 -54.5 -5.83301 -73.5 -17.5s-28.5 -28.834 -28.5 -51.501c0 -19.333 7.5 -35.5 22.5 -48.5s39.5 -29.5 73.5 -49.5l32 -18l29 -17c39.333 -22.667 70.666 -42.5 93.999 -59.5s42.833 -37.667 58.5 -62s23.5 -52.833 23.5 -85.5
c0 -36.667 -9.83301 -69 -29.5 -97s-48.667 -50 -87 -66s-84.166 -24 -137.499 -24z" />
    <glyph glyph-name="T" unicode="T" horiz-adv-x="591" 
d="M10 680h550l21 -102h-233v-578h-131v578h-207v102z" />
    <glyph glyph-name="U" unicode="U" horiz-adv-x="710" 
d="M75 680h131v-423c0 -54 13.5 -94.5 40.5 -121.5s63.167 -40.5 108.5 -40.5s81.5 13.833 108.5 41.5s40.5 67.834 40.5 120.501v423h131v-433c0 -49.333 -11.667 -93.5 -35 -132.5s-56.333 -69.667 -99 -92s-92 -33.5 -148 -33.5c-55.333 0 -104 11.167 -146 33.5
s-74.333 53.166 -97 92.499s-34 83.333 -34 132z" />
    <glyph glyph-name="V" unicode="V" horiz-adv-x="659" 
d="M10 672l130 18l192 -512l187 502h130l-265 -680h-110z" />
    <glyph glyph-name="W" unicode="W" horiz-adv-x="925" 
d="M600 0l-138 496l-138 -496h-110l-204 672l130 18l132 -512l127 502h130l129 -502l127 502h130l-205 -680h-110z" />
    <glyph glyph-name="X" unicode="X" horiz-adv-x="637" 
d="M314 256l-171 -256h-133l238 344l-226 312l113 44l190 -272l167 252h135l-237 -341l224 -339h-136z" />
    <glyph glyph-name="Y" unicode="Y" horiz-adv-x="608" 
d="M362 260v-260h-130v265l-222 392l128 37l158 -298l165 284h137z" />
    <glyph glyph-name="Z" unicode="Z" horiz-adv-x="577" 
d="M155 101h392l15 -101h-532l-15 101l388 477h-344l-15 102h495l15 -102z" />
    <glyph glyph-name="bracketleft" unicode="[" horiz-adv-x="362" 
d="M352 -88h-252v784h252l-20 -102h-103v-581h103z" />
    <glyph glyph-name="backslash" unicode="\" horiz-adv-x="454" 
d="M145 710l299 -710l-136 -4l-298 710z" />
    <glyph glyph-name="bracketright" unicode="]" horiz-adv-x="362" 
d="M10 696h252v-784h-252l18 101h103v581h-103z" />
    <glyph glyph-name="asciicircum" unicode="^" horiz-adv-x="454" 
d="M310 143l-83 115l-82 -115h-135l178 247h79l177 -247h-134z" />
    <glyph glyph-name="underscore" unicode="_" horiz-adv-x="442" 
d="M30 101h372l10 -101h-371z" />
    <glyph glyph-name="grave" unicode="`" horiz-adv-x="205" 
d="M195 614l-90 -25l-95 164h134z" />
    <glyph glyph-name="a" unicode="a" horiz-adv-x="503" 
d="M243 378c-22 0 -46.3301 -3.16895 -72.9971 -9.50195s-49.334 -13.833 -68.001 -22.5l-35 108c17.333 11.333 45 21.5 83 30.5s68.333 13.5 91 13.5c38.667 0 74 -7.66699 106 -23s57.5 -36.666 76.5 -63.999s28.5 -58 28.5 -92v-319h-85l-22 52
c-40.667 -42.667 -83.334 -64 -128.001 -64c-58 0 -101.667 14.167 -131 42.5s-44 66.5 -44 114.5c0 49.333 16.667 87.5 50 114.5s78 40.5 134 40.5h95c-0.666992 24.667 -7.83398 43.834 -21.501 57.501s-32.5 20.5 -56.5 20.5zM224.003 212.998
c-21.333 0 -38.501 -6.66602 -51.501 -19.999s-19.5 -29.333 -19.5 -48c0 -14.667 5.83301 -27.334 17.5 -38.001s26.5 -16 44.5 -16c38.667 0 74.334 16 107.001 48v74h-98z" />
    <glyph glyph-name="b" unicode="b" horiz-adv-x="554" 
d="M529 244c0 -50.667 -9.83301 -95.333 -29.5 -134s-48.167 -68.667 -85.5 -90s-81.666 -32 -132.999 -32c-20 0 -41 4.33301 -63 13s-42.333 19.667 -61 33l-26 -34h-66v695l129 11v-230c29.333 14.667 59.666 22 90.999 22c75.333 0 134.833 -22.833 178.5 -68.5
s65.5 -107.5 65.5 -185.5zM395 244.001c0 42.667 -10.167 77.167 -30.5 103.5s-48.5 39.5 -84.5 39.5c-28 0 -56.667 -9.66699 -86 -29v-231c27.333 -18.667 56 -28 86 -28c35.333 0 63.333 13.5 84 40.5s31 61.833 31 104.5z" />
    <glyph glyph-name="c" unicode="c" horiz-adv-x="472" 
d="M283 498c22.667 0 50.667 -4.66504 84 -13.998s61.333 -21.666 84 -36.999l-37 -93c-25.333 11.333 -48 19.666 -68 24.999s-40.667 8 -62 8c-36 0 -65.833 -13.667 -89.5 -41s-35.5 -62 -35.5 -104s11.667 -76.333 35 -103s53.333 -40 90 -40c21.333 0 42 2.66699 62 8
s42.667 13.666 68 24.999l37 -94c-20.667 -16 -47.667 -28.333 -81 -37s-62.333 -13 -87 -13c-52 0 -97.5 10.333 -136.5 31s-69 50.167 -90 88.5s-31.5 83.166 -31.5 134.499s10.5 96.333 31.5 135s51 68.5 90 89.5s84.5 31.5 136.5 31.5z" />
    <glyph glyph-name="d" unicode="d" horiz-adv-x="572" 
d="M507 0l-67.998 -0.000976562l-30 44c-42.667 -37.333 -89.334 -56 -140.001 -56c-75.333 0 -134.833 22.833 -178.5 68.5s-65.5 107.5 -65.5 185.5c0 50.667 9.83301 95.334 29.5 134.001s48.167 68.667 85.5 90s81.666 32 132.999 32c16 0 33 -2.83301 51 -8.5
s35.333 -13.5 52 -23.5v229l131 11v-706zM274.002 98.999c17.333 0 34.167 3.33301 50.5 10s33.5 16.667 51.5 30v207c-17.333 14.667 -34 25.167 -50 31.5s-33.333 9.5 -52 9.5c-35.333 0 -63.333 -13.5 -84 -40.5s-31 -61.833 -31 -104.5s10.167 -77.167 30.5 -103.5
s48.5 -39.5 84.5 -39.5z" />
    <glyph glyph-name="e" unicode="e" horiz-adv-x="515" 
d="M269 498c48.667 0 89.667 -11.335 123 -34.002s58 -53.167 74 -91.5s24 -81.166 24 -128.499v-40h-327c6.66699 -34 21.167 -60 43.5 -78s56.5 -27 102.5 -27c26.667 0 50.667 3.66699 72 11s44.333 18 69 32l38 -94c-24.667 -19.333 -51.334 -34.166 -80.001 -44.499
s-62.667 -15.5 -102 -15.5c-92 0 -161.833 22.5 -209.5 67.5s-71.5 107.167 -71.5 186.5c0 51.333 9.83301 96.333 29.5 135s47.834 68.5 84.501 89.5s80 31.5 130 31.5zM266 386.998c-26.667 0 -49 -8.16797 -67 -24.501s-29.667 -40.166 -35 -71.499h203
c-6.66699 32 -18.5 56 -35.5 72s-38.833 24 -65.5 24z" />
    <glyph glyph-name="f" unicode="f" horiz-adv-x="373" 
d="M87 384l-74.998 0.000976562v100h75v37c0 56.667 16.667 101 50 133s79.666 48 138.999 48c15.333 0 32.666 -3 51.999 -9s34.333 -13.333 45 -22l-37 -94c-22 8.66699 -40 13 -54 13c-22 0 -38.333 -7.83301 -49 -23.5s-16 -36.834 -16 -63.501v-19h92l41 -100h-133
v-614h-130v614z" />
    <glyph glyph-name="g" unicode="g" 
d="M507 -23c0 -66.667 -23.332 -117.832 -69.999 -153.499s-109.334 -53.5 -188.001 -53.5c-24.667 0 -58 5.16699 -100 15.5s-74.667 23.5 -98 39.5l39 92c30 -14.667 57.333 -25.334 82 -32.001s49.334 -10.334 74.001 -11.001c39.333 0.666992 70.833 10.334 94.5 29.001
s35.5 43.667 35.5 75v41c-33.333 -20.667 -69 -31 -107 -31c-75.333 0 -134.833 22.833 -178.5 68.5s-65.5 107.5 -65.5 185.5c0 50.667 9.83301 95.334 29.5 134.001s48.167 68.667 85.5 90s81.666 32 132.999 32c22 0 45.5 -5.33301 70.5 -16s47.167 -24.334 66.5 -41.001
l29 44h68v-508zM376.001 139.002l0.000976562 207c-17.333 14.667 -34 25.167 -50 31.5s-33.333 9.5 -52 9.5c-35.333 0 -63.333 -13.5 -84 -40.5s-31 -61.833 -31 -104.5s10.167 -77.167 30.5 -103.5s48.5 -39.5 84.5 -39.5c17.333 0 34.166 3.33301 50.499 10
s33.5 16.667 51.5 30z" />
    <glyph glyph-name="h" unicode="h" horiz-adv-x="575" 
d="M524 304l0.00195312 -304.001h-130v298c0 30 -6.16699 53.333 -18.5 70s-29.5 25 -51.5 25c-22.667 0 -44 -5.16699 -64 -15.5s-42 -24.166 -66 -41.499v-336h-129v695l129 11v-258c27.333 16.667 55.666 29.667 84.999 39s55.666 14 78.999 14
c61.333 0 104.333 -17.333 129 -52s37 -83 37 -145z" />
    <glyph glyph-name="i" unicode="i" horiz-adv-x="240" 
d="M193 627c0 -20.667 -7.16699 -38 -21.5 -52s-31.833 -21 -52.5 -21c-20 0 -37 7 -51 21s-21 31.333 -21 52s7 38 21 52s31 21 51 21c20.667 0 38.167 -7 52.5 -21s21.5 -31.333 21.5 -52zM185 485v-485h-130v485h130z" />
    <glyph glyph-name="j" unicode="j" horiz-adv-x="261" 
d="M63 627c0 20.667 7 38 21 52s31.333 21 52 21s38.167 -7 52.5 -21s21.5 -31.333 21.5 -52s-7.16699 -38 -21.5 -52s-31.833 -21 -52.5 -21s-38 7 -52 21s-21 31.333 -21 52zM202 485v-715h-130v715h130z" />
    <glyph glyph-name="k" unicode="k" horiz-adv-x="517" 
d="M194 159v-159h-129v695l129 11v-398l208 191l73 -92l-136 -119l178 -288h-149l-122 205z" />
    <glyph glyph-name="l" unicode="l" horiz-adv-x="259" 
d="M194 706v-706h-129v695z" />
    <glyph glyph-name="m" unicode="m" horiz-adv-x="855" 
d="M804 324l0.00390625 -324.001h-130v298c0 31.333 -4.83301 55 -14.5 71s-24.834 24 -45.501 24c-20 0 -38.333 -4.66699 -55 -14s-38 -23.333 -64 -42v-13v-324h-130v298c0 31.333 -4.83301 55 -14.5 71s-24.834 24 -45.501 24c-20 0 -38.333 -4.66699 -55 -14
s-38.334 -23.666 -65.001 -42.999v-336h-130v485h85l22 -52c30 21.333 61 38 93 50s60 18 84 18c66 0 110.667 -22 134 -66c30 20.667 60.667 36.834 92 48.501s59 17.5 83 17.5c55.333 0 95.166 -14.833 119.499 -44.5s36.5 -73.834 36.5 -132.501z" />
    <glyph glyph-name="n" unicode="n" horiz-adv-x="566" 
d="M315 393c-22.667 0 -44 -5.16797 -64 -15.501s-42 -24.166 -66 -41.499v-336h-130v485h85l22 -52c30 21.333 62 38 96 50s64.333 18 91 18c61.333 0 104.333 -17.333 129 -52s37 -83 37 -145v-304h-130v298c0 30 -6.16699 53.333 -18.5 70s-29.5 25 -51.5 25z" />
    <glyph glyph-name="o" unicode="o" 
d="M284 -12c-52 0 -97.5 10.333 -136.5 31s-69.167 50.167 -90.5 88.5s-32 83.166 -32 134.499s10.667 96.333 32 135s51.5 68.5 90.5 89.5s84.5 31.5 136.5 31.5s97.5 -10.333 136.5 -31s69.167 -50.167 90.5 -88.5s32 -83.166 32 -134.499s-10.667 -96.333 -32 -135
s-51.5 -68.5 -90.5 -89.5s-84.5 -31.5 -136.5 -31.5zM409 244c0 42 -11.667 76.333 -35 103s-53.333 40 -90 40c-36 0 -65.833 -13.667 -89.5 -41s-35.5 -62 -35.5 -104s11.667 -76.333 35 -103s53.333 -40 90 -40c36 0 65.833 13.667 89.5 41s35.5 62 35.5 104z" />
    <glyph glyph-name="p" unicode="p" horiz-adv-x="550" 
d="M525 244c0 -50.667 -9.83398 -95.333 -29.501 -134s-48.167 -68.667 -85.5 -90s-81.666 -32 -132.999 -32c-27.333 0 -56.333 7.66699 -87 23v-241h-129v715h66l26 -33c39.333 30.667 82 46 128 46c75.333 0 134.833 -22.833 178.5 -68.5s65.5 -107.5 65.5 -185.5z
M390.999 244.001c0 42.667 -10.167 77.167 -30.5 103.5s-48.5 39.5 -84.5 39.5c-28 0 -56.667 -9.66699 -86 -29v-231c27.333 -18.667 56 -28 86 -28c35.333 0 63.333 13.5 84 40.5s31 61.833 31 104.5z" />
    <glyph glyph-name="q" unicode="q" 
d="M507 -230h-130.999v249c-33.333 -20.667 -69 -31 -107 -31c-75.333 0 -134.833 22.833 -178.5 68.5s-65.5 107.5 -65.5 185.5c0 50.667 9.83301 95.334 29.5 134.001s48.167 68.667 85.5 90s81.666 32 132.999 32c22 0 45.5 -5.33301 70.5 -16
s47.167 -24.334 66.5 -41.001l29 44h68v-715zM376.001 139l0.000976562 207c-17.333 14.667 -34 25.167 -50 31.5s-33.333 9.5 -52 9.5c-35.333 0 -63.333 -13.5 -84 -40.5s-31 -61.833 -31 -104.5s10.167 -77.167 30.5 -103.5s48.5 -39.5 84.5 -39.5
c17.333 0 34.166 3.33301 50.499 10s33.5 16.667 51.5 30z" />
    <glyph glyph-name="r" unicode="r" horiz-adv-x="367" 
d="M357 381c-22 0 -49.166 -8.00098 -81.499 -24.001s-62.5 -36.333 -90.5 -61v-296h-130v485h68l43 -81c23.333 20.667 50.666 39.334 81.999 56.001s59 25 83 25l26 -104v0z" />
    <glyph glyph-name="s" unicode="s" horiz-adv-x="422" 
d="M195 -12c-24.667 0 -53.667 4.33398 -87 13.001s-60.333 21 -81 37l39 88c49.333 -22 91.666 -33 126.999 -33c20 0 38.333 3.66699 55 11s25 17.666 25 30.999c0 26 -28.333 47.667 -85 65c-46 15.333 -84.333 35 -115 59s-46 54.333 -46 91c0 46 17 82.167 51 108.5
s80 39.5 138 39.5c22.667 0 50.334 -4.66699 83.001 -14s60.334 -21.666 83.001 -36.999l-39 -87c-25.333 11.333 -47.833 19.666 -67.5 24.999s-40.167 8 -61.5 8c-16.667 0 -30.5 -4.16699 -41.5 -12.5s-16.5 -18.166 -16.5 -29.499c0 -8.66699 6.5 -16.5 19.5 -23.5
s31.833 -14.833 56.5 -23.5c47.333 -17.333 86.666 -39.333 117.999 -66s47 -59.334 47 -98.001c0 -48.667 -17.333 -86.167 -52 -112.5s-84.667 -39.5 -150 -39.5z" />
    <glyph glyph-name="t" unicode="t" horiz-adv-x="381" 
d="M204 484h88l40 -100h-128v-206c0 -26 6.16699 -47 18.5 -63s29.833 -24 52.5 -24c17.333 0 35 4.33301 53 13l38 -94c-10 -8 -24.833 -15 -44.5 -21s-37.5 -9 -53.5 -9c-60.667 0 -108 15.333 -142 46s-51 73.667 -51 129v229h-65v100h65v115l129 23v-138z" />
    <glyph glyph-name="u" unicode="u" horiz-adv-x="566" 
d="M251 92c22.667 0 44 5.16797 64 15.501s42 24.166 66 41.499v336h130v-485h-85l-22 52c-30 -21.333 -62 -38 -96 -50s-64.333 -18 -91 -18c-61.333 0 -104.333 17.333 -129 52s-37 83 -37 145v304h130v-298c0 -30 6.16699 -53.333 18.5 -70s29.5 -25 51.5 -25z" />
    <glyph glyph-name="v" unicode="v" horiz-adv-x="502" 
d="M492 485l-191 -485h-112l-179 465l127 38l112 -312l106 294h137z" />
    <glyph glyph-name="w" unicode="w" horiz-adv-x="717" 
d="M707 485l-155 -485h-109l-91 297l-87 -297h-110l-145 465l128 38l75 -300l70 282h143l75 -282l69 282h137z" />
    <glyph glyph-name="x" unicode="x" horiz-adv-x="510" 
d="M251 146l-97 -146h-144l165 247l-148 217l121 37l110 -171l100 155h142l-165 -257l149 -228h-143z" />
    <glyph glyph-name="y" unicode="y" horiz-adv-x="503" 
d="M492 485l-190 -483v-232h-113v230l-179 465l127 38l112 -312l106 294h137z" />
    <glyph glyph-name="z" unicode="z" horiz-adv-x="443" 
d="M25 485h388l7 -74l-244 -306h244l10 -105h-400l-17 69l241 309h-204z" />
    <glyph glyph-name="braceleft" unicode="{" horiz-adv-x="294" 
d="M226 408c0 -22.667 -2.83301 -41.998 -8.5 -57.998s-14.5 -29.667 -26.5 -41c23.333 -23.333 35 -56.666 35 -99.999c0 -11.333 -1.5 -21.666 -4.5 -30.999s-7.5 -20 -13.5 -32c-6 -13.333 -10.333 -24.166 -13 -32.499s-4 -17.833 -4 -28.5
c0 -6.66699 3.5 -12.834 10.5 -18.501s16.167 -8.5 27.5 -8.5h42l13 -100h-58c-48 0 -83.667 11.333 -107 34s-35 53.667 -35 93c0 12 2.66699 26.167 8 42.5s8.33301 26.166 9 29.499c4 12 7.66699 23.833 11 35.5s5 21.167 5 28.5c0 12.667 -4.16699 23.167 -12.5 31.5
s-18.166 12.5 -29.499 12.5h-45v86h45c11.333 0 21.166 4.16699 29.499 12.5s12.5 18.833 12.5 31.5c0 10 -4.66699 27.667 -14 53c-12.667 39.333 -19 67.666 -19 84.999c0 39.333 11.667 70.166 35 92.499s59 33.5 107 33.5h58l-13 -100h-42
c-11.333 0 -20.5 -2.83301 -27.5 -8.5s-10.5 -11.834 -10.5 -18.501c0 -10.667 1.33301 -20.167 4 -28.5s7 -17.833 13 -28.5c6 -12 10.5 -22.833 13.5 -32.5s4.5 -21.167 4.5 -34.5z" />
    <glyph glyph-name="bar" unicode="|" horiz-adv-x="299" 
d="M85 0v713l129 -10v-713z" />
    <glyph glyph-name="braceright" unicode="}" horiz-adv-x="292" 
d="M66 209c0 43.333 11.667 76.6641 35 99.9971c-12 11.333 -20.833 25 -26.5 41s-8.5 35.333 -8.5 58c0 13.333 1.5 24.833 4.5 34.5s7.5 20.5 13.5 32.5c6 10.667 10.333 20.167 13 28.5s4 17.833 4 28.5c0 6.66699 -3.5 12.834 -10.5 18.501s-16.167 8.5 -27.5 8.5h-42
l-13 100h58c48 0 83.667 -11.167 107 -33.5s35 -53.166 35 -92.499c0 -17.333 -6.33301 -45.666 -19 -84.999c-9.33301 -25.333 -14 -43 -14 -53c0 -12.667 4.16699 -23.167 12.5 -31.5s18.166 -12.5 29.499 -12.5h45v-86h-45c-11.333 0 -21.166 -4.16699 -29.499 -12.5
s-12.5 -18.833 -12.5 -31.5c0 -7.33301 1.66699 -16.833 5 -28.5s7 -23.5 11 -35.5c0.666992 -3.33301 3.66699 -13.166 9 -29.499s8 -30.5 8 -42.5c0 -39.333 -11.667 -70.333 -35 -93s-59 -34 -107 -34h-58l13 100h42c11.333 0 20.5 2.83301 27.5 8.5
s10.5 11.834 10.5 18.501c0 10.667 -1.33301 20.167 -4 28.5s-7 19.166 -13 32.499c-6 12 -10.5 22.667 -13.5 32s-4.5 19.666 -4.5 30.999z" />
    <glyph glyph-name="asciitilde" unicode="~" horiz-adv-x="479" 
d="M172 210c-5.33301 0 -10.834 -3.33105 -16.501 -9.99805s-8.83398 -16 -9.50098 -28h-116c0 56 12 97.833 36 125.5s54 41.5 90 41.5c17.333 0 31.833 -1.33301 43.5 -4s24.834 -7 39.501 -13c12.667 -4.66699 23.834 -8.16699 33.501 -10.5s20.834 -3.5 33.501 -3.5
c6.66699 0 12.667 3.16699 18 9.5s8.33301 15.833 9 28.5h116c0 -56.667 -12 -98.834 -36 -126.501s-54 -41.5 -90 -41.5c-17.333 0 -31.833 1.33301 -43.5 4s-24.834 7 -39.501 13c-12 5.33301 -22.833 9.16602 -32.5 11.499s-21.5 3.5 -35.5 3.5z" />
    <glyph glyph-name="uni00A0" unicode="&#xa0;" horiz-adv-x="236" 
 />
    <glyph glyph-name="exclamdown" unicode="&#xa1;" horiz-adv-x="207" 
d="M177 629c0 -20.667 -7.16699 -38.167 -21.5 -52.5s-31.833 -21.5 -52.5 -21.5c-20 0 -37.167 7.16699 -51.5 21.5s-21.5 31.833 -21.5 52.5c0 20 7.16699 37.167 21.5 51.5s31.5 21.5 51.5 21.5c20.667 0 38.167 -7.16699 52.5 -21.5s21.5 -31.5 21.5 -51.5zM51 505
l105 -47l14 -458h-135z" />
    <glyph glyph-name="cent" unicode="&#xa2;" horiz-adv-x="472" 
d="M359 -2l-0.000976562 -112.999h-130v107c-63.333 10.667 -113.166 38 -149.499 82s-54.5 100 -54.5 168s18 124.167 54 168.5s85.333 71.833 148 82.5v105l130 13v-124c40 -10.667 71.333 -24 94 -40l-37 -93c-25.333 11.333 -48 19.666 -68 24.999s-40.667 8 -62 8
c-36 0 -65.833 -13.667 -89.5 -41s-35.5 -62 -35.5 -104s11.667 -76.333 35 -103s53.333 -40 90 -40c21.333 0 42 2.66699 62 8s42.667 13.666 68 24.999l37 -94c-21.333 -17.333 -52 -30.666 -92 -39.999z" />
    <glyph glyph-name="sterling" unicode="&#xa3;" horiz-adv-x="506" 
d="M496 0h-439l-10 101c28 0.666992 47.167 8.16699 57.5 22.5s15.5 35.5 15.5 63.5v104h-75v99h75v113c0 56 16.667 100.167 50 132.5s80 48.5 140 48.5c16.667 0 34.667 -3 54 -9s34 -13.667 44 -23l-38 -92c-18.667 8 -36.667 12 -54 12
c-22.667 0 -39.167 -7.83301 -49.5 -23.5s-15.5 -36.5 -15.5 -62.5v-96h118l43 -99h-161v-91c0 -40.667 -7 -73.667 -21 -99h246z" />
    <glyph glyph-name="currency" unicode="&#xa4;" horiz-adv-x="701" 
d="M612 243c-0.666992 -52 -12.999 -96.999 -36.999 -134.999l96 -97l-80 -96l-106 106c-40 -22 -84 -33.333 -132 -34c-47.333 0.666992 -93 12.667 -137 36l-106 -108l-80 96l98 100c-22.667 40 -34 83.333 -34 130c0 24 3.16699 47.333 9.5 70s14.833 43 25.5 61l-99 101
l80 96l106 -107c44 23.333 89.667 35.333 137 36c46.667 -0.666992 90.667 -12.334 132 -35.001l106 106l80 -96l-96 -97c23.333 -38 35.666 -82.333 36.999 -133zM351.001 111.001c22 0 42.667 5.83301 62 17.5s35 27.667 47 48s18 42.166 18 65.499
c0 24 -6 45.833 -18 65.5s-27.667 35.334 -47 47.001s-40 17.5 -62 17.5c-21.333 0 -41.333 -5.83301 -60 -17.5s-33.834 -27.5 -45.501 -47.5s-17.5 -41.667 -17.5 -65s5.83301 -45 17.5 -65s26.834 -36 45.501 -48s38.667 -18 60 -18z" />
    <glyph glyph-name="yen" unicode="&#xa5;" horiz-adv-x="608" 
d="M362 162h160l10 -96h-170v-66h-130v66h-146l-11 96h157v56h-146l-11 96h129l-194 343l128 37l158 -298l165 284h137l-206 -366h130l10 -96h-170v-56z" />
    <glyph glyph-name="brokenbar" unicode="&#xa6;" horiz-adv-x="299" 
d="M85 417v296l129 -10v-297zM85 0v297l129 -9v-298z" />
    <glyph glyph-name="section" unicode="&#xa7;" horiz-adv-x="601" 
d="M496 114c4 -14 6 -29.333 6 -46c0 -36.667 -9.83301 -69 -29.5 -97s-48.667 -50 -87 -66s-84.166 -24 -137.499 -24c-28 0 -62.833 6.16699 -104.5 18.5s-73.834 25.5 -96.501 39.5l29 105c24.667 -12.667 52.667 -23.834 84 -33.501s60 -14.5 86 -14.5
c40 0 70.333 6.33301 91 19s31 31 31 55c0 16.667 -8.16699 31.834 -24.5 45.501s-41.5 29.834 -75.5 48.501l-30 18c-44.667 26.667 -80.167 49.667 -106.5 69s-49 42.166 -68 68.499s-28.5 55.833 -28.5 88.5c0 30 7 57.333 21 82s34 45.334 60 62.001
c-4.66699 16.667 -7 32 -7 46c0 34.667 9.33301 65.834 28 93.501s45.5 49.334 80.5 65.001s76.833 23.5 125.5 23.5c57.333 0 121.333 -17 192 -51l-43 -104c-27.333 13.333 -52.166 23.666 -74.499 30.999s-46.5 11 -72.5 11c-30 0 -54.5 -5.83301 -73.5 -17.5
s-28.5 -28.834 -28.5 -51.501c0 -19.333 7.5 -35.5 22.5 -48.5s39.5 -29.5 73.5 -49.5l32 -18l29 -17c39.333 -22.667 70.666 -42.5 93.999 -59.5s42.833 -37.667 58.5 -62s23.5 -52.833 23.5 -85.5c0 -30 -6.83301 -57.333 -20.5 -82s-33.5 -45.334 -59.5 -62.001zM265 310
l32 -18.002l32 -19c41.333 -24 72.333 -44 93 -60c13.333 12 20 27.667 20 47c0 16.667 -8.16699 31.834 -24.5 45.501s-41.5 29.834 -75.5 48.501l-30 18c-55.333 32.667 -96 60 -122 82c-14 -12 -21 -27.333 -21 -46c0 -19.333 7.5 -35.5 22.5 -48.5
s39.5 -29.5 73.5 -49.5z" />
    <glyph glyph-name="dieresis" unicode="&#xa8;" horiz-adv-x="341" 
d="M139 667c0 -18 -6 -33.167 -18 -45.5s-27 -18.5 -45 -18.5c-18.667 0 -34.334 6.16699 -47.001 18.5s-19 27.5 -19 45.5s6.33301 33.333 19 46s28.334 19 47.001 19c18 0 33 -6.33301 45 -19s18 -28 18 -46zM331 667c0 -18 -6.16699 -33.167 -18.5 -45.5
s-27.833 -18.5 -46.5 -18.5c-18 0 -33.333 6.16699 -46 18.5s-19 27.5 -19 45.5s6.5 33.333 19.5 46s28.167 19 45.5 19c18.667 0 34.167 -6.33301 46.5 -19s18.5 -28 18.5 -46z" />
    <glyph glyph-name="copyright" unicode="&#xa9;" horiz-adv-x="823" 
d="M411 719c77.333 0 145.166 -16.833 203.499 -50.5s103.5 -79.667 135.5 -138s48 -123.166 48 -194.499c0 -70.667 -16 -135.167 -48 -193.5s-77.167 -104.333 -135.5 -138s-126.166 -50.5 -203.499 -50.5s-145.166 16.833 -203.499 50.5s-103.333 79.667 -135 138
s-47.5 122.833 -47.5 193.5c0 71.333 15.833 136.166 47.5 194.499s76.667 104.333 135 138s126.166 50.5 203.499 50.5zM411 645c-60.667 0 -114 -13.333 -160 -40s-81.333 -63.334 -106 -110.001s-37 -99.334 -37 -158.001s12.333 -111.334 37 -158.001
s60 -83.334 106 -110.001s99.333 -40 160 -40c61.333 0 114.833 13.333 160.5 40s80.834 63.334 105.501 110.001s37 99.334 37 158.001s-12.333 111.334 -37 158.001s-59.834 83.334 -105.501 110.001s-99.167 40 -160.5 40zM579 148
c-18.667 -14.667 -42.668 -26 -72.001 -34s-55 -12 -77 -12c-71.333 0 -127.666 21.167 -168.999 63.5s-62 99.5 -62 171.5c0 46.667 10 87.667 30 123s47.5 62.666 82.5 81.999s74.5 29 118.5 29c20.667 0 45.5 -4.16699 74.5 -12.5s53.833 -19.166 74.5 -32.499l-35 -98
c-23.333 11.333 -43 19.333 -59 24s-33.667 7 -53 7c-30.667 0 -54.834 -10.833 -72.501 -32.5s-26.5 -51.5 -26.5 -89.5c0 -39.333 8.83301 -69.833 26.5 -91.5s41.834 -32.5 72.501 -32.5c19.333 0 36.833 2.5 52.5 7.5s35.5 13.167 59.5 24.5z" />
    <glyph glyph-name="ordfeminine" unicode="&#xaa;" horiz-adv-x="327" 
d="M159 612c-13.333 0 -28.665 -2.16895 -45.998 -6.50195s-33.333 -9.16602 -48 -14.499l-23 82c14 7.33301 31.833 14 53.5 20s42.5 9 62.5 9c46 0 81.5 -11 106.5 -33s37.5 -50.667 37.5 -86v-212h-49l-24 26c-12.667 -9.33301 -26.834 -17.333 -42.501 -24
s-30.834 -10 -45.501 -10c-38 0 -66.833 9.66699 -86.5 29s-29.5 45 -29.5 77c0 32.667 11.5 58.834 34.5 78.501s52.5 29.167 88.5 28.5h55c-4 24 -18.667 36 -44 36zM152.001 497.998c-10 0 -17.666 -2.16699 -22.999 -6.5s-8 -9.83301 -8 -16.5s2 -12 6 -16s10 -6 18 -6
c23.333 0 43.666 6 60.999 18v27h-54z" />
    <glyph glyph-name="guillemotleft" unicode="&#xab;" horiz-adv-x="401" 
d="M190 83l-160 138v48l160 139l23 -87l-85 -76l85 -76zM360 83l-161 138v48l161 139l21 -87l-84 -76l84 -76z" />
    <glyph glyph-name="logicalnot" unicode="&#xac;" horiz-adv-x="514" 
d="M10 406h466l8 -50v-244l-109 5v187h-357z" />
    <glyph glyph-name="registered" unicode="&#xae;" horiz-adv-x="733" 
d="M366 827c68.667 0 128.834 -14.833 180.501 -44.5s91.5 -70.334 119.5 -122.001s42 -109.5 42 -173.5c0 -62.667 -14 -119.667 -42 -171s-67.833 -91.833 -119.5 -121.5s-111.834 -44.5 -180.501 -44.5c-68 0 -127.833 14.833 -179.5 44.5s-91.5 70.167 -119.5 121.5
s-42 108.333 -42 171c0 64 14 121.833 42 173.5s67.833 92.334 119.5 122.001s111.5 44.5 179.5 44.5zM366 755c-54 0 -100.833 -11.333 -140.5 -34s-70 -54.167 -91 -94.5s-31.5 -86.5 -31.5 -138.5c0 -50.667 10.5 -96.167 31.5 -136.5s51.333 -72.166 91 -95.499
s86.5 -35 140.5 -35c53.333 0 100 11.667 140 35s70.667 55.166 92 95.499s32 85.833 32 136.5c0 52 -10.667 98.167 -32 138.5s-52 71.833 -92 94.5s-86.667 34 -140 34zM525 566c0 -23.333 -5.83203 -43.5 -17.499 -60.5s-27.5 -30.5 -47.5 -40.5l79 -161h-103l-62 143
h-54v-143h-92v377h150c43.333 0 78.666 -9.66699 105.999 -29s41 -48 41 -86zM429.001 562c0 17.333 -6 28.833 -18 34.5s-31 8.5 -57 8.5h-34v-84h35c24 0 42.333 3 55 9s19 16.667 19 32z" />
    <glyph glyph-name="degree" unicode="&#xb0;" horiz-adv-x="259" 
d="M10 610c0 31.333 11.833 58.166 35.5 80.499s51.834 33.5 84.501 33.5c20.667 0 40.167 -5.16699 58.5 -15.5s33 -24.166 44 -41.499s16.5 -36.333 16.5 -57c0 -32 -11.833 -58.833 -35.5 -80.5s-51.5 -32.5 -83.5 -32.5c-32.667 0 -60.834 10.833 -84.501 32.5
s-35.5 48.5 -35.5 80.5zM130 568c10.667 0 19.834 4.00098 27.501 12.001s11.5 17 11.5 27c0 10.667 -3.83301 20.167 -11.5 28.5s-16.834 12.5 -27.501 12.5c-10 0 -19 -3.83301 -27 -11.5s-12 -16.5 -12 -26.5c0 -10.667 4 -20.334 12 -29.001s17 -13 27 -13z" />
    <glyph glyph-name="plusminus" unicode="&#xb1;" horiz-adv-x="469" 
d="M293 387h137l9 -89h-146v-158l-111 5v153h-142l-10 89h152v147l111 -3v-144zM33 90h402l4 -90h-399z" />
    <glyph glyph-name="twosuperior" unicode="&#xb2;" horiz-adv-x="372" 
d="M13 728c50.667 28.667 104.666 42.998 161.999 42.998c36 0 66.333 -6.66699 91 -20s43.167 -30.333 55.5 -51s18.5 -42 18.5 -64c0 -29.333 -8 -56.5 -24 -81.5s-42.667 -53.167 -80 -84.5l-53 -43h155l14 -90h-327v82l137 112c20 16.667 34.5 32.834 43.5 48.501
s13.5 34.5 13.5 56.5c0 10.667 -4.66699 19.834 -14 27.501s-21.666 11.5 -36.999 11.5c-34 0 -71 -10.333 -111 -31l-44 84v0z" />
    <glyph glyph-name="threesuperior" unicode="&#xb3;" horiz-adv-x="371" 
d="M15 717c26.667 17.333 52.6689 30.665 78.002 39.998s52.333 14 81 14c51.333 0 90.666 -12.5 117.999 -37.5s41 -56.5 41 -94.5c0 -21.333 -6.5 -41.5 -19.5 -60.5s-27.167 -31.833 -42.5 -38.5c10 -2.66699 20.5 -9.16699 31.5 -19.5s20.167 -23.666 27.5 -39.999
s11 -34.166 11 -53.499c0 -28 -7.33301 -53.167 -22 -75.5s-35.334 -40 -62.001 -53s-57.667 -19.5 -93 -19.5c-28.667 0 -57.667 4 -87 12s-55 19.667 -77 35l50 83c22 -13.333 39.833 -22.5 53.5 -27.5s29.167 -7.5 46.5 -7.5c21.333 0 38.333 5 51 15s19 22.333 19 37
c0 22 -7 38.667 -21 50s-34.333 17 -61 17h-31l-13 90h49c46 0 69 18.333 69 55c0 24 -18.667 36 -56 36c-19.333 0 -36 -3.16699 -50 -9.5s-28.667 -15.833 -44 -28.5l-47 81v0z" />
    <glyph glyph-name="acute" unicode="&#xb4;" horiz-adv-x="205" 
d="M195 753l-95 -164l-90 25l51 139h134z" />
    <glyph glyph-name="mu" unicode="&#xb5;" horiz-adv-x="576" 
d="M521 0l-85 0.000976562l-22 52c-30 -21.333 -62 -38 -96 -50s-64.333 -18 -91 -18c-9.33301 0 -21.333 0.666992 -36 2v-195l-130 -10v704h130v-298c0 -30 6.16699 -53.333 18.5 -70s29.5 -25 51.5 -25c22.667 0 44 5.16699 64 15.5s42 24.166 66 41.499v336h130v-485z
" />
    <glyph glyph-name="paragraph" unicode="&#xb6;" horiz-adv-x="910" 
d="M458 578l-0.000976562 -578h-131v237h-23c-50.667 0 -97.167 8.16699 -139.5 24.5s-76.166 41.5 -101.499 75.5s-38 75.667 -38 125c0 74 24.833 128.833 74.5 164.5s114.167 53.5 193.5 53.5h592v-102h-94v-578h-131v578h-202z" />
    <glyph glyph-name="cedilla" unicode="&#xb8;" horiz-adv-x="241" 
d="M139 -120c0 12 -8.50098 21.832 -25.501 29.499s-37.833 12.834 -62.5 15.501l35 88h93l-18 -42c20 -8 36.667 -20.5 50 -37.5s20 -34.167 20 -51.5c0 -33.333 -12.167 -58.833 -36.5 -76.5s-54.166 -26.5 -89.499 -26.5c-14 0 -30.833 2.66699 -50.5 8
s-34.5 12 -44.5 20l30 76c9.33301 -4.66699 20.5 -9.16699 33.5 -13.5s23.5 -6.5 31.5 -6.5c9.33301 0 17.333 1.33301 24 4s10 7 10 13z" />
    <glyph glyph-name="onesuperior" unicode="&#xb9;" horiz-adv-x="309" 
d="M244 763v-426h-118v306l-70 -32l-46 83l157 69h77z" />
    <glyph glyph-name="ordmasculine" unicode="&#xba;" horiz-adv-x="385" 
d="M25 533c0 52 15 93.168 45 123.501s70.667 45.5 122 45.5c53.333 0 94.666 -15.333 123.999 -46s44 -72.334 44 -125.001c0 -51.333 -15.667 -92 -47 -122s-73.333 -45.333 -126 -46c-51.333 0.666992 -91.166 16 -119.499 46s-42.5 71.333 -42.5 124zM250 530.001
c0 27.333 -4.16602 47.832 -12.499 61.499s-22.833 20.5 -43.5 20.5c-39.333 0 -59 -26.333 -59 -79c0 -27.333 4.16699 -47.666 12.5 -60.999s22.166 -20 41.499 -20c40.667 0 61 26 61 78z" />
    <glyph glyph-name="guillemotright" unicode="&#xbb;" horiz-adv-x="403" 
d="M43 408l159 -139v-48l-159 -138l-23 86l85 76l-85 76zM212 408l161 -139v-48l-161 -138l-22 86l85 76l-85 76z" />
    <glyph glyph-name="onequarter" unicode="&#xbc;" horiz-adv-x="917" 
d="M167 763h77v-426h-118v306l-70 -32l-46 83zM175 -134h-140l586 834h141zM897 15l-11 -96h-80v-84h-119v84h-198l-12 96l247 307h82v-307h91zM598 15h89v107z" />
    <glyph glyph-name="onehalf" unicode="&#xbd;" horiz-adv-x="927" 
d="M244 763v-426h-118v306l-70 -32l-46 83l157 69h77zM35 -134l586 834h141l-587 -834h-140zM568 281c50.667 28.667 104.669 43 162.002 43c36 0 66.333 -6.66699 91 -20s43.167 -30.333 55.5 -51s18.5 -42 18.5 -64c0 -29.333 -8 -56.5 -24 -81.5
s-42.667 -53.167 -80 -84.5l-53 -43h155l14 -90h-327v82l137 112c21.333 18 36.166 33.333 44.499 46s12.5 29.667 12.5 51c0 11.333 -4.83301 22 -14.5 32s-21.834 15 -36.501 15c-34 0 -71 -10.333 -111 -31z" />
    <glyph glyph-name="threequarters" unicode="&#xbe;" horiz-adv-x="901" 
d="M15 717c26.667 17.333 52.6689 30.665 78.002 39.998s52.333 14 81 14c51.333 0 90.666 -12.5 117.999 -37.5s41 -56.5 41 -94.5c0 -21.333 -6.5 -41.5 -19.5 -60.5s-27.167 -31.833 -42.5 -38.5c10 -2.66699 20.5 -9.16699 31.5 -19.5s20.167 -23.666 27.5 -39.999
s11 -34.166 11 -53.499c0 -28 -7.33301 -53.167 -22 -75.5s-35.334 -40 -62.001 -53s-57.667 -19.5 -93 -19.5c-28.667 0 -57.667 4 -87 12s-55 19.667 -77 35l50 83c22 -13.333 39.833 -22.5 53.5 -27.5s29.167 -7.5 46.5 -7.5c21.333 0 38.333 5 51 15s19 22.333 19 37
c0 22 -7 38.667 -21 50s-34.333 17 -61 17h-31l-13 90h49c46 0 69 18.333 69 55c0 24 -18.667 36 -56 36c-19.333 0 -36 -3.16699 -50 -9.5s-28.667 -15.833 -44 -28.5zM74.002 -134.001l586 834h141l-587 -834h-140zM709.002 321.999h82v-307h90l-10 -96h-80v-84h-119v84
h-198l-13 96zM672.002 121.999l-91 -107h91v107z" />
    <glyph glyph-name="questiondown" unicode="&#xbf;" horiz-adv-x="434" 
d="M338 591c0 -20.667 -7.16699 -38.167 -21.5 -52.5s-31.833 -21.5 -52.5 -21.5s-38 7.16699 -52 21.5s-21 31.833 -21 52.5c0 20 7 37.167 21 51.5s31.333 21.5 52 21.5s38.167 -7.16699 52.5 -21.5s21.5 -31.5 21.5 -51.5zM424 19
c-30 -19.333 -60.8311 -33.5 -92.498 -42.5s-65.834 -13.5 -102.501 -13.5c-64 0 -113.167 16.333 -147.5 49s-51.5 76 -51.5 130c0 35.333 15.5 72.166 46.5 110.499s70.167 70.5 117.5 96.5l17 136l92 -38l9 -165c-49.333 -16 -89 -36.333 -119 -61s-45 -50.667 -45 -78
c0 -21.333 8 -38.666 24 -51.999s36.333 -20 61 -20c24 0 51.167 5.16699 81.5 15.5s61.166 26.833 92.499 49.5z" />
    <glyph glyph-name="Agrave" unicode="&#xc0;" horiz-adv-x="659" 
d="M376 764l-90 -25l-95 164h134zM10 0l265 680h110l264 -672l-130 -18l-61 170h-258l-60 -160h-130zM238 265h180l-91 237z" />
    <glyph glyph-name="Aacute" unicode="&#xc1;" horiz-adv-x="659" 
d="M441 903l-95 -164l-90 25l51 139h134zM10 0l265 680h110l264 -672l-130 -18l-61 170h-258l-60 -160h-130zM238 265h180l-91 237z" />
    <glyph glyph-name="Acircumflex" unicode="&#xc2;" horiz-adv-x="659" 
d="M391 739l-66 65l-67 -65l-123 16l152 148h71l152 -148zM10 0l265 680h110l264 -672l-130 -18l-61 170h-258l-60 -160h-130zM238 265h180l-91 237z" />
    <glyph glyph-name="Atilde" unicode="&#xc3;" horiz-adv-x="659" 
d="M374 835c7.33301 0 13.668 3.16797 19.001 9.50098s8 13.5 8 21.5h81c0 -42 -10.333 -72.667 -31 -92s-46 -29 -76 -29c-13.333 0 -23.833 1.66699 -31.5 5s-15.5 8 -23.5 14c-10 6 -18.167 10.333 -24.5 13s-15.166 4 -26.499 4c-7.33301 0 -13.833 -3.5 -19.5 -10.5
s-8.5 -13.833 -8.5 -20.5h-86c0 41.333 10.333 71.666 31 90.999s46 29 76 29c12.667 0 23.167 -1.5 31.5 -4.5s17.166 -7.5 26.499 -13.5c10 -6 18.667 -10.333 26 -13s16.666 -4 27.999 -4zM10.002 0.000976562l265 680h110l264 -672l-130 -18l-61 170h-258l-60 -160h-130
zM238.002 265.001h180l-91 237z" />
    <glyph glyph-name="Adieresis" unicode="&#xc4;" horiz-adv-x="659" 
d="M295 817c0 -18 -6 -33.167 -18 -45.5s-27 -18.5 -45 -18.5c-18.667 0 -34.334 6.16699 -47.001 18.5s-19 27.5 -19 45.5s6.33301 33.333 19 46s28.334 19 47.001 19c18 0 33 -6.33301 45 -19s18 -28 18 -46zM487 817c0 -18 -6.16699 -33.167 -18.5 -45.5
s-27.833 -18.5 -46.5 -18.5c-18 0 -33.333 6.16699 -46 18.5s-19 27.5 -19 45.5s6.5 33.333 19.5 46s28.167 19 45.5 19c18.667 0 34.167 -6.33301 46.5 -19s18.5 -28 18.5 -46zM10 0l265 680h110l264 -672l-130 -18l-61 170h-258l-60 -160h-130zM238 265h180l-91 237z" />
    <glyph glyph-name="Aring" unicode="&#xc5;" horiz-adv-x="659" 
d="M218 842c0 28 10.667 51.833 32 71.5s46.333 29.5 75 29.5s53.667 -9.83301 75 -29.5s32 -43.5 32 -71.5s-10.5 -51.333 -31.5 -70s-46.167 -28 -75.5 -28s-54.5 9.33301 -75.5 28s-31.5 42 -31.5 70zM285 842c0 -10.667 4 -20 12 -28s17.333 -12 28 -12
s19.834 4 27.501 12s11.5 17.333 11.5 28s-3.83301 19.834 -11.5 27.501s-16.834 11.5 -27.501 11.5s-20 -3.83301 -28 -11.5s-12 -16.834 -12 -27.501zM10 0l265 680h110l264 -672l-130 -18l-61 170h-258l-60 -160h-130zM238 265h180l-91 237z" />
    <glyph glyph-name="AE" unicode="&#xc6;" horiz-adv-x="962" 
d="M234 160l-110 -170l-124 18l453 672h421l19 -102h-296v-183h222l21 -103h-243v-191h325l20 -101h-476v160h-232zM466 265v237l-162 -237h162z" />
    <glyph glyph-name="Ccedilla" unicode="&#xc7;" horiz-adv-x="564" 
d="M461 -118c0 -33.333 -12.167 -58.835 -36.5 -76.502s-54.166 -26.5 -89.499 -26.5c-14 0 -30.833 2.66699 -50.5 8s-34.5 12 -44.5 20l30 76c9.33301 -4.66699 20.5 -9.16699 33.5 -13.5s23.5 -6.5 31.5 -6.5c9.33301 0 17.333 1.33301 24 4s10 7 10 13
c0 12 -8.5 21.833 -25.5 29.5s-37.833 12.834 -62.5 15.501l26 64c-58 7.33301 -107.5 27.166 -148.5 59.499s-71.833 73.333 -92.5 123s-31 104.834 -31 165.501c0 69.333 13.5 131 40.5 185s65.333 96.167 115 126.5s107.167 45.5 172.5 45.5c24 0 53.333 -3.66699 88 -11
s65.334 -18.333 92.001 -33l-40 -93l-25 7c-26 8 -46.667 13.5 -62 16.5s-34.333 4.5 -57 4.5c-36 0 -68.333 -10 -97 -30s-51.167 -48.667 -67.5 -86s-24.5 -81 -24.5 -131c0 -44.667 7.16699 -85.5 21.5 -122.5s35.166 -66.333 62.499 -88s59.666 -32.5 96.999 -32.5
c49.333 0 99 10.333 149 31l49 -96c-20 -10 -43.5 -18.667 -70.5 -26s-53.833 -12.666 -80.5 -15.999l-7 -17c20 -8 36.667 -20.5 50 -37.5s20 -34.167 20 -51.5z" />
    <glyph glyph-name="Egrave" unicode="&#xc8;" horiz-adv-x="581" 
d="M351 764l-90 -25l-95 164h134zM540 101l21 -101h-476v680h455l20 -102h-346v-183h222l21 -103h-243v-191h326z" />
    <glyph glyph-name="Eacute" unicode="&#xc9;" horiz-adv-x="581" 
d="M416 903l-95 -164l-90 25l51 139h134zM540 101l21 -101h-476v680h455l20 -102h-346v-183h222l21 -103h-243v-191h326z" />
    <glyph glyph-name="Ecircumflex" unicode="&#xca;" horiz-adv-x="581" 
d="M366 739l-66 65l-67 -65l-123 16l152 148h71l152 -148zM540 101l21 -101h-476v680h455l20 -102h-346v-183h222l21 -103h-243v-191h326z" />
    <glyph glyph-name="Edieresis" unicode="&#xcb;" horiz-adv-x="581" 
d="M270 817c0 -18 -6 -33.167 -18 -45.5s-27 -18.5 -45 -18.5c-18.667 0 -34.334 6.16699 -47.001 18.5s-19 27.5 -19 45.5s6.33301 33.333 19 46s28.334 19 47.001 19c18 0 33 -6.33301 45 -19s18 -28 18 -46zM462 817c0 -18 -6.16699 -33.167 -18.5 -45.5
s-27.833 -18.5 -46.5 -18.5c-18 0 -33.333 6.16699 -46 18.5s-19 27.5 -19 45.5s6.5 33.333 19.5 46s28.167 19 45.5 19c18.667 0 34.167 -6.33301 46.5 -19s18.5 -28 18.5 -46zM540 101l21 -101h-476v680h455l20 -102h-346v-183h222l21 -103h-243v-191h326z" />
    <glyph glyph-name="Igrave" unicode="&#xcc;" horiz-adv-x="299" 
d="M201 764l-90 -25l-95 164h134zM214 680v-680h-129v680h129z" />
    <glyph glyph-name="Iacute" unicode="&#xcd;" horiz-adv-x="299" 
d="M266 903l-95 -164l-90 25l51 139h134zM214 680v-680h-129v680h129z" />
    <glyph glyph-name="Icircumflex" unicode="&#xce;" horiz-adv-x="299" 
d="M216 739l-66 65l-67 -65l-123 16l152 148h71l152 -148zM214 680v-680h-129v680h129z" />
    <glyph glyph-name="Idieresis" unicode="&#xcf;" horiz-adv-x="299" 
d="M120 817c0 -18 -6 -33.167 -18 -45.5s-27 -18.5 -45 -18.5c-18.667 0 -34.334 6.16699 -47.001 18.5s-19 27.5 -19 45.5s6.33301 33.333 19 46s28.334 19 47.001 19c18 0 33 -6.33301 45 -19s18 -28 18 -46zM312 817c0 -18 -6.16699 -33.167 -18.5 -45.5
s-27.833 -18.5 -46.5 -18.5c-18 0 -33.333 6.16699 -46 18.5s-19 27.5 -19 45.5s6.5 33.333 19.5 46s28.167 19 45.5 19c18.667 0 34.167 -6.33301 46.5 -19s18.5 -28 18.5 -46zM214 680v-680h-129v680h129z" />
    <glyph glyph-name="Eth" unicode="&#xd0;" horiz-adv-x="691" 
d="M656 344c0 -106 -27.333 -189.501 -82 -250.501s-131.667 -92.5 -231 -94.5l-258 1v291h-56l-11 101h67v288h258c68.667 0 126.5 -14.167 173.5 -42.5s82 -67.666 105 -117.999s34.5 -108.833 34.5 -175.5zM522 343.999c0 72.667 -14.332 128.5 -42.999 167.5
s-72.334 58.5 -131.001 58.5h-134v-178h72l9 -101h-81v-182h127c57.333 0 101.833 18.833 133.5 56.5s47.5 97.167 47.5 178.5z" />
    <glyph glyph-name="Ntilde" unicode="&#xd1;" horiz-adv-x="744" 
d="M425 835c7.33301 0 13.668 3.16797 19.001 9.50098s8 13.5 8 21.5h81c0 -42 -10.333 -72.667 -31 -92s-46 -29 -76 -29c-13.333 0 -23.833 1.66699 -31.5 5s-15.5 8 -23.5 14c-10 6 -18.167 10.333 -24.5 13s-15.166 4 -26.499 4c-7.33301 0 -13.833 -3.5 -19.5 -10.5
s-8.5 -13.833 -8.5 -20.5h-86c0 41.333 10.333 71.666 31 90.999s46 29 76 29c12.667 0 23.167 -1.5 31.5 -4.5s17.166 -7.5 26.499 -13.5c10 -6 18.667 -10.333 26 -13s16.666 -4 27.999 -4zM214.002 455.001v-455h-129v680h129l315 -454v454h130v-680h-130z" />
    <glyph glyph-name="Ograve" unicode="&#xd2;" horiz-adv-x="737" 
d="M417 764l-90 -25l-95 164h134zM35 337c0 68.667 13.8301 129.999 41.4971 183.999s66.834 96.333 117.501 127s108.667 46.667 174 48c68.667 0 128.334 -15.5 179.001 -46.5s89.167 -73.167 115.5 -126.5s39.5 -113 39.5 -179c0 -69.333 -14 -130.833 -42 -184.5
s-67.167 -95.667 -117.5 -126s-108.5 -46.166 -174.5 -47.499c-68.667 0 -128.167 15.5 -178.5 46.5s-88.666 73 -114.999 126s-39.5 112.5 -39.5 178.5zM369.997 585.999c-36 0 -69.167 -10.1689 -99.5 -30.502s-54.666 -49.333 -72.999 -87s-27.5 -81.167 -27.5 -130.5
c0 -47.333 8 -89.5 24 -126.5s38.833 -65.667 68.5 -86s64.5 -30.5 104.5 -30.5c37.333 0 71.166 9.16699 101.499 27.5s54.333 46.333 72 84s26.5 83.5 26.5 137.5c0 46.667 -8 88.334 -24 125.001s-39 65.334 -69 86.001s-64.667 31 -104 31z" />
    <glyph glyph-name="Oacute" unicode="&#xd3;" horiz-adv-x="737" 
d="M482 903l-95 -164l-90 25l51 139h134zM35 337c0 68.667 13.8301 129.999 41.4971 183.999s66.834 96.333 117.501 127s108.667 46.667 174 48c68.667 0 128.334 -15.5 179.001 -46.5s89.167 -73.167 115.5 -126.5s39.5 -113 39.5 -179c0 -69.333 -14 -130.833 -42 -184.5
s-67.167 -95.667 -117.5 -126s-108.5 -46.166 -174.5 -47.499c-68.667 0 -128.167 15.5 -178.5 46.5s-88.666 73 -114.999 126s-39.5 112.5 -39.5 178.5zM369.997 585.999c-36 0 -69.167 -10.1689 -99.5 -30.502s-54.666 -49.333 -72.999 -87s-27.5 -81.167 -27.5 -130.5
c0 -47.333 8 -89.5 24 -126.5s38.833 -65.667 68.5 -86s64.5 -30.5 104.5 -30.5c37.333 0 71.166 9.16699 101.499 27.5s54.333 46.333 72 84s26.5 83.5 26.5 137.5c0 46.667 -8 88.334 -24 125.001s-39 65.334 -69 86.001s-64.667 31 -104 31z" />
    <glyph glyph-name="Ocircumflex" unicode="&#xd4;" horiz-adv-x="737" 
d="M432 739l-66 65l-67 -65l-123 16l152 148h71l152 -148zM35 337c0 68.667 13.8301 129.999 41.4971 183.999s66.834 96.333 117.501 127s108.667 46.667 174 48c68.667 0 128.334 -15.5 179.001 -46.5s89.167 -73.167 115.5 -126.5s39.5 -113 39.5 -179
c0 -69.333 -14 -130.833 -42 -184.5s-67.167 -95.667 -117.5 -126s-108.5 -46.166 -174.5 -47.499c-68.667 0 -128.167 15.5 -178.5 46.5s-88.666 73 -114.999 126s-39.5 112.5 -39.5 178.5zM369.997 585.999c-36 0 -69.167 -10.1689 -99.5 -30.502
s-54.666 -49.333 -72.999 -87s-27.5 -81.167 -27.5 -130.5c0 -47.333 8 -89.5 24 -126.5s38.833 -65.667 68.5 -86s64.5 -30.5 104.5 -30.5c37.333 0 71.166 9.16699 101.499 27.5s54.333 46.333 72 84s26.5 83.5 26.5 137.5c0 46.667 -8 88.334 -24 125.001
s-39 65.334 -69 86.001s-64.667 31 -104 31z" />
    <glyph glyph-name="Otilde" unicode="&#xd5;" horiz-adv-x="737" 
d="M415 835c7.33301 0 13.668 3.16797 19.001 9.50098s8 13.5 8 21.5h81c0 -42 -10.333 -72.667 -31 -92s-46 -29 -76 -29c-13.333 0 -23.833 1.66699 -31.5 5s-15.5 8 -23.5 14c-10 6 -18.167 10.333 -24.5 13s-15.166 4 -26.499 4c-7.33301 0 -13.833 -3.5 -19.5 -10.5
s-8.5 -13.833 -8.5 -20.5h-86c0 41.333 10.333 71.666 31 90.999s46 29 76 29c12.667 0 23.167 -1.5 31.5 -4.5s17.166 -7.5 26.499 -13.5c10 -6 18.667 -10.333 26 -13s16.666 -4 27.999 -4zM35.002 337.001c0 68.667 13.8301 129.999 41.4971 183.999
s66.834 96.333 117.501 127s108.667 46.667 174 48c68.667 0 128.334 -15.5 179.001 -46.5s89.167 -73.167 115.5 -126.5s39.5 -113 39.5 -179c0 -69.333 -14 -130.833 -42 -184.5s-67.167 -95.667 -117.5 -126s-108.5 -46.166 -174.5 -47.499
c-68.667 0 -128.167 15.5 -178.5 46.5s-88.666 73 -114.999 126s-39.5 112.5 -39.5 178.5zM369.999 586c-36 0 -69.167 -10.1689 -99.5 -30.502s-54.666 -49.333 -72.999 -87s-27.5 -81.167 -27.5 -130.5c0 -47.333 8 -89.5 24 -126.5s38.833 -65.667 68.5 -86
s64.5 -30.5 104.5 -30.5c37.333 0 71.166 9.16699 101.499 27.5s54.333 46.333 72 84s26.5 83.5 26.5 137.5c0 46.667 -8 88.334 -24 125.001s-39 65.334 -69 86.001s-64.667 31 -104 31z" />
    <glyph glyph-name="Odieresis" unicode="&#xd6;" horiz-adv-x="737" 
d="M336 817c0 -18 -6 -33.167 -18 -45.5s-27 -18.5 -45 -18.5c-18.667 0 -34.334 6.16699 -47.001 18.5s-19 27.5 -19 45.5s6.33301 33.333 19 46s28.334 19 47.001 19c18 0 33 -6.33301 45 -19s18 -28 18 -46zM528 817c0 -18 -6.16699 -33.167 -18.5 -45.5
s-27.833 -18.5 -46.5 -18.5c-18 0 -33.333 6.16699 -46 18.5s-19 27.5 -19 45.5s6.5 33.333 19.5 46s28.167 19 45.5 19c18.667 0 34.167 -6.33301 46.5 -19s18.5 -28 18.5 -46zM35 337c0 68.667 13.8301 129.999 41.4971 183.999s66.834 96.333 117.501 127
s108.667 46.667 174 48c68.667 0 128.334 -15.5 179.001 -46.5s89.167 -73.167 115.5 -126.5s39.5 -113 39.5 -179c0 -69.333 -14 -130.833 -42 -184.5s-67.167 -95.667 -117.5 -126s-108.5 -46.166 -174.5 -47.499c-68.667 0 -128.167 15.5 -178.5 46.5
s-88.666 73 -114.999 126s-39.5 112.5 -39.5 178.5zM369.997 585.999c-36 0 -69.167 -10.1689 -99.5 -30.502s-54.666 -49.333 -72.999 -87s-27.5 -81.167 -27.5 -130.5c0 -47.333 8 -89.5 24 -126.5s38.833 -65.667 68.5 -86s64.5 -30.5 104.5 -30.5
c37.333 0 71.166 9.16699 101.499 27.5s54.333 46.333 72 84s26.5 83.5 26.5 137.5c0 46.667 -8 88.334 -24 125.001s-39 65.334 -69 86.001s-64.667 31 -104 31z" />
    <glyph glyph-name="multiply" unicode="&#xd7;" horiz-adv-x="569" 
d="M390 29l-107 137l-119 -137h-134l193 228l-177 227h133l107 -137l119 137h134l-193 -228l177 -227h-133z" />
    <glyph glyph-name="Oslash" unicode="&#xd8;" horiz-adv-x="737" 
d="M702 344c0 -69.333 -14.0029 -130.834 -42.0029 -184.501s-67.167 -95.667 -117.5 -126s-108.5 -46.166 -174.5 -47.499c-68.667 0 -128.167 15.5 -178.5 46.5s-88.666 73 -114.999 126s-39.5 112.5 -39.5 178.5c0 68.667 13.833 130 41.5 184s66.834 96.333 117.501 127
s108.667 46.667 174 48c68.667 0 128.334 -15.5 179.001 -46.5s89.167 -73.167 115.5 -126.5s39.5 -113 39.5 -179zM169.997 337.999c0 -37.333 4.99902 -71.668 14.999 -103.001s24.667 -57.666 44 -78.999l178 427c-12 2 -24.333 3 -37 3
c-36 0 -69.167 -10.167 -99.5 -30.5s-54.666 -49.333 -72.999 -87s-27.5 -81.167 -27.5 -130.5zM566.996 343.997c0 69.333 -16.667 126.333 -50 171l-176 -418c10.667 -1.33301 19.334 -2 26.001 -2c37.333 0 71.166 9.16699 101.499 27.5s54.333 46.333 72 84
s26.5 83.5 26.5 137.5z" />
    <glyph glyph-name="Ugrave" unicode="&#xd9;" horiz-adv-x="710" 
d="M404 764l-90 -25l-95 164h134zM75 680h131v-423c0 -54 13.5 -94.5 40.5 -121.5s63.167 -40.5 108.5 -40.5s81.5 13.833 108.5 41.5s40.5 67.834 40.5 120.501v423h131v-433c0 -49.333 -11.667 -93.5 -35 -132.5s-56.333 -69.667 -99 -92s-92 -33.5 -148 -33.5
c-55.333 0 -104 11.167 -146 33.5s-74.333 53.166 -97 92.499s-34 83.333 -34 132z" />
    <glyph glyph-name="Uacute" unicode="&#xda;" horiz-adv-x="710" 
d="M469 903l-95 -164l-90 25l51 139h134zM75 680h131v-423c0 -54 13.5 -94.5 40.5 -121.5s63.167 -40.5 108.5 -40.5s81.5 13.833 108.5 41.5s40.5 67.834 40.5 120.501v423h131v-433c0 -49.333 -11.667 -93.5 -35 -132.5s-56.333 -69.667 -99 -92s-92 -33.5 -148 -33.5
c-55.333 0 -104 11.167 -146 33.5s-74.333 53.166 -97 92.499s-34 83.333 -34 132z" />
    <glyph glyph-name="Ucircumflex" unicode="&#xdb;" horiz-adv-x="710" 
d="M419 739l-66 65l-67 -65l-123 16l152 148h71l152 -148zM75 680h131v-423c0 -54 13.5 -94.5 40.5 -121.5s63.167 -40.5 108.5 -40.5s81.5 13.833 108.5 41.5s40.5 67.834 40.5 120.501v423h131v-433c0 -49.333 -11.667 -93.5 -35 -132.5s-56.333 -69.667 -99 -92
s-92 -33.5 -148 -33.5c-55.333 0 -104 11.167 -146 33.5s-74.333 53.166 -97 92.499s-34 83.333 -34 132z" />
    <glyph glyph-name="Udieresis" unicode="&#xdc;" horiz-adv-x="710" 
d="M323 817c0 -18 -6 -33.167 -18 -45.5s-27 -18.5 -45 -18.5c-18.667 0 -34.334 6.16699 -47.001 18.5s-19 27.5 -19 45.5s6.33301 33.333 19 46s28.334 19 47.001 19c18 0 33 -6.33301 45 -19s18 -28 18 -46zM515 817c0 -18 -6.16699 -33.167 -18.5 -45.5
s-27.833 -18.5 -46.5 -18.5c-18 0 -33.333 6.16699 -46 18.5s-19 27.5 -19 45.5s6.5 33.333 19.5 46s28.167 19 45.5 19c18.667 0 34.167 -6.33301 46.5 -19s18.5 -28 18.5 -46zM75 680h131v-423c0 -54 13.5 -94.5 40.5 -121.5s63.167 -40.5 108.5 -40.5
s81.5 13.833 108.5 41.5s40.5 67.834 40.5 120.501v423h131v-433c0 -49.333 -11.667 -93.5 -35 -132.5s-56.333 -69.667 -99 -92s-92 -33.5 -148 -33.5c-55.333 0 -104 11.167 -146 33.5s-74.333 53.166 -97 92.499s-34 83.333 -34 132z" />
    <glyph glyph-name="Yacute" unicode="&#xdd;" horiz-adv-x="608" 
d="M410 903l-95 -164l-90 25l51 139h134zM362 260v-260h-130v265l-222 392l128 37l158 -298l165 284h137z" />
    <glyph glyph-name="Thorn" unicode="&#xde;" horiz-adv-x="607" 
d="M567 382c0 -49.333 -12.833 -91 -38.5 -125s-59.5 -59.167 -101.5 -75.5s-88 -24.5 -138 -24.5h-75v-157h-129v680h129v-80h84c80 0 144.833 -17.833 194.5 -53.5s74.5 -90.5 74.5 -164.5zM430 374c0 42 -11.5 72.167 -34.5 90.5s-56.833 27.5 -101.5 27.5h-80v-228h82
c40 0 71.667 9.16699 95 27.5s36.333 45.833 39 82.5z" />
    <glyph glyph-name="germandbls" unicode="&#xdf;" horiz-adv-x="626" 
d="M194 -230h-128.998v703c0 69.333 20.833 124.833 62.5 166.5s99.167 62.5 172.5 62.5c72.667 0 132 -16.833 178 -50.5s69 -81.5 69 -143.5c0 -26.667 -7.83301 -53.334 -23.5 -80.001s-34.834 -45.334 -57.501 -56.001c21.333 -5.33301 42 -16.5 62 -33.5
s36.333 -38 49 -63s19 -51.833 19 -80.5c0 -39.333 -10 -73.666 -30 -102.999s-48.333 -52 -85 -68s-79 -24 -127 -24h-100v107h91c31.333 0 58.166 8.83301 80.499 26.5s33.5 39.5 33.5 65.5c0 28 -10.333 51.667 -31 71s-45.334 29 -74.001 29h-94v104h35
c34.667 0 62.667 9.33301 84 28s32 41.334 32 68.001c0 27.333 -10.167 49.333 -30.5 66s-45.166 25 -74.499 25c-32.667 0 -59.5 -10.833 -80.5 -32.5s-31.5 -50.5 -31.5 -86.5v-701z" />
    <glyph glyph-name="agrave" unicode="&#xe0;" horiz-adv-x="503" 
d="M243 378c-22 0 -46.3301 -3.16895 -72.9971 -9.50195s-49.334 -13.833 -68.001 -22.5l-35 108c17.333 11.333 45 21.5 83 30.5s68.333 13.5 91 13.5c38.667 0 74 -7.66699 106 -23s57.5 -36.666 76.5 -63.999s28.5 -58 28.5 -92v-319h-85l-22 52
c-40.667 -42.667 -83.334 -64 -128.001 -64c-58 0 -101.667 14.167 -131 42.5s-44 66.5 -44 114.5c0 49.333 16.667 87.5 50 114.5s78 40.5 134 40.5h95c-0.666992 24.667 -7.83398 43.834 -21.501 57.501s-32.5 20.5 -56.5 20.5zM224.003 212.998
c-21.333 0 -38.501 -6.66602 -51.501 -19.999s-19.5 -29.333 -19.5 -48c0 -14.667 5.83301 -27.334 17.5 -38.001s26.5 -16 44.5 -16c38.667 0 74.334 16 107.001 48v74h-98zM326.002 613.999l-90 -25l-95 164h134z" />
    <glyph glyph-name="aacute" unicode="&#xe1;" horiz-adv-x="503" 
d="M243 378c-22 0 -46.3301 -3.16895 -72.9971 -9.50195s-49.334 -13.833 -68.001 -22.5l-35 108c17.333 11.333 45 21.5 83 30.5s68.333 13.5 91 13.5c38.667 0 74 -7.66699 106 -23s57.5 -36.666 76.5 -63.999s28.5 -58 28.5 -92v-319h-85l-22 52
c-40.667 -42.667 -83.334 -64 -128.001 -64c-58 0 -101.667 14.167 -131 42.5s-44 66.5 -44 114.5c0 49.333 16.667 87.5 50 114.5s78 40.5 134 40.5h95c-0.666992 24.667 -7.83398 43.834 -21.501 57.501s-32.5 20.5 -56.5 20.5zM224.003 212.998
c-21.333 0 -38.501 -6.66602 -51.501 -19.999s-19.5 -29.333 -19.5 -48c0 -14.667 5.83301 -27.334 17.5 -38.001s26.5 -16 44.5 -16c38.667 0 74.334 16 107.001 48v74h-98zM359.002 752.999l-95 -164l-90 25l51 139h134z" />
    <glyph glyph-name="acircumflex" unicode="&#xe2;" horiz-adv-x="503" 
d="M243 378c-22 0 -46.3301 -3.16895 -72.9971 -9.50195s-49.334 -13.833 -68.001 -22.5l-35 108c17.333 11.333 45 21.5 83 30.5s68.333 13.5 91 13.5c38.667 0 74 -7.66699 106 -23s57.5 -36.666 76.5 -63.999s28.5 -58 28.5 -92v-319h-85l-22 52
c-40.667 -42.667 -83.334 -64 -128.001 -64c-58 0 -101.667 14.167 -131 42.5s-44 66.5 -44 114.5c0 49.333 16.667 87.5 50 114.5s78 40.5 134 40.5h95c-0.666992 24.667 -7.83398 43.834 -21.501 57.501s-32.5 20.5 -56.5 20.5zM224.003 212.998
c-21.333 0 -38.501 -6.66602 -51.501 -19.999s-19.5 -29.333 -19.5 -48c0 -14.667 5.83301 -27.334 17.5 -38.001s26.5 -16 44.5 -16c38.667 0 74.334 16 107.001 48v74h-98zM316.002 588.999l-66 65l-67 -65l-123 16l152 148h71l152 -148z" />
    <glyph glyph-name="atilde" unicode="&#xe3;" horiz-adv-x="503" 
d="M243 378c-22 0 -46.3301 -3.16895 -72.9971 -9.50195s-49.334 -13.833 -68.001 -22.5l-35 108c17.333 11.333 45 21.5 83 30.5s68.333 13.5 91 13.5c38.667 0 74 -7.66699 106 -23s57.5 -36.666 76.5 -63.999s28.5 -58 28.5 -92v-319h-85l-22 52
c-40.667 -42.667 -83.334 -64 -128.001 -64c-58 0 -101.667 14.167 -131 42.5s-44 66.5 -44 114.5c0 49.333 16.667 87.5 50 114.5s78 40.5 134 40.5h95c-0.666992 24.667 -7.83398 43.834 -21.501 57.501s-32.5 20.5 -56.5 20.5zM224.003 212.998
c-21.333 0 -38.501 -6.66602 -51.501 -19.999s-19.5 -29.333 -19.5 -48c0 -14.667 5.83301 -27.334 17.5 -38.001s26.5 -16 44.5 -16c38.667 0 74.334 16 107.001 48v74h-98zM305.002 684.999c7.33301 0 13.668 3.16797 19.001 9.50098s8 13.5 8 21.5h81
c0 -42 -10.333 -72.667 -31 -92s-46 -29 -76 -29c-13.333 0 -23.833 1.66699 -31.5 5s-15.5 8 -23.5 14c-10 6 -18.167 10.333 -24.5 13s-15.166 4 -26.499 4c-7.33301 0 -13.833 -3.5 -19.5 -10.5s-8.5 -13.833 -8.5 -20.5h-86c0 41.333 10.333 71.666 31 90.999
s46 29 76 29c12.667 0 23.167 -1.5 31.5 -4.5s17.166 -7.5 26.499 -13.5c10 -6 18.667 -10.333 26 -13s16.666 -4 27.999 -4z" />
    <glyph glyph-name="adieresis" unicode="&#xe4;" horiz-adv-x="503" 
d="M243 378c-22 0 -46.3301 -3.16895 -72.9971 -9.50195s-49.334 -13.833 -68.001 -22.5l-35 108c17.333 11.333 45 21.5 83 30.5s68.333 13.5 91 13.5c38.667 0 74 -7.66699 106 -23s57.5 -36.666 76.5 -63.999s28.5 -58 28.5 -92v-319h-85l-22 52
c-40.667 -42.667 -83.334 -64 -128.001 -64c-58 0 -101.667 14.167 -131 42.5s-44 66.5 -44 114.5c0 49.333 16.667 87.5 50 114.5s78 40.5 134 40.5h95c-0.666992 24.667 -7.83398 43.834 -21.501 57.501s-32.5 20.5 -56.5 20.5zM224.003 212.998
c-21.333 0 -38.501 -6.66602 -51.501 -19.999s-19.5 -29.333 -19.5 -48c0 -14.667 5.83301 -27.334 17.5 -38.001s26.5 -16 44.5 -16c38.667 0 74.334 16 107.001 48v74h-98zM212.002 666.999c0 -18 -6 -33.167 -18 -45.5s-27 -18.5 -45 -18.5
c-18.667 0 -34.334 6.16699 -47.001 18.5s-19 27.5 -19 45.5s6.33301 33.333 19 46s28.334 19 47.001 19c18 0 33 -6.33301 45 -19s18 -28 18 -46zM404.002 666.999c0 -18 -6.16699 -33.167 -18.5 -45.5s-27.833 -18.5 -46.5 -18.5c-18 0 -33.333 6.16699 -46 18.5
s-19 27.5 -19 45.5s6.5 33.333 19.5 46s28.167 19 45.5 19c18.667 0 34.167 -6.33301 46.5 -19s18.5 -28 18.5 -46z" />
    <glyph glyph-name="aring" unicode="&#xe5;" horiz-adv-x="503" 
d="M243 378c-22 0 -46.3301 -3.16895 -72.9971 -9.50195s-49.334 -13.833 -68.001 -22.5l-35 108c17.333 11.333 45 21.5 83 30.5s68.333 13.5 91 13.5c38.667 0 74 -7.66699 106 -23s57.5 -36.666 76.5 -63.999s28.5 -58 28.5 -92v-319h-85l-22 52
c-40.667 -42.667 -83.334 -64 -128.001 -64c-58 0 -101.667 14.167 -131 42.5s-44 66.5 -44 114.5c0 49.333 16.667 87.5 50 114.5s78 40.5 134 40.5h95c-0.666992 24.667 -7.83398 43.834 -21.501 57.501s-32.5 20.5 -56.5 20.5zM224.003 212.998
c-21.333 0 -38.501 -6.66602 -51.501 -19.999s-19.5 -29.333 -19.5 -48c0 -14.667 5.83301 -27.334 17.5 -38.001s26.5 -16 44.5 -16c38.667 0 74.334 16 107.001 48v74h-98zM139.002 691.999c0 28 10.667 51.833 32 71.5s46.333 29.5 75 29.5s53.667 -9.83301 75 -29.5
s32 -43.5 32 -71.5s-10.5 -51.333 -31.5 -70s-46.167 -28 -75.5 -28s-54.5 9.33301 -75.5 28s-31.5 42 -31.5 70zM206.002 691.999c0 -10.667 4 -20 12 -28s17.333 -12 28 -12s19.834 4 27.501 12s11.5 17.333 11.5 28s-3.83301 19.834 -11.5 27.501
s-16.834 11.5 -27.501 11.5s-20 -3.83301 -28 -11.5s-12 -16.834 -12 -27.501z" />
    <glyph glyph-name="ae" unicode="&#xe6;" horiz-adv-x="813" 
d="M461 204c6.66699 -34 21.1709 -60.002 43.5039 -78.002s56.5 -27 102.5 -27c26.667 0 50.667 3.66699 72 11s44.333 18 69 32l38 -94c-24.667 -19.333 -51.334 -34.166 -80.001 -44.499s-62.667 -15.5 -102 -15.5c-96 0 -168.333 25 -217 75
c-23.333 -22.667 -47.833 -40.834 -73.5 -54.501s-57.834 -20.5 -96.501 -20.5c-58 0 -101.667 14.167 -131 42.5s-44 66.5 -44 114.5c0 49.333 16.667 87.5 50 114.5s78 40.5 134 40.5h95c-0.666992 24.667 -7.83398 43.834 -21.501 57.501s-32.5 20.5 -56.5 20.5
c-22 0 -46.333 -3.16699 -73 -9.5s-49.334 -13.833 -68.001 -22.5l-35 108c17.333 11.333 45 21.5 83 30.5s68.333 13.5 91 13.5c31.333 0 60.666 -5.16699 87.999 -15.5s51 -24.833 71 -43.5c42.667 39.333 98.334 59 167.001 59c48.667 0 89.667 -11.333 123 -34
s58 -53.167 74 -91.5s24 -81.166 24 -128.499v-40h-327zM564.004 386.998c-26.667 0 -49 -8.16797 -67 -24.501s-29.667 -40.166 -35 -71.499h203c-6.66699 32 -18.5 56 -35.5 72s-38.833 24 -65.5 24zM338.004 143.997c-7.33301 22 -11.999 45.001 -13.999 69.001h-100
c-21.333 0 -38.5 -6.66699 -51.5 -20s-19.5 -29.333 -19.5 -48c0 -14.667 5.83301 -27.334 17.5 -38.001s26.5 -16 44.5 -16c29.333 0 53.166 4.5 71.499 13.5s35.5 22.167 51.5 39.5z" />
    <glyph glyph-name="ccedilla" unicode="&#xe7;" horiz-adv-x="472" 
d="M312 -10l-7.99902 -19.001c20 -8 36.667 -20.5 50 -37.5s20 -34.167 20 -51.5c0 -33.333 -12.167 -58.833 -36.5 -76.5s-54.166 -26.5 -89.499 -26.5c-14 0 -30.833 2.66699 -50.5 8s-34.5 12 -44.5 20l30 76c9.33301 -4.66699 20.5 -9.16699 33.5 -13.5
s23.5 -6.5 31.5 -6.5c9.33301 0 17.333 1.33301 24 4s10 7 10 13c0 12 -8.5 21.833 -25.5 29.5s-37.833 12.834 -62.5 15.501l27 69c-60.667 11.333 -108.5 38.833 -143.5 82.5s-52.5 98.834 -52.5 165.501c0 51.333 10.5 96.333 31.5 135s51 68.5 90 89.5
s84.5 31.5 136.5 31.5c22.667 0 50.667 -4.66699 84 -14s61.333 -21.666 84 -36.999l-37 -93c-25.333 11.333 -48 19.666 -68 24.999s-40.667 8 -62 8c-36 0 -65.833 -13.667 -89.5 -41s-35.5 -62 -35.5 -104s11.667 -76.333 35 -103s53.333 -40 90 -40
c21.333 0 42 2.66699 62 8s42.667 13.666 68 24.999l37 -94c-16.667 -12.667 -37.834 -23.167 -63.501 -31.5s-50.834 -13.833 -75.501 -16.5z" />
    <glyph glyph-name="egrave" unicode="&#xe8;" horiz-adv-x="515" 
d="M269 498c48.667 0 89.667 -11.335 123 -34.002s58 -53.167 74 -91.5s24 -81.166 24 -128.499v-40h-327c6.66699 -34 21.167 -60 43.5 -78s56.5 -27 102.5 -27c26.667 0 50.667 3.66699 72 11s44.333 18 69 32l38 -94c-24.667 -19.333 -51.334 -34.166 -80.001 -44.499
s-62.667 -15.5 -102 -15.5c-92 0 -161.833 22.5 -209.5 67.5s-71.5 107.167 -71.5 186.5c0 51.333 9.83301 96.333 29.5 135s47.834 68.5 84.501 89.5s80 31.5 130 31.5zM266 386.998c-26.667 0 -49 -8.16797 -67 -24.501s-29.667 -40.166 -35 -71.499h203
c-6.66699 32 -18.5 56 -35.5 72s-38.833 24 -65.5 24zM338 613.997l-90 -25l-95 164h134z" />
    <glyph glyph-name="eacute" unicode="&#xe9;" horiz-adv-x="515" 
d="M269 498c48.667 0 89.667 -11.335 123 -34.002s58 -53.167 74 -91.5s24 -81.166 24 -128.499v-40h-327c6.66699 -34 21.167 -60 43.5 -78s56.5 -27 102.5 -27c26.667 0 50.667 3.66699 72 11s44.333 18 69 32l38 -94c-24.667 -19.333 -51.334 -34.166 -80.001 -44.499
s-62.667 -15.5 -102 -15.5c-92 0 -161.833 22.5 -209.5 67.5s-71.5 107.167 -71.5 186.5c0 51.333 9.83301 96.333 29.5 135s47.834 68.5 84.501 89.5s80 31.5 130 31.5zM266 386.998c-26.667 0 -49 -8.16797 -67 -24.501s-29.667 -40.166 -35 -71.499h203
c-6.66699 32 -18.5 56 -35.5 72s-38.833 24 -65.5 24zM371 752.997l-95 -164l-90 25l51 139h134z" />
    <glyph glyph-name="ecircumflex" unicode="&#xea;" horiz-adv-x="515" 
d="M269 498c48.667 0 89.667 -11.335 123 -34.002s58 -53.167 74 -91.5s24 -81.166 24 -128.499v-40h-327c6.66699 -34 21.167 -60 43.5 -78s56.5 -27 102.5 -27c26.667 0 50.667 3.66699 72 11s44.333 18 69 32l38 -94c-24.667 -19.333 -51.334 -34.166 -80.001 -44.499
s-62.667 -15.5 -102 -15.5c-92 0 -161.833 22.5 -209.5 67.5s-71.5 107.167 -71.5 186.5c0 51.333 9.83301 96.333 29.5 135s47.834 68.5 84.501 89.5s80 31.5 130 31.5zM266 386.998c-26.667 0 -49 -8.16797 -67 -24.501s-29.667 -40.166 -35 -71.499h203
c-6.66699 32 -18.5 56 -35.5 72s-38.833 24 -65.5 24zM328 588.997l-66 65l-67 -65l-123 16l152 148h71l152 -148z" />
    <glyph glyph-name="edieresis" unicode="&#xeb;" horiz-adv-x="515" 
d="M269 498c48.667 0 89.667 -11.335 123 -34.002s58 -53.167 74 -91.5s24 -81.166 24 -128.499v-40h-327c6.66699 -34 21.167 -60 43.5 -78s56.5 -27 102.5 -27c26.667 0 50.667 3.66699 72 11s44.333 18 69 32l38 -94c-24.667 -19.333 -51.334 -34.166 -80.001 -44.499
s-62.667 -15.5 -102 -15.5c-92 0 -161.833 22.5 -209.5 67.5s-71.5 107.167 -71.5 186.5c0 51.333 9.83301 96.333 29.5 135s47.834 68.5 84.501 89.5s80 31.5 130 31.5zM266 386.998c-26.667 0 -49 -8.16797 -67 -24.501s-29.667 -40.166 -35 -71.499h203
c-6.66699 32 -18.5 56 -35.5 72s-38.833 24 -65.5 24zM224 666.997c0 -18 -6 -33.167 -18 -45.5s-27 -18.5 -45 -18.5c-18.667 0 -34.334 6.16699 -47.001 18.5s-19 27.5 -19 45.5s6.33301 33.333 19 46s28.334 19 47.001 19c18 0 33 -6.33301 45 -19s18 -28 18 -46z
M416 666.997c0 -18 -6.16699 -33.167 -18.5 -45.5s-27.833 -18.5 -46.5 -18.5c-18 0 -33.333 6.16699 -46 18.5s-19 27.5 -19 45.5s6.5 33.333 19.5 46s28.167 19 45.5 19c18.667 0 34.167 -6.33301 46.5 -19s18.5 -28 18.5 -46z" />
    <glyph glyph-name="igrave" unicode="&#xec;" horiz-adv-x="240" 
d="M185 485v-485h-130v485h130zM194 614l-90 -25l-95 164h134z" />
    <glyph glyph-name="iacute" unicode="&#xed;" horiz-adv-x="240" 
d="M185 485v-485h-130v485h130zM224 753l-95 -164l-90 25l51 139h134z" />
    <glyph glyph-name="icircumflex" unicode="&#xee;" horiz-adv-x="240" 
d="M185 485v-485h-130v485h130zM184 589l-66 65l-67 -65l-123 16l152 148h71l152 -148z" />
    <glyph glyph-name="idieresis" unicode="&#xef;" horiz-adv-x="240" 
d="M185 485v-485h-130v485h130zM80 667c0 -18 -6 -33.167 -18 -45.5s-27 -18.5 -45 -18.5c-18.667 0 -34.334 6.16699 -47.001 18.5s-19 27.5 -19 45.5s6.33301 33.333 19 46s28.334 19 47.001 19c18 0 33 -6.33301 45 -19s18 -28 18 -46zM272 667
c0 -18 -6.16699 -33.167 -18.5 -45.5s-27.833 -18.5 -46.5 -18.5c-18 0 -33.333 6.16699 -46 18.5s-19 27.5 -19 45.5s6.5 33.333 19.5 46s28.167 19 45.5 19c18.667 0 34.167 -6.33301 46.5 -19s18.5 -28 18.5 -46z" />
    <glyph glyph-name="eth" unicode="&#xf0;" 
d="M543 270c0 -58 -10.667 -108.332 -32 -150.999s-51.5 -75.167 -90.5 -97.5s-84.5 -33.5 -136.5 -33.5s-97.5 10.333 -136.5 31s-69.167 50.167 -90.5 88.5s-32 83.166 -32 134.499c0 50.667 10.5 95.5 31.5 134.5s50.333 69 88 90s80.834 31.5 129.501 31.5
c6 0 15 -0.666992 27 -2c-18 20 -39.667 40 -65 60l-131 -71l-51 92l82 43c-18 10 -42 21.667 -72 35l50 94c49.333 -14 97.666 -35.333 144.999 -64l108 57l50 -89l-65 -35c58 -49.333 104.333 -104.5 139 -165.5s52 -121.833 52 -182.5zM409 244.001
c0 42.667 -7.66699 83.333 -23 122c-30 14 -64 21 -102 21c-36 0 -65.833 -13.667 -89.5 -41s-35.5 -62 -35.5 -104s11.667 -76.333 35 -103s53.333 -40 90 -40c36 0 65.833 13.667 89.5 41s35.5 62 35.5 104z" />
    <glyph glyph-name="ntilde" unicode="&#xf1;" horiz-adv-x="566" 
d="M315 393c-22.667 0 -44 -5.16797 -64 -15.501s-42 -24.166 -66 -41.499v-336h-130v485h85l22 -52c30 21.333 62 38 96 50s64.333 18 91 18c61.333 0 104.333 -17.333 129 -52s37 -83 37 -145v-304h-130v298c0 30 -6.16699 53.333 -18.5 70s-29.5 25 -51.5 25z
M346 684.999c7.33301 0 13.668 3.16797 19.001 9.50098s8 13.5 8 21.5h81c0 -42 -10.333 -72.667 -31 -92s-46 -29 -76 -29c-13.333 0 -23.833 1.66699 -31.5 5s-15.5 8 -23.5 14c-10 6 -18.167 10.333 -24.5 13s-15.166 4 -26.499 4c-7.33301 0 -13.833 -3.5 -19.5 -10.5
s-8.5 -13.833 -8.5 -20.5h-86c0 41.333 10.333 71.666 31 90.999s46 29 76 29c12.667 0 23.167 -1.5 31.5 -4.5s17.166 -7.5 26.499 -13.5c10 -6 18.667 -10.333 26 -13s16.666 -4 27.999 -4z" />
    <glyph glyph-name="ograve" unicode="&#xf2;" 
d="M284 -12c-52 0 -97.5 10.333 -136.5 31s-69.167 50.167 -90.5 88.5s-32 83.166 -32 134.499s10.667 96.333 32 135s51.5 68.5 90.5 89.5s84.5 31.5 136.5 31.5s97.5 -10.333 136.5 -31s69.167 -50.167 90.5 -88.5s32 -83.166 32 -134.499s-10.667 -96.333 -32 -135
s-51.5 -68.5 -90.5 -89.5s-84.5 -31.5 -136.5 -31.5zM409 244c0 42 -11.667 76.333 -35 103s-53.333 40 -90 40c-36 0 -65.833 -13.667 -89.5 -41s-35.5 -62 -35.5 -104s11.667 -76.333 35 -103s53.333 -40 90 -40c36 0 65.833 13.667 89.5 41s35.5 62 35.5 104zM354 614
l-90 -25l-95 164h134z" />
    <glyph glyph-name="oacute" unicode="&#xf3;" 
d="M284 -12c-52 0 -97.5 10.333 -136.5 31s-69.167 50.167 -90.5 88.5s-32 83.166 -32 134.499s10.667 96.333 32 135s51.5 68.5 90.5 89.5s84.5 31.5 136.5 31.5s97.5 -10.333 136.5 -31s69.167 -50.167 90.5 -88.5s32 -83.166 32 -134.499s-10.667 -96.333 -32 -135
s-51.5 -68.5 -90.5 -89.5s-84.5 -31.5 -136.5 -31.5zM409 244c0 42 -11.667 76.333 -35 103s-53.333 40 -90 40c-36 0 -65.833 -13.667 -89.5 -41s-35.5 -62 -35.5 -104s11.667 -76.333 35 -103s53.333 -40 90 -40c36 0 65.833 13.667 89.5 41s35.5 62 35.5 104zM387 753
l-95 -164l-90 25l51 139h134z" />
    <glyph glyph-name="ocircumflex" unicode="&#xf4;" 
d="M284 -12c-52 0 -97.5 10.333 -136.5 31s-69.167 50.167 -90.5 88.5s-32 83.166 -32 134.499s10.667 96.333 32 135s51.5 68.5 90.5 89.5s84.5 31.5 136.5 31.5s97.5 -10.333 136.5 -31s69.167 -50.167 90.5 -88.5s32 -83.166 32 -134.499s-10.667 -96.333 -32 -135
s-51.5 -68.5 -90.5 -89.5s-84.5 -31.5 -136.5 -31.5zM409 244c0 42 -11.667 76.333 -35 103s-53.333 40 -90 40c-36 0 -65.833 -13.667 -89.5 -41s-35.5 -62 -35.5 -104s11.667 -76.333 35 -103s53.333 -40 90 -40c36 0 65.833 13.667 89.5 41s35.5 62 35.5 104zM344 589
l-66 65l-67 -65l-123 16l152 148h71l152 -148z" />
    <glyph glyph-name="otilde" unicode="&#xf5;" 
d="M284 -12c-52 0 -97.5 10.333 -136.5 31s-69.167 50.167 -90.5 88.5s-32 83.166 -32 134.499s10.667 96.333 32 135s51.5 68.5 90.5 89.5s84.5 31.5 136.5 31.5s97.5 -10.333 136.5 -31s69.167 -50.167 90.5 -88.5s32 -83.166 32 -134.499s-10.667 -96.333 -32 -135
s-51.5 -68.5 -90.5 -89.5s-84.5 -31.5 -136.5 -31.5zM409 244c0 42 -11.667 76.333 -35 103s-53.333 40 -90 40c-36 0 -65.833 -13.667 -89.5 -41s-35.5 -62 -35.5 -104s11.667 -76.333 35 -103s53.333 -40 90 -40c36 0 65.833 13.667 89.5 41s35.5 62 35.5 104zM333 685
c7.33301 0 13.668 3.16797 19.001 9.50098s8 13.5 8 21.5h81c0 -42 -10.333 -72.667 -31 -92s-46 -29 -76 -29c-13.333 0 -23.833 1.66699 -31.5 5s-15.5 8 -23.5 14c-10 6 -18.167 10.333 -24.5 13s-15.166 4 -26.499 4c-7.33301 0 -13.833 -3.5 -19.5 -10.5
s-8.5 -13.833 -8.5 -20.5h-86c0 41.333 10.333 71.666 31 90.999s46 29 76 29c12.667 0 23.167 -1.5 31.5 -4.5s17.166 -7.5 26.499 -13.5c10 -6 18.667 -10.333 26 -13s16.666 -4 27.999 -4z" />
    <glyph glyph-name="odieresis" unicode="&#xf6;" 
d="M284 -12c-52 0 -97.5 10.333 -136.5 31s-69.167 50.167 -90.5 88.5s-32 83.166 -32 134.499s10.667 96.333 32 135s51.5 68.5 90.5 89.5s84.5 31.5 136.5 31.5s97.5 -10.333 136.5 -31s69.167 -50.167 90.5 -88.5s32 -83.166 32 -134.499s-10.667 -96.333 -32 -135
s-51.5 -68.5 -90.5 -89.5s-84.5 -31.5 -136.5 -31.5zM409 244c0 42 -11.667 76.333 -35 103s-53.333 40 -90 40c-36 0 -65.833 -13.667 -89.5 -41s-35.5 -62 -35.5 -104s11.667 -76.333 35 -103s53.333 -40 90 -40c36 0 65.833 13.667 89.5 41s35.5 62 35.5 104zM240 667
c0 -18 -6 -33.167 -18 -45.5s-27 -18.5 -45 -18.5c-18.667 0 -34.334 6.16699 -47.001 18.5s-19 27.5 -19 45.5s6.33301 33.333 19 46s28.334 19 47.001 19c18 0 33 -6.33301 45 -19s18 -28 18 -46zM432 667c0 -18 -6.16699 -33.167 -18.5 -45.5s-27.833 -18.5 -46.5 -18.5
c-18 0 -33.333 6.16699 -46 18.5s-19 27.5 -19 45.5s6.5 33.333 19.5 46s28.167 19 45.5 19c18.667 0 34.167 -6.33301 46.5 -19s18.5 -28 18.5 -46z" />
    <glyph glyph-name="divide" unicode="&#xf7;" horiz-adv-x="509" 
d="M331 436c0 -20.667 -7.66699 -38.5 -23 -53.5s-33.666 -22.5 -54.999 -22.5s-39.5 7.5 -54.5 22.5s-22.5 32.833 -22.5 53.5c0 22 7.5 40.5 22.5 55.5s33.167 22.5 54.5 22.5s39.666 -7.5 54.999 -22.5s23 -33.5 23 -55.5zM30 325h438l11 -102h-440zM331 101
c0 -20.667 -7.66699 -38.667 -23 -54s-33.666 -23 -54.999 -23s-39.5 7.66699 -54.5 23s-22.5 33.333 -22.5 54c0 22 7.5 40.5 22.5 55.5s33.167 22.5 54.5 22.5s39.666 -7.5 54.999 -22.5s23 -33.5 23 -55.5z" />
    <glyph glyph-name="oslash" unicode="&#xf8;" 
d="M543 244c0 -51.333 -10.667 -96.333 -32 -135s-51.5 -68.5 -90.5 -89.5s-84.5 -31.5 -136.5 -31.5s-97.5 10.333 -136.5 31s-69.167 50.167 -90.5 88.5s-32 83.166 -32 134.499s10.667 96.333 32 135s51.5 68.5 90.5 89.5s84.5 31.5 136.5 31.5s97.5 -10.333 136.5 -31
s69.167 -50.167 90.5 -88.5s32 -83.166 32 -134.499zM159 242c0 -31.333 6.66699 -58.667 20 -82l128 225c-9.33301 1.33301 -17 2 -23 2c-36 0 -65.833 -13.667 -89.5 -41s-35.5 -62 -35.5 -104zM409 243.999c0 27.333 -5.33301 52.333 -16 75l-130 -218
c9.33301 -1.33301 16.333 -2 21 -2c36 0 65.833 13.667 89.5 41s35.5 62 35.5 104z" />
    <glyph glyph-name="ugrave" unicode="&#xf9;" horiz-adv-x="566" 
d="M251 92c22.667 0 44 5.16797 64 15.501s42 24.166 66 41.499v336h130v-485h-85l-22 52c-30 -21.333 -62 -38 -96 -50s-64.333 -18 -91 -18c-61.333 0 -104.333 17.333 -129 52s-37 83 -37 145v304h130v-298c0 -30 6.16699 -53.333 18.5 -70s29.5 -25 51.5 -25z
M358 614.001l-90 -25l-95 164h134z" />
    <glyph glyph-name="uacute" unicode="&#xfa;" horiz-adv-x="566" 
d="M251 92c22.667 0 44 5.16797 64 15.501s42 24.166 66 41.499v336h130v-485h-85l-22 52c-30 -21.333 -62 -38 -96 -50s-64.333 -18 -91 -18c-61.333 0 -104.333 17.333 -129 52s-37 83 -37 145v304h130v-298c0 -30 6.16699 -53.333 18.5 -70s29.5 -25 51.5 -25z
M391 753.001l-95 -164l-90 25l51 139h134z" />
    <glyph glyph-name="ucircumflex" unicode="&#xfb;" horiz-adv-x="566" 
d="M251 92c22.667 0 44 5.16797 64 15.501s42 24.166 66 41.499v336h130v-485h-85l-22 52c-30 -21.333 -62 -38 -96 -50s-64.333 -18 -91 -18c-61.333 0 -104.333 17.333 -129 52s-37 83 -37 145v304h130v-298c0 -30 6.16699 -53.333 18.5 -70s29.5 -25 51.5 -25z
M348 589.001l-66 65l-67 -65l-123 16l152 148h71l152 -148z" />
    <glyph glyph-name="udieresis" unicode="&#xfc;" horiz-adv-x="566" 
d="M251 92c22.667 0 44 5.16797 64 15.501s42 24.166 66 41.499v336h130v-485h-85l-22 52c-30 -21.333 -62 -38 -96 -50s-64.333 -18 -91 -18c-61.333 0 -104.333 17.333 -129 52s-37 83 -37 145v304h130v-298c0 -30 6.16699 -53.333 18.5 -70s29.5 -25 51.5 -25z
M244 667.001c0 -18 -6 -33.167 -18 -45.5s-27 -18.5 -45 -18.5c-18.667 0 -34.334 6.16699 -47.001 18.5s-19 27.5 -19 45.5s6.33301 33.333 19 46s28.334 19 47.001 19c18 0 33 -6.33301 45 -19s18 -28 18 -46zM436 667.001c0 -18 -6.16699 -33.167 -18.5 -45.5
s-27.833 -18.5 -46.5 -18.5c-18 0 -33.333 6.16699 -46 18.5s-19 27.5 -19 45.5s6.5 33.333 19.5 46s28.167 19 45.5 19c18.667 0 34.167 -6.33301 46.5 -19s18.5 -28 18.5 -46z" />
    <glyph glyph-name="yacute" unicode="&#xfd;" horiz-adv-x="503" 
d="M492 485l-190 -483v-232h-113v230l-179 465l127 38l112 -312l106 294h137zM351 754l-95 -164l-90 25l51 139h134z" />
    <glyph glyph-name="thorn" unicode="&#xfe;" horiz-adv-x="550" 
d="M525 244c0 -50.667 -9.83398 -95.333 -29.501 -134s-48.167 -68.667 -85.5 -90s-81.666 -32 -132.999 -32c-25.333 0 -54.333 8.66699 -87 26v-223l-129 -10v914l129 11v-232c32 16 62.333 24 91 24c75.333 0 134.833 -22.833 178.5 -68.5s65.5 -107.5 65.5 -185.5z
M390.999 244.001c0 42.667 -10.167 77.167 -30.5 103.5s-48.5 39.5 -84.5 39.5c-28 0 -56.667 -9.66699 -86 -29v-231c27.333 -18.667 56 -28 86 -28c35.333 0 63.333 13.5 84 40.5s31 61.833 31 104.5z" />
    <glyph glyph-name="ydieresis" unicode="&#xff;" horiz-adv-x="503" 
d="M492 485l-190 -483v-232h-113v230l-179 465l127 38l112 -312l106 294h137zM204 668c0 -18 -6 -33.167 -18 -45.5s-27 -18.5 -45 -18.5c-18.667 0 -34.334 6.16699 -47.001 18.5s-19 27.5 -19 45.5s6.33301 33.333 19 46s28.334 19 47.001 19c18 0 33 -6.33301 45 -19
s18 -28 18 -46zM396 668c0 -18 -6.16699 -33.167 -18.5 -45.5s-27.833 -18.5 -46.5 -18.5c-18 0 -33.333 6.16699 -46 18.5s-19 27.5 -19 45.5s6.5 33.333 19.5 46s28.167 19 45.5 19c18.667 0 34.167 -6.33301 46.5 -19s18.5 -28 18.5 -46z" />
    <glyph glyph-name="dotlessi" unicode="&#x131;" horiz-adv-x="240" 
d="M185 485v-485h-130v485h130z" />
    <glyph glyph-name="Lslash" unicode="&#x141;" horiz-adv-x="556" 
d="M54 185l-49 91l80 60v344h129v-246l106 80l50 -91l-156 -117v-205h300l20 -101h-449v208z" />
    <glyph glyph-name="lslash" unicode="&#x142;" horiz-adv-x="366" 
d="M248 484l67 51l51 -90l-118 -89v-356h-129v257l-69 -51l-50 90l119 90v309l129 11v-222z" />
    <glyph glyph-name="OE" unicode="&#x152;" horiz-adv-x="986" 
d="M490 7c-47.333 -14 -91.3311 -21 -131.998 -21c-68.667 0 -127.334 15.333 -176.001 46s-85.334 72.5 -110.001 125.5s-37 112.833 -37 179.5c0 69.333 13.5 131 40.5 185s65.333 96.167 115 126.5s107.167 45.5 172.5 45.5c16.667 0 36.5 -1.83301 59.5 -5.5
s45.5 -9.16699 67.5 -16.5v8h406l20 -102h-297v-183h222l21 -103h-243v-191h326l21 -101h-476v7zM490.002 122l0.00195312 439.001c-31.333 9.33301 -55 15.666 -71 18.999s-36 5 -60 5c-36 0 -68.333 -10 -97 -30s-51.167 -48.667 -67.5 -86s-24.5 -81 -24.5 -131
c0 -44.667 7.16699 -85.5 21.5 -122.5s35.166 -66.333 62.499 -88s59.666 -32.5 96.999 -32.5c46 0 92.333 9 139 27z" />
    <glyph glyph-name="oe" unicode="&#x153;" horiz-adv-x="842" 
d="M490 204c6.66699 -34 21.167 -60.002 43.5 -78.002s56.5 -27 102.5 -27c26.667 0 50.667 3.66699 72 11s44.333 18 69 32l38 -94c-24.667 -19.333 -51.334 -34.166 -80.001 -44.499s-62.667 -15.5 -102 -15.5c-76 0 -137.667 16 -185 48
c-20.667 -15.333 -47.334 -27.166 -80.001 -35.499s-61 -12.5 -85 -12.5c-52 0 -97.5 10.333 -136.5 31s-69 50.167 -90 88.5s-31.5 83.166 -31.5 134.499s10.5 96.333 31.5 135s51 68.5 90 89.5s84.5 31.5 136.5 31.5c21.333 0 47.833 -4.16699 79.5 -12.5
s58.834 -19.5 81.501 -33.5c40.667 30.667 91.334 46 152.001 46c48.667 0 89.667 -11.333 123 -34s58 -53.167 74 -91.5s24 -81.166 24 -128.499v-40h-327zM284 98.998c30.667 0 62 5.99902 94 17.999c-17.333 36.667 -26 78.334 -26 125.001c0 48 8.66699 90.333 26 127
c-32 12 -63.333 18 -94 18c-36 0 -65.833 -13.667 -89.5 -41s-35.5 -62 -35.5 -104s11.667 -76.333 35 -103s53.333 -40 90 -40zM593 386.997c-26.667 0 -49 -8.16797 -67 -24.501s-29.667 -40.166 -35 -71.499h203c-6.66699 32 -18.5 56 -35.5 72s-38.833 24 -65.5 24z" />
    <glyph glyph-name="Scaron" unicode="&#x160;" horiz-adv-x="527" 
d="M206 903l67 -65l66 65l119 -16l-152 -148h-71l-152 148zM248 -13c-28 0 -62.833 6.16699 -104.5 18.5s-73.834 25.5 -96.501 39.5l29 105c24.667 -12.667 52.667 -23.834 84 -33.501s60 -14.5 86 -14.5c40 0 70.333 6.33301 91 19s31 31 31 55
c0 16.667 -8.16699 31.834 -24.5 45.501s-41.5 29.834 -75.5 48.501l-30 18c-44.667 26.667 -80.167 49.667 -106.5 69s-49 42.166 -68 68.499s-28.5 55.833 -28.5 88.5c0 34.667 9.33301 65.834 28 93.501s45.5 49.334 80.5 65.001s76.833 23.5 125.5 23.5
c57.333 0 121.333 -17 192 -51l-43 -104c-27.333 13.333 -52.166 23.666 -74.499 30.999s-46.5 11 -72.5 11c-30 0 -54.5 -5.83301 -73.5 -17.5s-28.5 -28.834 -28.5 -51.501c0 -19.333 7.5 -35.5 22.5 -48.5s39.5 -29.5 73.5 -49.5l32 -18l29 -17
c39.333 -22.667 70.666 -42.5 93.999 -59.5s42.833 -37.667 58.5 -62s23.5 -52.833 23.5 -85.5c0 -36.667 -9.83301 -69 -29.5 -97s-48.667 -50 -87 -66s-84.166 -24 -137.499 -24z" />
    <glyph glyph-name="scaron" unicode="&#x161;" horiz-adv-x="422" 
d="M195 -12c-24.667 0 -53.667 4.33398 -87 13.001s-60.333 21 -81 37l39 88c49.333 -22 91.666 -33 126.999 -33c20 0 38.333 3.66699 55 11s25 17.666 25 30.999c0 26 -28.333 47.667 -85 65c-46 15.333 -84.333 35 -115 59s-46 54.333 -46 91c0 46 17 82.167 51 108.5
s80 39.5 138 39.5c22.667 0 50.334 -4.66699 83.001 -14s60.334 -21.666 83.001 -36.999l-39 -87c-25.333 11.333 -47.833 19.666 -67.5 24.999s-40.167 8 -61.5 8c-16.667 0 -30.5 -4.16699 -41.5 -12.5s-16.5 -18.166 -16.5 -29.499c0 -8.66699 6.5 -16.5 19.5 -23.5
s31.833 -14.833 56.5 -23.5c47.333 -17.333 86.666 -39.333 117.999 -66s47 -59.334 47 -98.001c0 -48.667 -17.333 -86.167 -52 -112.5s-84.667 -39.5 -150 -39.5zM153 753.001l67 -65l66 65l119 -16l-152 -148h-71l-152 148z" />
    <glyph glyph-name="Ydieresis" unicode="&#x178;" horiz-adv-x="608" 
d="M264 817c0 -18 -6 -33.167 -18 -45.5s-27 -18.5 -45 -18.5c-18.667 0 -34.334 6.16699 -47.001 18.5s-19 27.5 -19 45.5s6.33301 33.333 19 46s28.334 19 47.001 19c18 0 33 -6.33301 45 -19s18 -28 18 -46zM456 817c0 -18 -6.16699 -33.167 -18.5 -45.5
s-27.833 -18.5 -46.5 -18.5c-18 0 -33.333 6.16699 -46 18.5s-19 27.5 -19 45.5s6.5 33.333 19.5 46s28.167 19 45.5 19c18.667 0 34.167 -6.33301 46.5 -19s18.5 -28 18.5 -46zM362 260v-260h-130v265l-222 392l128 37l158 -298l165 284h137z" />
    <glyph glyph-name="Zcaron" unicode="&#x17d;" horiz-adv-x="577" 
d="M217 903l67 -65l66 65l119 -16l-152 -148h-71l-152 148zM155 101h392l15 -101h-532l-15 101l388 477h-344l-15 102h495l15 -102z" />
    <glyph glyph-name="zcaron" unicode="&#x17e;" horiz-adv-x="443" 
d="M25 485h388l7 -74l-244 -306h244l10 -105h-400l-17 69l241 309h-204zM150 753l67 -65l66 65l119 -16l-152 -148h-71l-152 148z" />
    <glyph glyph-name="florin" unicode="&#x192;" horiz-adv-x="442" 
d="M81 384v100h75v37c0 56.667 16.667 101 50 133s79.666 48 138.999 48c15.333 0 32.666 -3 51.999 -9s34.333 -13.333 45 -22l-37 -94c-21.333 8.66699 -39.333 13 -54 13c-22 0 -38.333 -7.83301 -49 -23.5s-16 -36.834 -16 -63.501v-19h92l41 -100h-133v-326
c0 -56.667 -16.667 -101 -50 -133s-79.666 -48 -138.999 -48c-15.333 0 -32.666 3 -51.999 9s-34.333 13.333 -45 22l37 94c22 -8.66699 40 -13 54 -13c22 0 38.333 7.83301 49 23.5s16 36.834 16 63.501v308h-75z" />
    <glyph glyph-name="circumflex" unicode="&#x2c6;" horiz-adv-x="395" 
d="M266 589l-66 65l-67 -65l-123 16l152 148h71l152 -148z" />
    <glyph glyph-name="caron" unicode="&#x2c7;" horiz-adv-x="395" 
d="M133 753l67 -65l66 65l119 -16l-152 -148h-71l-152 148z" />
    <glyph glyph-name="breve" unicode="&#x2d8;" horiz-adv-x="314" 
d="M157 682c20 0 34.998 7 44.998 21s15 30.667 15 50h87c0 -45.333 -12.667 -83.833 -38 -115.5s-61.666 -47.834 -108.999 -48.501c-47.333 0.666992 -83.666 16.834 -108.999 48.501s-38 70.167 -38 115.5h89c0 -20 4.66699 -36.833 14 -50.5s24 -20.5 44 -20.5z" />
    <glyph glyph-name="dotaccent" unicode="&#x2d9;" horiz-adv-x="166" 
d="M156 667c0 -20.667 -6.83301 -38 -20.5 -52s-30.834 -21 -51.501 -21s-38.167 7 -52.5 21s-21.5 31.333 -21.5 52s7.16699 38.167 21.5 52.5s31.833 21.5 52.5 21.5s37.834 -7.16699 51.501 -21.5s20.5 -31.833 20.5 -52.5z" />
    <glyph glyph-name="ring" unicode="&#x2da;" horiz-adv-x="234" 
d="M10 692c0 28 10.667 51.833 32 71.5s46.333 29.5 75 29.5s53.667 -9.83301 75 -29.5s32 -43.5 32 -71.5s-10.5 -51.333 -31.5 -70s-46.167 -28 -75.5 -28s-54.5 9.33301 -75.5 28s-31.5 42 -31.5 70zM77 692c0 -10.667 4 -20 12 -28s17.333 -12 28 -12
s19.834 4 27.501 12s11.5 17.333 11.5 28s-3.83301 19.834 -11.5 27.501s-16.834 11.5 -27.501 11.5s-20 -3.83301 -28 -11.5s-12 -16.834 -12 -27.501z" />
    <glyph glyph-name="ogonek" unicode="&#x2db;" horiz-adv-x="238" 
d="M10 -94c0 14 4.16602 31.332 12.499 51.999s16.833 36.334 25.5 47.001h115c-10 -9.33301 -19.833 -23 -29.5 -41s-14.5 -33.667 -14.5 -47c0 -8 2.66699 -14.667 8 -20s13 -8 23 -8c4.66699 0 10.834 1.5 18.501 4.5s15.167 7.16699 22.5 12.5l37 -80
c-29.333 -22 -63.333 -33 -102 -33c-34 0 -61.833 11 -83.5 33s-32.5 48.667 -32.5 80z" />
    <glyph glyph-name="tilde" unicode="&#x2dc;" horiz-adv-x="347" 
d="M229 685c7.33301 0 13.668 3.16797 19.001 9.50098s8 13.5 8 21.5h81c0 -42 -10.333 -72.667 -31 -92s-46 -29 -76 -29c-13.333 0 -23.833 1.66699 -31.5 5s-15.5 8 -23.5 14c-10 6 -18.167 10.333 -24.5 13s-15.166 4 -26.499 4c-7.33301 0 -13.833 -3.5 -19.5 -10.5
s-8.5 -13.833 -8.5 -20.5h-86c0 41.333 10.333 71.666 31 90.999s46 29 76 29c12.667 0 23.167 -1.5 31.5 -4.5s17.166 -7.5 26.499 -13.5c10 -6 18.667 -10.333 26 -13s16.666 -4 27.999 -4z" />
    <glyph glyph-name="hungarumlaut" unicode="&#x2dd;" horiz-adv-x="405" 
d="M195 753l-95 -164l-90 25l51 139h134zM395 753l-95 -164l-90 25l51 139h134z" />
    <glyph glyph-name="endash" unicode="&#x2013;" horiz-adv-x="442" 
d="M30 325h372l10 -102h-371z" />
    <glyph glyph-name="emdash" unicode="&#x2014;" horiz-adv-x="549" 
d="M30 325h480l9 -102h-478z" />
    <glyph glyph-name="quoteleft" unicode="&#x2018;" horiz-adv-x="211" 
d="M168 517c0 -18 -7.16504 -34.833 -21.498 -50.5s-31.5 -23.5 -51.5 -23.5c-20.667 0 -38.334 8.5 -53.001 25.5s-22 38.5 -22 64.5c0 38 12.667 77.333 38 118s56.666 71 93.999 91l29 -60c-21.333 -18 -37 -33 -47 -45s-17 -28 -21 -48c12 0 24.167 -7.5 36.5 -22.5
s18.5 -31.5 18.5 -49.5z" />
    <glyph glyph-name="quoteright" unicode="&#x2019;" horiz-adv-x="210" 
d="M31 668c0 18 7.16699 34.832 21.5 50.499s31.5 23.5 51.5 23.5c21.333 0 39.333 -8.33301 54 -25s22 -38 22 -64c0 -38 -12.5 -77.167 -37.5 -117.5s-56.5 -71.166 -94.5 -92.499l-28 61c21.333 18.667 36.833 34 46.5 46s16.5 27.667 20.5 47
c-12 0 -24.333 7.5 -37 22.5s-19 31.167 -19 48.5z" />
    <glyph glyph-name="quotesinglbase" unicode="&#x201a;" horiz-adv-x="210" 
d="M31 72c0 18.667 7.16602 35.6699 21.499 51.0029s31.5 23 51.5 23c20.667 0 38.5 -8.5 53.5 -25.5s22.5 -38.5 22.5 -64.5c0 -37.333 -12.667 -76.333 -38 -117s-56.666 -71.667 -93.999 -93l-28 62c21.333 19.333 36.833 34.666 46.5 45.999s16.5 26.666 20.5 45.999
c-12 0 -24.333 7.66699 -37 23s-19 31.666 -19 48.999z" />
    <glyph glyph-name="quotedblleft" unicode="&#x201c;" horiz-adv-x="396" 
d="M178 517c0 -18 -7.16504 -34.833 -21.498 -50.5s-31.5 -23.5 -51.5 -23.5c-20.667 0 -38.334 8.5 -53.001 25.5s-22 38.5 -22 64.5c0 38 12.667 77.333 38 118s56.666 71 93.999 91l29 -60c-21.333 -18 -37 -33 -47 -45s-17 -28 -21 -48c12 0 24.167 -7.5 36.5 -22.5
s18.5 -31.5 18.5 -49.5zM364.002 517c0 -18 -7.33203 -34.834 -21.999 -50.501s-32 -23.5 -52 -23.5c-20.667 0 -38.334 8.5 -53.001 25.5s-22 38.5 -22 64.5c0 38 12.5 77.333 37.5 118s56.167 71 93.5 91l30 -60c-21.333 -18 -37 -33 -47 -45s-17 -28 -21 -48
c7.33301 0 15.333 -3.5 24 -10.5s16.167 -16.167 22.5 -27.5s9.5 -22.666 9.5 -33.999z" />
    <glyph glyph-name="quotedblright" unicode="&#x201d;" horiz-adv-x="394" 
d="M31 668c0 18 7.16699 34.832 21.5 50.499s31.5 23.5 51.5 23.5c21.333 0 39.333 -8.33301 54 -25s22 -38 22 -64c0 -38 -12.5 -77.167 -37.5 -117.5s-56.5 -71.166 -94.5 -92.499l-28 61c21.333 18.667 36.833 34 46.5 46s16.5 27.667 20.5 47
c-12 0 -24.333 7.5 -37 22.5s-19 31.167 -19 48.5zM216 667.999c0 18 7.33301 34.832 22 50.499s32 23.5 52 23.5c20.667 0 38.167 -8.33301 52.5 -25s21.5 -38 21.5 -64c0 -38 -12.5 -77.167 -37.5 -117.5s-56.167 -71.166 -93.5 -92.499l-29 61
c22 19.333 37.833 34.833 47.5 46.5s16.5 27.167 20.5 46.5c-12.667 0 -25.167 7.5 -37.5 22.5s-18.5 31.167 -18.5 48.5z" />
    <glyph glyph-name="quotedblbase" unicode="&#x201e;" horiz-adv-x="394" 
d="M31 72c0 18.667 7.16602 35.6699 21.499 51.0029s31.5 23 51.5 23c20.667 0 38.5 -8.5 53.5 -25.5s22.5 -38.5 22.5 -64.5c0 -37.333 -12.667 -76.333 -38 -117s-56.666 -71.667 -93.999 -93l-28 62c21.333 19.333 36.833 34.666 46.5 45.999s16.5 26.666 20.5 45.999
c-12 0 -24.333 7.66699 -37 23s-19 31.666 -19 48.999zM215.999 72.0029c0 18.667 7.33301 35.6699 22 51.0029s32 23 52 23c20.667 0 38.167 -8.5 52.5 -25.5s21.5 -38.5 21.5 -64.5c0 -37.333 -12.5 -76.333 -37.5 -117s-56.167 -71.667 -93.5 -93l-29 62
c22.667 19.333 38.667 34.666 48 45.999s16 26.666 20 45.999c-12.667 0 -25.167 7.66699 -37.5 23s-18.5 31.666 -18.5 48.999z" />
    <glyph glyph-name="dagger" unicode="&#x2020;" horiz-adv-x="446" 
d="M155 625v158l140 -3v-155h103l18 -122h-121l-11 -507l-119 4l-10 503h-106l-19 122h125z" />
    <glyph glyph-name="daggerdbl" unicode="&#x2021;" horiz-adv-x="459" 
d="M300 154l5 -153l-152 -7l5 160h-109l-19 122h125l3 227h-109l-19 122h130l-5 158l152 -3l-4 -155h108l18 -122h-126v-227h108l18 -122h-129z" />
    <glyph glyph-name="bullet" unicode="&#x2022;" horiz-adv-x="277" 
d="M247 330c0 -30 -10.667 -55.333 -32 -76s-47 -31 -77 -31s-55.5 10.333 -76.5 31s-31.5 46 -31.5 76c0 29.333 10.5 54.666 31.5 75.999s46.5 32 76.5 32s55.667 -10.667 77 -32s32 -46.666 32 -75.999z" />
    <glyph glyph-name="ellipsis" unicode="&#x2026;" horiz-adv-x="539" 
d="M165 66c0 -18.667 -6.5 -34.334 -19.5 -47.001s-28.833 -19 -47.5 -19s-34.667 6.33301 -48 19s-20 28.334 -20 47.001s6.66699 34.667 20 48s29.333 20 48 20s34.5 -6.66699 47.5 -20s19.5 -29.333 19.5 -48zM338 66c0 -18.667 -6.5 -34.334 -19.5 -47.001
s-28.5 -19 -46.5 -19c-19.333 0 -35.5 6.33301 -48.5 19s-19.5 28.334 -19.5 47.001s6.5 34.667 19.5 48s29.167 20 48.5 20c18 0 33.5 -6.66699 46.5 -20s19.5 -29.333 19.5 -48zM509 66c0 -18.667 -6.5 -34.334 -19.5 -47.001s-28.833 -19 -47.5 -19
c-18 0 -33.5 6.33301 -46.5 19s-19.5 28.334 -19.5 47.001s6.5 34.667 19.5 48s28.5 20 46.5 20c18.667 0 34.5 -6.66699 47.5 -20s19.5 -29.333 19.5 -48z" />
    <glyph glyph-name="perthousand" unicode="&#x2030;" horiz-adv-x="1318" 
d="M251 0l297 710l132 -4l-298 -710zM25 533c0 33.333 7.83203 62.834 23.499 88.501s36.167 45.5 61.5 59.5s52.333 21 81 21s55.834 -6.83301 81.501 -20.5s46.167 -33.334 61.5 -59.001s23 -55.5 23 -89.5c0 -33.333 -7.83301 -63 -23.5 -89s-36.167 -46 -61.5 -60
s-52.333 -21 -81 -21s-55.667 6.83301 -81 20.5s-45.833 33.5 -61.5 59.5s-23.5 56 -23.5 90zM248.999 532.001c0 24 -5.5 42.666 -16.5 55.999s-24.833 20 -41.5 20c-15.333 0 -28.666 -6.66699 -39.999 -20s-17 -31.333 -17 -54c0 -25.333 5.16699 -44.666 15.5 -57.999
s24.166 -20 41.499 -20c15.333 0 28.833 6.83301 40.5 20.5s17.5 32.167 17.5 55.5zM576.999 169c0 34 7.83203 63.8301 23.499 89.4971s36.167 45.334 61.5 59.001s52.333 20.5 81 20.5s55.5 -6.66699 80.5 -20s45.167 -32.666 60.5 -57.999s23 -55.333 23 -90
c0 -33.333 -7.66699 -63 -23 -89s-35.666 -46 -60.999 -60s-52 -21 -80 -21c-28.667 0 -55.667 6.83301 -81 20.5s-45.833 33.334 -61.5 59.001s-23.5 55.5 -23.5 89.5zM960.998 168.997c0 34 7.83203 63.8301 23.499 89.4971s36.334 45.334 62.001 59.001
s52.834 20.5 81.501 20.5s55.5 -6.66699 80.5 -20s45.333 -32.666 61 -57.999s23.5 -55.333 23.5 -90c0 -33.333 -8 -62.833 -24 -88.5s-36.667 -45.667 -62 -60s-51.666 -21.5 -78.999 -21.5c-28.667 0 -55.834 6.83301 -81.501 20.5s-46.334 33.334 -62.001 59.001
s-23.5 55.5 -23.5 89.5zM799.997 168.994c0 23.333 -5.49902 41.833 -16.499 55.5s-24.5 20.5 -40.5 20.5c-15.333 0 -28.833 -6.66699 -40.5 -20s-17.5 -31.333 -17.5 -54c0 -25.333 5.33301 -44.833 16 -58.5s24.667 -20.5 42 -20.5c15.333 0 28.666 7 39.999 21
s17 32.667 17 56zM1184 168.994c0 24 -5.33301 42.667 -16 56s-24 20 -40 20c-15.333 0 -29 -6.66699 -41 -20s-18 -31.333 -18 -54c0 -26 5.33301 -45.667 16 -59s25 -20 43 -20c15.333 0 28.5 7 39.5 21s16.5 32.667 16.5 56z" />
    <glyph glyph-name="guilsinglleft" unicode="&#x2039;" horiz-adv-x="233" 
d="M190 83l-160 138v48l160 139l23 -92l-81 -71l81 -71z" />
    <glyph glyph-name="guilsinglright" unicode="&#x203a;" horiz-adv-x="232" 
d="M42 408l160 -139v-48l-160 -138l-22 91l78 71l-78 71z" />
    <glyph glyph-name="fraction" unicode="&#x2044;" horiz-adv-x="454" 
d="M10 0l298 710l136 -4l-299 -710z" />
    <glyph glyph-name="Euro" unicode="&#x20ac;" horiz-adv-x="622" 
d="M416 -14c-77.333 0 -142.004 19.3311 -194.004 57.998s-88.333 91.334 -109 158.001h-101l-12 96h95c-1.33301 17.333 -2 30.333 -2 39c0 9.33301 0.666992 23.333 2 42h-83l-12 96h114c22.667 68 60.834 121.5 114.501 160.5s117.834 58.5 192.501 58.5
c24 0 53.333 -3.66699 88 -11s65.334 -18.333 92.001 -33l-40 -93l-25 7c-26 8 -46.667 13.5 -62 16.5s-34.333 4.5 -57 4.5c-35.333 0 -67 -9.66699 -95 -29s-50.333 -46.333 -67 -81h191l10 -96h-226c-1.33301 -17.333 -2 -31 -2 -41
c0 -9.33301 0.666992 -22.666 2 -39.999h216l10 -96h-201c15.333 -33.333 36.166 -59.5 62.499 -78.5s56.833 -28.5 91.5 -28.5c49.333 0 99 10.333 149 31l49 -96c-25.333 -13.333 -56.166 -24 -92.499 -32s-69.166 -12 -98.499 -12z" />
    <glyph glyph-name="trademark" unicode="&#x2122;" horiz-adv-x="765" 
d="M10 680h326l13 -72h-131v-303h-91v303h-117v72zM637 477l-58 -69l-28 -5l-78 86v-184h-93v375h46l137 -163l124 163h43v-375h-93v172z" />
    <glyph glyph-name="minus" unicode="&#x2212;" horiz-adv-x="479" 
d="M30 325h407l12 -102h-410z" />
    <glyph glyph-name="fi" unicode="&#xfb01;" horiz-adv-x="613" 
d="M87 384l-74.998 0.000976562v100h75v37c0 56.667 16.667 101 50 133s79.666 48 138.999 48c15.333 0 32.666 -3 51.999 -9s34.333 -13.333 45 -22l-37 -94c-22 8.66699 -40 13 -54 13c-22 0 -38.333 -7.83301 -49 -23.5s-16 -36.834 -16 -63.501v-19h92l41 -100h-133
v-614h-130v614zM566.002 627.001c0 -20.667 -7.16699 -38 -21.5 -52s-31.833 -21 -52.5 -21c-20 0 -37 7 -51 21s-21 31.333 -21 52s7 38 21 52s31 21 51 21c20.667 0 38.167 -7 52.5 -21s21.5 -31.333 21.5 -52zM558.002 485.001v-485h-130v485h130z" />
    <glyph glyph-name="fl" unicode="&#xfb02;" horiz-adv-x="632" 
d="M87 384l-74.998 0.000976562v100h75v37c0 56.667 16.667 101 50 133s79.666 48 138.999 48c15.333 0 32.666 -3 51.999 -9s34.333 -13.333 45 -22l-37 -94c-22 8.66699 -40 13 -54 13c-22 0 -38.333 -7.83301 -49 -23.5s-16 -36.834 -16 -63.501v-19h92l41 -100h-133
v-614h-130v614zM567.002 706.001v-706h-129v695z" />
  </font>
</defs>
</svg>
