<?xml version="1.0" standalone="no"?>
<!DOCTYPE svg PUBLIC "-//W3C//DTD SVG 1.1//EN" "http://www.w3.org/Graphics/SVG/1.1/DTD/svg11.dtd" >
<svg>
<metadata>
Created by FontForge 20090914 at Wed Dec 26 22:53:29 2018
 By www-data
Copyright (c) 2016 by Iulian Maftei All rights reserved.
</metadata>
<defs>
<font id="MoskUltra-Bold900" horiz-adv-x="243" >
  <font-face 
    font-family="Mosk Ultra-Bold 900"
    font-weight="900"
    font-stretch="normal"
    units-per-em="1000"
    panose-1="2 0 5 6 0 0 0 2 0 4"
    ascent="800"
    descent="-200"
    x-height="484"
    cap-height="680"
    bbox="-82 -262.001 1345 976"
    underline-thickness="50"
    underline-position="-75"
    unicode-range="U+0020-U+FB02"
  />
<missing-glyph horiz-adv-x="220" 
 />
    <glyph glyph-name=".notdef" horiz-adv-x="220" 
 />
    <glyph glyph-name="space" unicode=" " horiz-adv-x="220" 
 />
    <glyph glyph-name="exclam" unicode="!" 
d="M193 208l-142 40l-20 466h182zM30 91c0 26 8.83301 47.833 26.5 65.5s39.5 26.5 65.5 26.5c25.333 0 46.833 -8.83301 64.5 -26.5s26.5 -39.5 26.5 -65.5s-8.83301 -47.667 -26.5 -65s-39.167 -26 -64.5 -26c-26 0 -47.833 8.66699 -65.5 26s-26.5 39 -26.5 65z" />
    <glyph glyph-name="quotedbl" unicode="&#x22;" horiz-adv-x="453" 
d="M29 650c0 23.333 9 44.501 27 63.501s39.667 28.5 65 28.5c26 0 47.833 -10 65.5 -30s26.5 -45.667 26.5 -77c0 -39.333 -15 -77.333 -45 -114s-67.333 -63.334 -112 -80.001l-36 80c10.667 6 21.5 14 32.5 24s17.5 19 19.5 27c-12.667 8 -23 19 -31 33s-12 29 -12 45z
M239 650.001c0 23.333 9 44.501 27 63.501s39.667 28.5 65 28.5c26 0 47.833 -10 65.5 -30s26.5 -45.667 26.5 -77c0 -39.333 -15 -77.333 -45 -114s-67.333 -63.334 -112 -80.001l-36 80c10.667 6 21.5 14 32.5 24s17.5 19 19.5 27c-12.667 8 -23 19 -31 33s-12 29 -12 45z
" />
    <glyph glyph-name="numbersign" unicode="#" horiz-adv-x="647" 
d="M411 426l22 91h149l-22 -91h47l10 -133h-89l-18 -78h97l10 -133h-139l-23 -97l-147 5l21 92h-95l-23 -97l-147 5l21 92h-44l-11 133h87l18 78h-94l-11 133h137l22 91h149l-22 -91h95zM361 215l18 78h-95l-18 -78h95z" />
    <glyph glyph-name="dollar" unicode="$" horiz-adv-x="547" 
d="M483 637l-54.002 -122.998c-35.333 12 -62.5 20 -81.5 24s-39.833 6 -62.5 6c-20 0 -36.167 -4.66699 -48.5 -14s-18.5 -20.666 -18.5 -33.999c0 -10 5.16699 -18.833 15.5 -26.5s27.5 -17.834 51.5 -30.501l36 -20c42 -24 77 -46.167 105 -66.5s51.833 -44.333 71.5 -72
s29.5 -58.834 29.5 -93.501c0 -36.667 -10.167 -69.834 -30.5 -99.501s-49.166 -53.167 -86.499 -70.5v-139h-119v110c-7.33301 -0.666992 -19 -1 -35 -1h-13v-106h-118v125c-36 9.33301 -66.667 21.333 -92 36l60 137c18 -10.667 42.833 -20.5 74.5 -29.5
s59.5 -13.5 83.5 -13.5c26.667 0 48 5.5 64 16.5s24 23.167 24 36.5c0 8.66699 -5.83301 17.167 -17.5 25.5s-30.5 20.166 -56.5 35.499l-31 18c-45.333 26.667 -80.666 48.834 -105.999 66.501s-48 40.5 -68 68.5s-30 59.667 -30 95c0.666992 37.333 11.5 71 32.5 101
s50.5 53 88.5 69v121l118 10v-106h14c13.333 0 23.333 -0.333008 30 -1v97l119 10v-135c19.333 -8 36.333 -17 51 -27z" />
    <glyph glyph-name="percent" unicode="%" horiz-adv-x="974" 
d="M244 0l298 706h188l-299 -706h-187zM382 517c0 -55.333 -16.999 -99.167 -50.999 -131.5s-79.333 -48.5 -136 -48.5c-55.333 0 -98.333 16.167 -129 48.5s-46 76.833 -46 133.5c0 56 16.167 100.5 48.5 133.5s76.166 49.5 131.499 49.5c57.333 0 102 -16.667 134 -50
s48 -78.333 48 -135zM198.001 457.999c16 0 27.666 4.83301 34.999 14.5s11 24.5 11 44.5s-3.16699 35.167 -9.5 45.5s-17.166 15.5 -32.499 15.5c-29.333 0 -44 -19.667 -44 -59c0 -20.667 3.16699 -36 9.5 -46s16.5 -15 30.5 -15zM954 180.999
c0 -55.333 -16.999 -99.167 -50.999 -131.5s-79.333 -48.5 -136 -48.5c-55.333 0 -98.333 16.167 -129 48.5s-46 76.833 -46 133.5c0 56 16.167 100.5 48.5 133.5s76.166 49.5 131.499 49.5c57.333 0 102 -16.667 134 -50s48 -78.333 48 -135zM770.001 121.998
c16 0 27.666 4.83301 34.999 14.5s11 24.5 11 44.5s-3.16699 35.167 -9.5 45.5s-17.166 15.5 -32.499 15.5c-29.333 0 -44 -19.667 -44 -59c0 -20.667 3.16699 -36 9.5 -46s16.5 -15 30.5 -15z" />
    <glyph glyph-name="ampersand" unicode="&#x26;" horiz-adv-x="689" 
d="M309 696c78 0 145.336 -20.3291 202.003 -60.9961l-49 -124c-43.333 24 -86.333 36 -129 36c-22.667 0 -40.334 -5.83301 -53.001 -17.5s-19 -24.834 -19 -39.501c0 -11.333 4.66699 -23 14 -35s26.666 -29.333 51.999 -52l129 -110c16 42 27 84.667 33 128l160 -64
c-7.33301 -61.333 -26 -121.333 -56 -180l76 -64l-107 -132l-74 64c-58.667 -46 -119.667 -69 -183 -69c-52 0 -98.667 8.83301 -140 26.5s-74.166 44.167 -98.499 79.5s-36.5 78.666 -36.5 129.999c0 31.333 7.83301 62.666 23.5 93.999s36.5 58.333 62.5 81
c-22 33.333 -33 68.666 -33 105.999c0 36 9.66699 69.5 29 100.5s46.166 55.833 80.499 74.5s73.166 28 116.499 28zM309.003 126.004c19.333 0 39 8 59 24l-138 120c-8 -16 -12 -33.333 -12 -52c0 -28.667 7.83301 -51.167 23.5 -67.5s38.167 -24.5 67.5 -24.5z" />
    <glyph glyph-name="quotesingle" unicode="'" 
d="M29 650c0 23.333 9 44.501 27 63.501s39.667 28.5 65 28.5c26 0 47.833 -10 65.5 -30s26.5 -45.667 26.5 -77c0 -39.333 -15 -77.333 -45 -114s-67.333 -63.334 -112 -80.001l-36 80c10.667 6 21.5 14 32.5 24s17.5 19 19.5 27c-12.667 8 -23 19 -31 33s-12 29 -12 45z
" />
    <glyph glyph-name="parenleft" unicode="(" horiz-adv-x="370" 
d="M232 322c0 -51.333 10.666 -109.331 31.999 -173.998s46.333 -114.334 75 -149.001l-162 -38c-40.667 53.333 -72 110.5 -94 171.5s-33 123.833 -33 188.5c0 62.667 10.667 123.5 32 182.5s53 118.5 95 178.5l163 -37c-29.333 -40.667 -54.666 -92.334 -75.999 -155.001
s-32 -118.667 -32 -168z" />
    <glyph glyph-name="parenright" unicode=")" horiz-adv-x="370" 
d="M138 321c0 51.333 -10.666 109.331 -31.999 173.998s-46.333 114.334 -75 149.001l162 38c40.667 -53.333 72 -110.5 94 -171.5s33 -123.833 33 -188.5c0 -62.667 -10.667 -123.5 -32 -182.5s-53 -118.5 -95 -178.5l-163 37c29.333 40.667 54.666 92.334 75.999 155.001
s32 118.667 32 168z" />
    <glyph glyph-name="asterisk" unicode="*" horiz-adv-x="424" 
d="M141 782h144v-96l95 28l34 -129l-94 -17l72 -91l-117 -74l-63 93l-63 -93l-117 74l72 91l-94 17l34 129l97 -28v96z" />
    <glyph glyph-name="plus" unicode="+" horiz-adv-x="583" 
d="M376 345h167l10 -143h-177v-202l-168 8v194h-167l-11 143h178v185h168v-185z" />
    <glyph glyph-name="comma" unicode="," 
d="M29 55c0 23.333 9 44.501 27 63.501s39.667 28.5 65 28.5c26 0 47.833 -10 65.5 -30s26.5 -45.667 26.5 -77c0 -39.333 -15 -77.333 -45 -114s-67.333 -63.334 -112 -80.001l-36 80c10.667 6 21.5 14 32.5 24s17.5 19 19.5 27c-12.667 8 -23 19 -31 33s-12 29 -12 45z
" />
    <glyph glyph-name="hyphen" unicode="-" horiz-adv-x="352" 
d="M30 345h282l10 -143h-281z" />
    <glyph glyph-name="period" unicode="." 
d="M213 91c0 -26 -8.83301 -47.667 -26.5 -65s-39.167 -26 -64.5 -26c-26 0 -47.833 8.66699 -65.5 26s-26.5 39 -26.5 65s8.83301 47.833 26.5 65.5s39.5 26.5 65.5 26.5c25.333 0 46.833 -8.83301 64.5 -26.5s26.5 -39.5 26.5 -65.5z" />
    <glyph glyph-name="slash" unicode="/" horiz-adv-x="506" 
d="M10 0l298 706h188l-299 -706h-187z" />
    <glyph glyph-name="zero" unicode="0" horiz-adv-x="678" 
d="M338 -14c-60.667 0 -115.17 12.834 -163.503 38.501s-86.166 61.167 -113.499 106.5s-41 96.333 -41 153c0 56 13.667 106.5 41 151.5s65.333 80.167 114 105.5s103.334 38 164.001 38s115.334 -12.5 164.001 -37.5s86.667 -59.833 114 -104.5s41 -95 41 -151
c0 -57.333 -13.667 -108.833 -41 -154.5s-65.333 -81.334 -114 -107.001s-103.667 -38.5 -165 -38.5zM337.997 431.001c-37.333 0 -68.332 -13.499 -92.999 -40.499s-37 -61.5 -37 -103.5c0 -44.667 12.333 -81.334 37 -110.001s56 -43 94 -43s69.333 14 94 42
s37 63.667 37 107s-12.333 78.833 -37 106.5s-56.334 41.5 -95.001 41.5z" />
    <glyph glyph-name="one" unicode="1" horiz-adv-x="439" 
d="M379 566v-566h-182v363l-116 -50l-71 146l248 107h121z" />
    <glyph glyph-name="two" unicode="2" horiz-adv-x="497" 
d="M38 527c58 34.667 122.332 51.999 192.999 51.999c74.667 0 133.167 -14.167 175.5 -42.5s63.5 -72.833 63.5 -133.5c0 -39.333 -11.833 -76.166 -35.5 -110.499s-60.5 -72.5 -110.5 -114.5l-41 -35h182l12 -143h-452v106l189 164c4.66699 4.66699 12.334 11 23.001 19
c24 20.667 41.833 37.834 53.5 51.501s17.5 27.5 17.5 41.5c0 16 -7.33301 28 -22 36s-35 12 -61 12c-26.667 0 -55 -5.33301 -85 -16s-56.333 -22.334 -79 -35.001l-23 148v0z" />
    <glyph glyph-name="three" unicode="3" horiz-adv-x="536" 
d="M21 505c62.667 49.333 140.671 74.0029 234.004 74.0029c48.667 0 91.5 -7.5 128.5 -22.5s65.667 -35.833 86 -62.5s30.5 -57.334 30.5 -92.001c0 -23.333 -7.83301 -48.333 -23.5 -75s-32.834 -45 -51.501 -55c24 -14 44.333 -35.5 61 -64.5s25 -57.833 25 -86.5
c0 -38.667 -11.167 -73 -33.5 -103s-53.833 -53.5 -94.5 -70.5s-87.334 -25.5 -140.001 -25.5c-37.333 0 -77.833 6.66699 -121.5 20s-84.167 32 -121.5 56l97 121c28 -18 53.5 -30.833 76.5 -38.5s46.5 -11.5 70.5 -11.5c22.667 0 41.5 5.16699 56.5 15.5
s22.5 24.166 22.5 41.499c0 19.333 -6.33301 34.333 -19 45s-29.334 16 -50.001 16h-103l-15 143h82c28 0 50.667 5.16699 68 15.5s26 23.833 26 40.5c0 13.333 -6.33301 24.166 -19 32.499s-31.334 12.5 -56.001 12.5c-38 0 -81 -16.333 -129 -49l-87 123v0z" />
    <glyph glyph-name="four" unicode="4" horiz-adv-x="611" 
d="M491 197h100l-9 -143h-91v-117h-182v117h-278l-21 133l345 384h136v-374zM309 197v100l-85 -100h85z" />
    <glyph glyph-name="five" unicode="5" horiz-adv-x="533" 
d="M285 223c-14.667 0 -27.3301 -4.33203 -37.9971 -12.999s-18.334 -18.667 -23.001 -30h-153l19 386h394l-18 -143h-223v-65c18.667 10.667 39.334 16 62.001 16c43.333 0 80.666 -10 111.999 -30s55.166 -46.667 71.499 -80s24.5 -70 24.5 -110
c0 -45.333 -10.333 -85.666 -31 -120.999s-50.167 -62.833 -88.5 -82.5s-83.166 -29.5 -134.499 -29.5c-37.333 0 -78.333 7 -123 21s-83.334 32.333 -116.001 55l91 129c32 -17.333 59.333 -30 82 -38s45.667 -12 69 -12c25.333 0 46.166 7.16699 62.499 21.5
s24.5 33.166 24.5 56.499c0 21.333 -6 38.166 -18 50.499s-27.333 18.5 -46 18.5z" />
    <glyph glyph-name="six" unicode="6" horiz-adv-x="585" 
d="M565 195c0 -40 -10.168 -75.8291 -30.501 -107.496s-49.666 -56.334 -87.999 -74.001s-83.166 -26.5 -134.499 -26.5c-56.667 0 -107.167 11.333 -151.5 34s-78.833 54.167 -103.5 94.5s-37 85.833 -37 136.5c0 93.333 25.167 167.666 75.5 222.999
s109.666 94.5 177.999 117.5s137.166 36.833 206.499 41.5l18 -167l-36 -5c-49.333 -6.66699 -90.666 -14.834 -123.999 -24.501s-61.333 -26.834 -84 -51.501c20.667 8 42.334 12 65.001 12c47.333 0 89.666 -8.5 126.999 -25.5s66.5 -41 87.5 -72
s31.5 -66.167 31.5 -105.5zM376.999 209.004c0 20.667 -7.83301 37.668 -23.5 51.001s-35.167 20 -58.5 20c-26 0 -54 -10.667 -84 -32c2 -34 11.5 -61.5 28.5 -82.5s39.5 -31.5 67.5 -31.5c18.667 0 35 7.16699 49 21.5s21 32.166 21 53.499z" />
    <glyph glyph-name="seven" unicode="7" horiz-adv-x="518" 
d="M498 494l-209 -571l-181 47l191 453h-272l-17 143h454z" />
    <glyph glyph-name="eight" unicode="8" horiz-adv-x="572" 
d="M42 457c0 36.667 10.832 69.1719 32.499 97.5049s51.167 50.166 88.5 65.499s78.666 23 123.999 23c44 0 84.5 -7.66699 121.5 -23s66.5 -37.166 88.5 -65.499s33 -60.833 33 -97.5c0 -21.333 -5.66699 -42.5 -17 -63.5s-25.666 -38.833 -42.999 -53.5
c24 -16.667 43.667 -37.834 59 -63.501s23 -52.167 23 -79.5c0 -41.333 -10.5 -77.833 -31.5 -109.5s-51.5 -56.334 -91.5 -74.001s-87.333 -26.5 -142 -26.5c-81.333 0 -146.166 18.667 -194.499 56s-72.5 88.666 -72.5 153.999c0 27.333 7.83301 54 23.5 80
s35.5 47.333 59.5 64c-17.333 15.333 -31.833 33.166 -43.5 53.499s-17.5 41.166 -17.5 62.499zM340.999 447.005c0 11.333 -4.83301 22 -14.5 32s-23.5 15 -41.5 15c-16.667 0 -29.834 -5.16699 -39.501 -15.5s-14.5 -21.166 -14.5 -32.499c0 -13.333 5 -25.5 15 -36.5
s23.667 -17.833 41 -20.5c16.667 2.66699 29.834 9.66699 39.501 21s14.5 23.666 14.5 36.999zM364.999 205.005c0 16 -7.16797 32 -21.501 48s-33.166 26 -56.499 30c-24.667 -4 -44 -14 -58 -30s-21 -32 -21 -48c0 -18 8 -34.167 24 -48.5s34 -21.5 54 -21.5
s38.167 7.16699 54.5 21.5s24.5 30.5 24.5 48.5z" />
    <glyph glyph-name="nine" unicode="9" horiz-adv-x="585" 
d="M565 314c0 -93.333 -25.166 -167.67 -75.499 -223.003s-109.666 -94.5 -177.999 -117.5s-137.166 -36.833 -206.499 -41.5l-18 167l36 5c49.333 6.66699 90.666 14.834 123.999 24.501s61.333 26.834 84 51.501c-20.667 -8 -42.334 -12 -65.001 -12
c-47.333 0 -89.666 8.5 -126.999 25.5s-66.5 41 -87.5 72s-31.5 66.167 -31.5 105.5c0 40 10.167 75.833 30.5 107.5s49.666 56.334 87.999 74.001s83.166 26.5 134.499 26.5c56.667 0 107.167 -11.333 151.5 -34s78.833 -54.167 103.5 -94.5s37 -85.833 37 -136.5z
M290.001 285.996c26 0 53.999 10.666 83.999 31.999c-2 34 -11.667 61.5 -29 82.5s-39.666 31.5 -66.999 31.5c-18.667 0 -35 -7.16699 -49 -21.5s-21 -32.166 -21 -53.499c0 -20.667 7.83301 -37.667 23.5 -51s35.167 -20 58.5 -20z" />
    <glyph glyph-name="colon" unicode=":" 
d="M213 384c0 -26 -8.83301 -47.667 -26.5 -65s-39.167 -26 -64.5 -26c-26 0 -47.833 8.66699 -65.5 26s-26.5 39 -26.5 65s8.83301 47.833 26.5 65.5s39.5 26.5 65.5 26.5c25.333 0 46.833 -8.83301 64.5 -26.5s26.5 -39.5 26.5 -65.5zM213 91
c0 -26 -8.83301 -47.667 -26.5 -65s-39.167 -26 -64.5 -26c-26 0 -47.833 8.66699 -65.5 26s-26.5 39 -26.5 65s8.83301 47.833 26.5 65.5s39.5 26.5 65.5 26.5c25.333 0 46.833 -8.83301 64.5 -26.5s26.5 -39.5 26.5 -65.5z" />
    <glyph glyph-name="semicolon" unicode=";" horiz-adv-x="244" 
d="M31 384c0 26 8.83301 47.833 26.5 65.5s39.5 26.5 65.5 26.5c25.333 0 46.833 -8.83301 64.5 -26.5s26.5 -39.5 26.5 -65.5s-8.83301 -47.667 -26.5 -65s-39.167 -26 -64.5 -26c-26 0 -47.833 8.66699 -65.5 26s-26.5 39 -26.5 65zM29 91c0 23.333 9 44.501 27 63.501
s39.667 28.5 65 28.5c26 0 47.833 -10 65.5 -30s26.5 -45.667 26.5 -77c0 -39.333 -15 -77.333 -45 -114s-67.333 -63.334 -112 -80.001l-36 80c10.667 6 21.5 14 32.5 24s17.5 19 19.5 27c-12.667 8 -23 19 -31 33s-12 29 -12 45z" />
    <glyph glyph-name="less" unicode="&#x3c;" horiz-adv-x="382" 
d="M227 253l135 -96l-33 -159l-299 214v81l299 212l33 -157z" />
    <glyph glyph-name="equal" unicode="=" horiz-adv-x="543" 
d="M30 426h473l10 -133h-472zM30 215h473l10 -133h-472z" />
    <glyph glyph-name="greater" unicode="&#x3e;" horiz-adv-x="382" 
d="M53 505l299 -214v-81l-299 -212l-33 157l135 95l-135 96z" />
    <glyph glyph-name="question" unicode="?" horiz-adv-x="467" 
d="M10 649c60.667 34.667 124.334 52 191.001 52c46 0 87 -8 123 -24s63.833 -38.5 83.5 -67.5s29.5 -62.5 29.5 -100.5c0 -42 -14 -78.667 -42 -110s-73 -58 -135 -80l-12 -115l-143 39l-7 159c44 14 80.167 31.333 108.5 52s42.5 40 42.5 58
c0 12 -4.83301 21.833 -14.5 29.5s-21.834 11.5 -36.501 11.5c-47.333 0 -102.333 -17.667 -165 -53zM75 91c0 26 8.83301 47.833 26.5 65.5s39.5 26.5 65.5 26.5c25.333 0 46.833 -8.83301 64.5 -26.5s26.5 -39.5 26.5 -65.5s-8.83301 -47.667 -26.5 -65
s-39.167 -26 -64.5 -26c-26 0 -47.833 8.66699 -65.5 26s-26.5 39 -26.5 65z" />
    <glyph glyph-name="at" unicode="@" horiz-adv-x="812" 
d="M548 444l40.9941 -61.002l-23 -183c-0.666992 -6 1 -9 5 -9c6.66699 0 15.834 4.83301 27.501 14.5s22 23 31 40s13.5 36.5 13.5 58.5c0 34 -7.33301 65.333 -22 94s-37.167 51.834 -67.5 69.501s-68.5 26.5 -114.5 26.5c-50 0 -94.667 -10.833 -134 -32.5
s-70.166 -52.5 -92.499 -92.5s-33.5 -86 -33.5 -138c0 -46 11.167 -85.167 33.5 -117.5s52 -56.666 89 -72.999s77.5 -24.5 121.5 -24.5c22 0 50.333 2 85 6s62 9.66699 82 17l44 -101c-38 -20 -74.167 -33.167 -108.5 -39.5s-71.5 -9.5 -111.5 -9.5
c-71.333 0 -136.833 13.5 -196.5 40.5s-107.5 66.833 -143.5 119.5s-54 115.667 -54 189c0 68.667 16.5 133 49.5 193s80.667 108.167 143 144.5s135.833 54.5 220.5 54.5c66.667 0 127.5 -14.667 182.5 -44s98.167 -68.5 129.5 -117.5s47 -102.167 47 -159.5
c0 -52 -11.667 -97.333 -35 -136s-53.166 -68.167 -89.499 -88.5s-73.166 -30.5 -110.499 -30.5c-29.333 0 -52.666 7.33301 -69.999 22c-25.333 -12.667 -51.666 -19 -78.999 -19c-62 0 -108.667 15.5 -140 46.5s-47 72.833 -47 125.5s11.833 95 35.5 127
s53.5 54.667 89.5 68s73.667 20 113 20h89zM405.994 198.998c6 0 10.8311 2.66699 14.498 8s5.83398 11.333 6.50098 18l13 100c-24 0 -42.167 -8.16699 -54.5 -24.5s-18.5 -37.5 -18.5 -63.5c0 -10 3.33301 -18.833 10 -26.5s16.334 -11.5 29.001 -11.5z" />
    <glyph glyph-name="A" unicode="A" horiz-adv-x="711" 
d="M10 0l255 680h182l254 -672l-179 -18l-49 144h-235l-47 -134h-181zM288 277h133l-68 185z" />
    <glyph glyph-name="B" unicode="B" horiz-adv-x="645" 
d="M625 203c0 -72 -27.1689 -123.836 -81.502 -155.503s-123.166 -47.5 -206.499 -47.5h-257v680h237c80.667 0 147.5 -16.333 200.5 -49s79.5 -81.667 79.5 -147c0 -24 -5.66699 -45.667 -17 -65s-26.666 -38.666 -45.999 -57.999c28 -19.333 50.167 -42.666 66.5 -69.999
s24.5 -56.666 24.5 -87.999zM408.998 474.997c0 20 -8.66699 35.333 -26 46s-41.333 16 -72 16h-49v-115h41c30 0 55.167 4.5 75.5 13.5s30.5 22.167 30.5 39.5zM436.998 206.997c0 22.667 -8.66602 40.333 -25.999 53s-41.333 19 -72 19h-77v-136h79
c29.333 0 52.666 5.5 69.999 16.5s26 26.833 26 47.5z" />
    <glyph glyph-name="C" unicode="C" horiz-adv-x="596" 
d="M379 693c34.667 0 70.166 -5.00195 106.499 -15.002s67.5 -23.667 93.5 -41l-54 -123c-35.333 12 -62.5 20 -81.5 24s-39.833 6 -62.5 6c-27.333 0 -53.5 -8.66699 -78.5 -26s-45.333 -41.666 -61 -72.999s-23.5 -67 -23.5 -107c0 -40.667 8 -76.334 24 -107.001
s37.167 -54.167 63.5 -70.5s53.833 -24.5 82.5 -24.5c44.667 0 87.667 12.333 129 37l69 -136c-26 -15.333 -57.5 -27.5 -94.5 -36.5s-73.167 -13.5 -108.5 -13.5c-72 0 -134.667 14.833 -188 44.5s-94.166 70.834 -122.499 123.501s-42.5 113.334 -42.5 182.001
s15 130 45 184s71.5 96.167 124.5 126.5s112.833 45.5 179.5 45.5z" />
    <glyph glyph-name="D" unicode="D" horiz-adv-x="739" 
d="M709 344c0 -69.333 -13.6689 -129.999 -41.002 -181.999s-65.666 -92 -114.999 -120s-105.666 -42 -168.999 -42h-304v680h308c68 0 126.167 -14.333 174.5 -43s84.833 -68.334 109.5 -119.001s37 -108.667 37 -174zM520.998 344.001
c0 57.333 -12.5 103.832 -37.5 139.499s-59.833 53.5 -104.5 53.5h-117v-394h110c44 0 79.833 17.333 107.5 52s41.5 84.334 41.5 149.001z" />
    <glyph glyph-name="E" unicode="E" horiz-adv-x="598" 
d="M561 143l17 -143h-498v680h481l17 -143h-316v-124h209l17 -143h-226v-127h299z" />
    <glyph glyph-name="F" unicode="F" horiz-adv-x="558" 
d="M262 400h209l17 -143h-226v-257h-182v679h441l17 -143h-276v-136z" />
    <glyph glyph-name="G" unicode="G" horiz-adv-x="666" 
d="M462 259l-116.999 -0.000976562l16 133h265v-355c-24.667 -15.333 -60.167 -27.5 -106.5 -36.5s-88.5 -13.5 -126.5 -13.5c-73.333 0 -137.333 13.833 -192 41.5s-96.834 67.834 -126.501 120.501s-44.5 115.334 -44.5 188.001c0 72 16.5 135 49.5 189
s77.667 95.333 134 124s118.166 43 185.499 43c36.667 0 76.167 -5 118.5 -15s76.166 -23.667 101.499 -41l-54 -123c-33.333 11.333 -62.666 19.166 -87.999 23.499s-50.666 6.5 -75.999 6.5c-28.667 0 -57.167 -7.83301 -85.5 -23.5s-51.666 -39 -69.999 -70
s-27.5 -68.5 -27.5 -112.5c0 -46 8.66699 -84.167 26 -114.5s39.666 -52.5 66.999 -66.5s56.333 -21 87 -21c20 0 41.333 2 64 6v117z" />
    <glyph glyph-name="H" unicode="H" horiz-adv-x="762" 
d="M682 680v-680h-182v266h-238v-266h-182v680l182 6v-277h238v271h182z" />
    <glyph glyph-name="I" unicode="I" horiz-adv-x="342" 
d="M262 680v-680h-182v680h182z" />
    <glyph glyph-name="J" unicode="J" horiz-adv-x="345" 
d="M10 38c33.333 13.333 55.5 27.8311 66.5 43.498s16.5 34.167 16.5 55.5v543h182v-596c0 -34 -6.16699 -62.167 -18.5 -84.5s-32 -41.666 -59 -57.999s-64.833 -32.166 -113.5 -47.499l-74 144v0z" />
    <glyph glyph-name="K" unicode="K" horiz-adv-x="730" 
d="M262 204v-204h-182v680h182v-236l273 251l141 -102l-231 -216l275 -377h-231l-174 254z" />
    <glyph glyph-name="L" unicode="L" horiz-adv-x="578" 
d="M262 143h289l17 -143h-488v680h182v-537z" />
    <glyph glyph-name="M" unicode="M" horiz-adv-x="799" 
d="M537 329l-92 -124l-73 -10l-110 134v-329h-182v680h125l205 -259l188 259h121v-680h-182v329z" />
    <glyph glyph-name="N" unicode="N" horiz-adv-x="773" 
d="M262 358v-358h-182v680h169l262 -369v369h182v-680h-170z" />
    <glyph glyph-name="O" unicode="O" horiz-adv-x="763" 
d="M30 337c0 68.667 15.001 130.166 45.001 184.499s71.667 96.666 125 126.999s113.666 45.5 180.999 45.5c72 0 134.5 -15.333 187.5 -46s93.667 -72.667 122 -126s42.5 -112.666 42.5 -177.999c0 -69.333 -14.833 -131.166 -44.5 -185.499
s-71.167 -96.666 -124.5 -126.999s-114.333 -45.5 -183 -45.5c-70.667 0 -132.5 15.5 -185.5 46.5s-93.833 73.167 -122.5 126.5s-43 112.666 -43 177.999zM383.001 541.999c-30.667 0 -58.5 -8.5 -83.5 -25.5s-45 -41 -60 -72s-22.5 -66.5 -22.5 -106.5
c0 -58.667 14.5 -106.667 43.5 -144s68.833 -56 119.5 -56c48.667 0 88.5 17.833 119.5 53.5s46.5 86.5 46.5 152.5c0 58 -14.833 105.5 -44.5 142.5s-69.167 55.5 -118.5 55.5z" />
    <glyph glyph-name="P" unicode="P" horiz-adv-x="666" 
d="M262 198l0.000976562 -198h-182v680h286c52 0 99.167 -9.16699 141.5 -27.5s76 -46 101 -83s37.5 -81.833 37.5 -134.5c0 -52 -13.333 -95.833 -40 -131.5s-61.834 -62.167 -105.501 -79.5s-91.167 -26 -142.5 -26h-96zM458.001 435c0 30.667 -8.83301 55.333 -26.5 74
s-41.5 28 -71.5 28h-98v-196h100c28 0 51 9 69 27s27 40.333 27 67z" />
    <glyph glyph-name="Q" unicode="Q" horiz-adv-x="763" 
d="M657 111l60.001 -66.001l-112 -97l-67 70c-46.667 -21.333 -99 -32 -157 -32c-70.667 0 -132.5 15.5 -185.5 46.5s-93.833 73.167 -122.5 126.5s-43 112.666 -43 177.999c0 68.667 15 130.167 45 184.5s71.667 96.666 125 126.999s113.666 45.5 180.999 45.5
c72 0 134.5 -15.333 187.5 -46s93.667 -72.667 122 -126s42.5 -112.666 42.5 -177.999c0 -45.333 -6.5 -87.666 -19.5 -126.999s-31.833 -74.666 -56.5 -105.999zM419.001 141.999l-83 87l120 102l75 -82c10 26 15 57.667 15 95c0 58 -14.833 105.5 -44.5 142.5
s-69.167 55.5 -118.5 55.5c-30.667 0 -58.5 -8.5 -83.5 -25.5s-45 -41 -60 -72s-22.5 -66.5 -22.5 -106.5c0 -58.667 14.5 -106.667 43.5 -144s68.833 -56 119.5 -56c15.333 0 28.333 1.33301 39 4z" />
    <glyph glyph-name="R" unicode="R" horiz-adv-x="714" 
d="M80 0v679.999h286c81.333 0 148.333 -19.333 201 -58s79 -96.667 79 -174c0 -40 -8.16699 -75.167 -24.5 -105.5s-38.833 -55.166 -67.5 -74.499l150 -268h-211l-110 214h-121v-214h-182zM458 447.999c0 29.333 -8.5 51.5 -25.5 66.5s-41.167 22.5 -72.5 22.5h-98v-180
h100c28 0 51 8.5 69 25.5s27 38.833 27 65.5z" />
    <glyph glyph-name="S" unicode="S" horiz-adv-x="547" 
d="M256 -13c-35.333 0 -74.834 5.33301 -118.501 16s-78.5 23.667 -104.5 39l60 137c18 -10.667 42.833 -20.5 74.5 -29.5s59.5 -13.5 83.5 -13.5c26.667 0 48 5.5 64 16.5s24 23.167 24 36.5c0 8.66699 -5.83301 17.167 -17.5 25.5s-30.5 20.166 -56.5 35.499l-31 18
c-45.333 26.667 -80.666 48.834 -105.999 66.501s-48 40.5 -68 68.5s-30 59.667 -30 95c0 37.333 10.5 70.833 31.5 100.5s50.5 52.834 88.5 69.501s82.333 25 133 25c34.667 0 70.167 -5 106.5 -15s67.5 -23.667 93.5 -41l-54 -123c-35.333 12 -62.5 20 -81.5 24
s-39.833 6 -62.5 6c-20 0 -36.167 -4.66699 -48.5 -14s-18.5 -20.666 -18.5 -33.999c0 -10 5.16699 -18.833 15.5 -26.5s27.5 -17.834 51.5 -30.501l36 -20c42 -24 77 -46.167 105 -66.5s51.833 -44.333 71.5 -72s29.5 -58.834 29.5 -93.501c0 -38.667 -11 -73 -33 -103
s-53.5 -53.667 -94.5 -71s-88.833 -26 -143.5 -26z" />
    <glyph glyph-name="T" unicode="T" horiz-adv-x="619" 
d="M10 680h582l17 -143h-217v-537h-182v537h-200v143z" />
    <glyph glyph-name="U" unicode="U" horiz-adv-x="750" 
d="M70 680h181.998v-411c0 -41.333 11.333 -73.5 34 -96.5s52.334 -34.5 89.001 -34.5s66.334 11.5 89.001 34.5s34 55.167 34 96.5v411h182v-420c0 -58 -12.667 -107.5 -38 -148.5s-61 -72.167 -107 -93.5s-99.333 -32 -160 -32s-114 10.667 -160 32
s-81.667 52.5 -107 93.5s-38 90.5 -38 148.5v420z" />
    <glyph glyph-name="V" unicode="V" horiz-adv-x="711" 
d="M10 672l179 18l169 -472l162 462h181l-255 -680h-182z" />
    <glyph glyph-name="W" unicode="W" horiz-adv-x="1000" 
d="M613 0l-112 427l-105 -427h-182l-204 672l179 18l119 -472l102 462h181l116 -462l102 462h181l-195 -680h-182z" />
    <glyph glyph-name="X" unicode="X" horiz-adv-x="715" 
d="M362 186l-137 -186h-215l237 338l-218 310l196 57l137 -207l116 182h226l-227 -335l228 -345h-233z" />
    <glyph glyph-name="Y" unicode="Y" horiz-adv-x="654" 
d="M408 266v-266h-182v268l-216 378l174 48l132 -259l141 245h187z" />
    <glyph glyph-name="Z" unicode="Z" horiz-adv-x="584" 
d="M220 143h334l17 -143h-541l-20 128l347 409h-301l-17 143h516l19 -129z" />
    <glyph glyph-name="bracketleft" unicode="[" horiz-adv-x="478" 
d="M468 -87h-368v783h368l-16 -143h-170v-497h169z" />
    <glyph glyph-name="backslash" unicode="\" horiz-adv-x="506" 
d="M198 710l298 -710h-187l-299 710h188z" />
    <glyph glyph-name="bracketright" unicode="]" horiz-adv-x="478" 
d="M10 696h368v-783h-368l17 143h169v497h-170z" />
    <glyph glyph-name="asciicircum" unicode="^" horiz-adv-x="475" 
d="M292 141l-52 112l-53 -112h-177l156 283h144l155 -283h-173z" />
    <glyph glyph-name="underscore" unicode="_" horiz-adv-x="456" 
d="M30 143h386l10 -143h-385z" />
    <glyph glyph-name="grave" unicode="`" horiz-adv-x="266" 
d="M256 610l-132 -22l-114 199h180z" />
    <glyph glyph-name="a" unicode="a" horiz-adv-x="509" 
d="M217 354c-16 0 -35.501 -2.83301 -58.501 -8.5s-43.833 -12.5 -62.5 -20.5l-48 131c28 12.667 61.333 23.5 100 32.5s76.667 13.5 114 13.5c64.667 0 114.334 -18 149.001 -54s52 -85.333 52 -148v-300h-88l-52 50c-32 -40.667 -68.333 -61 -109 -61
c-60 0 -105.333 15 -136 45s-46 70.667 -46 122c0 94.667 63.333 142 190 142h58c-2.66699 18.667 -9.5 32.667 -20.5 42s-25.167 14 -42.5 14zM224.999 198c-12 0 -21.832 -3.66797 -29.499 -11.001s-11.5 -16.666 -11.5 -27.999c0 -10 3.16699 -18.167 9.5 -24.5
s14.166 -9.5 23.499 -9.5c20.667 0 42 9 64 27v46h-56z" />
    <glyph glyph-name="b" unicode="b" horiz-adv-x="583" 
d="M563 249c0 -84.667 -23.168 -149.167 -69.501 -193.5s-108.833 -66.5 -187.5 -66.5c-44.667 0 -85.667 14 -123 42l-31 -31h-92v695l182 11v-217c24.667 8.66699 48.667 13 72 13c74.667 0 134.834 -21.333 180.501 -64s68.5 -105.667 68.5 -189zM374.999 248
c0 36.667 -7.66406 64.833 -22.9971 84.5s-37.333 29.5 -66 29.5c-14.667 0 -29.334 -5 -44.001 -15v-205c19.333 -8.66699 36.666 -13 51.999 -13c23.333 0 42.666 10.667 57.999 32s23 50.333 23 87z" />
    <glyph glyph-name="c" unicode="c" horiz-adv-x="457" 
d="M285 502c69.333 0 124.664 -16.3311 165.997 -48.998l-51 -125c-19.333 10 -36 16.833 -50 20.5s-29.667 5.5 -47 5.5c-25.333 0 -47.5 -10.333 -66.5 -31s-28.5 -47.667 -28.5 -81c0 -32.667 9.33301 -58.334 28 -77.001s41 -28 67 -28
c16.667 0 32.334 1.83301 47.001 5.5s31.334 10.5 50.001 20.5l51 -125c-41.333 -32.667 -96.666 -49 -165.999 -49c-80 0 -144.167 22.167 -192.5 66.5s-72.5 106.5 -72.5 186.5c0 53.333 11.167 99.666 33.5 138.999s53.5 69.333 93.5 90s86 31 138 31z" />
    <glyph glyph-name="d" unicode="d" horiz-adv-x="583" 
d="M523 0h-91.999l-27 35c-20 -14 -41.5 -25.167 -64.5 -33.5s-46.5 -12.5 -70.5 -12.5c-74.667 0 -134.834 21.333 -180.501 64s-68.5 105.667 -68.5 189c0 84.667 23.167 149.167 69.5 193.5s108.833 66.5 187.5 66.5c22.667 0 44 -3.33301 64 -10v203l182 11v-706z
M297.001 129c14.667 0 29.3311 5.00098 43.998 15.001v205c-19.333 8.66699 -36.666 13 -51.999 13c-23.333 0 -42.666 -10.667 -57.999 -32s-23 -50.333 -23 -87s7.66699 -64.834 23 -84.501s37.333 -29.5 66 -29.5z" />
    <glyph glyph-name="e" unicode="e" horiz-adv-x="533" 
d="M281 502c50 0 92.333 -11.3301 127 -33.9971s60.834 -53 78.501 -91s26.5 -80.333 26.5 -127v-53h-295c6.66699 -20.667 19.167 -36.834 37.5 -48.501s42.5 -17.5 72.5 -17.5c46 0 90.333 11 133 33l51 -123c-20 -14.667 -48.833 -27 -86.5 -37s-76.167 -15 -115.5 -15
c-56.667 0 -106.834 9.66699 -150.501 29s-77.834 48.166 -102.501 86.499s-37 84.166 -37 137.499c0 52.667 11.333 98.667 34 138s53.834 69.5 93.501 90.5s84.167 31.5 133.5 31.5zM276 356.003c-16.667 0 -31.499 -7.00098 -44.499 -21.001s-19.167 -30 -18.5 -48h126
c0 16.667 -5.33301 32.334 -16 47.001s-26.334 22 -47.001 22z" />
    <glyph glyph-name="f" unicode="f" horiz-adv-x="451" 
d="M90 322h-80.001v143h80v45c0 41.333 10.5 76.5 31.5 105.5s48.833 50.833 83.5 65.5s72 22 112 22c22.667 0 47.5 -4.5 74.5 -13.5s46.833 -18.833 59.5 -29.5l-52 -124c-22.667 12.667 -46 19 -70 19c-17.333 0 -31.166 -5.83301 -41.499 -17.5s-15.5 -27.5 -15.5 -47.5
v-25h134l17 -143h-151v-552h-182v552z" />
    <glyph glyph-name="g" unicode="g" horiz-adv-x="579" 
d="M523 -16c0 -41.333 -11.167 -78.168 -33.5 -110.501s-53.666 -57.666 -93.999 -75.999s-86.833 -27.5 -139.5 -27.5c-28 0 -65 4.83301 -111 14.5s-83 23.5 -111 41.5l55 128c29.333 -14.667 56.333 -24.5 81 -29.5s49 -7.5 73 -7.5c28.667 0 52.167 6.5 70.5 19.5
s27.5 29.167 27.5 48.5v17c-24.667 -8.66699 -48.667 -13 -72 -13c-74.667 0 -134.834 21.333 -180.501 64s-68.5 105.667 -68.5 189c0 84.667 23.167 149.167 69.5 193.5s108.833 66.5 187.5 66.5c48 0 91.667 -16 131 -48l24 30h91v-500zM341 143.998l-0.00292969 205.001
c-19.333 8.66699 -36.666 13 -51.999 13c-23.333 0 -42.666 -10.667 -57.999 -32s-23 -50.333 -23 -87s7.66699 -64.834 23 -84.501s37.333 -29.5 66 -29.5c14.667 0 29.334 5 44.001 15z" />
    <glyph glyph-name="h" unicode="h" horiz-adv-x="620" 
d="M574 313v-313h-182v296c0 38.667 -17.333 58 -52 58c-10.667 0 -25.667 -2.83301 -45 -8.5s-37 -12.167 -53 -19.5v-326h-182v695l182 11v-247c56 28 108 42 156 42c58.667 0 102.667 -17.167 132 -51.5s44 -79.833 44 -136.5z" />
    <glyph glyph-name="i" unicode="i" horiz-adv-x="282" 
d="M240 649c0 -26.667 -9.83301 -49.667 -29.5 -69s-43.167 -29 -70.5 -29c-26.667 0 -49.667 9.66699 -69 29s-29 42.333 -29 69c0 27.333 9.66699 50.833 29 70.5s42.333 29.5 69 29.5c27.333 0 50.833 -9.83301 70.5 -29.5s29.5 -43.167 29.5 -70.5zM232 485v-485h-182
v485h182z" />
    <glyph glyph-name="j" unicode="j" horiz-adv-x="302" 
d="M58 649c0 27.333 9.66699 50.833 29 70.5s42.333 29.5 69 29.5c27.333 0 50.833 -9.83301 70.5 -29.5s29.5 -43.167 29.5 -70.5c0 -26.667 -9.83301 -49.667 -29.5 -69s-43.167 -29 -70.5 -29c-24.667 0 -47.167 9.83301 -67.5 29.5s-30.5 42.5 -30.5 68.5zM248 485v-715
h-182v715h182z" />
    <glyph glyph-name="k" unicode="k" horiz-adv-x="567" 
d="M242 156v-156h-182v695l182 11v-360l181 153l109 -125l-129 -97l164 -277h-196l-96 181z" />
    <glyph glyph-name="l" unicode="l" horiz-adv-x="302" 
d="M242 706v-706h-182v695z" />
    <glyph glyph-name="m" unicode="m" horiz-adv-x="921" 
d="M875 313l0.000976562 -313h-182v296c0 18.667 -2.83301 33 -8.5 43s-18.5 15 -38.5 15c-8.66699 0 -22.334 -3 -41.001 -9s-35.667 -12.333 -51 -19v-13v-313h-182v296c0 18.667 -2.83301 33 -8.5 43s-18.5 15 -38.5 15c-8.66699 0 -22.5 -3 -41.5 -9
s-36.167 -12.333 -51.5 -19v-326h-182v485h108l32 -50c70.667 44 135 66 193 66c64 0 110 -20 138 -60c66 40 127 60 183 60c114 0 171 -62.667 171 -188z" />
    <glyph glyph-name="n" unicode="n" horiz-adv-x="610" 
d="M330 354c-10.667 0 -25.667 -2.83301 -45 -8.5s-37 -12.167 -53 -19.5v-326h-182v485h108l32 -50c70.667 44 136.667 66 198 66c58.667 0 102.667 -17.167 132 -51.5s44 -79.833 44 -136.5v-313h-182v296c0 16.667 -4 30.5 -12 41.5s-21.333 16.5 -40 16.5z" />
    <glyph glyph-name="o" unicode="o" horiz-adv-x="590" 
d="M291 -11c-81.333 0 -146.833 21.833 -196.5 65.5s-74.5 107.167 -74.5 190.5c0 52.667 12.167 98.5 36.5 137.5s57.333 68.667 99 89s88.167 30.5 139.5 30.5c54 0 101.667 -10 143 -30s73.666 -49.667 96.999 -89s35 -87 35 -143c0 -52.667 -12.167 -98 -36.5 -136
s-57.666 -66.667 -99.999 -86s-89.833 -29 -142.5 -29zM382 240c0 33.333 -7.5 60.666 -22.5 81.999s-35.833 32 -62.5 32c-28 0 -49.833 -9.66699 -65.5 -29s-23.5 -46 -23.5 -80c0 -33.333 7.33301 -59.666 22 -78.999s35.667 -29 63 -29c28.667 0 50.667 8.66699 66 26
s23 43 23 77z" />
    <glyph glyph-name="p" unicode="p" horiz-adv-x="579" 
d="M559 249c0 -84.667 -23.168 -149.167 -69.501 -193.5s-108.833 -66.5 -187.5 -66.5c-22.667 0 -44 3.33301 -64 10v-229h-182v714h91l28 -28c20 14 41.5 25.167 64.5 33.5s46.5 12.5 70.5 12.5c74.667 0 134.834 -21.333 180.501 -64s68.5 -105.667 68.5 -189z
M370.999 248c0 36.667 -7.66504 64.833 -22.998 84.5s-37.333 29.5 -66 29.5c-14 0 -28.667 -5 -44 -15v-205c19.333 -8.66699 36.666 -13 51.999 -13c23.333 0 42.666 10.667 57.999 32s23 50.333 23 87z" />
    <glyph glyph-name="q" unicode="q" horiz-adv-x="579" 
d="M523 -230h-181.999v232c-24.667 -8.66699 -48.667 -13 -72 -13c-74.667 0 -134.834 21.333 -180.501 64s-68.5 105.667 -68.5 189c0 84.667 23.167 149.167 69.5 193.5s108.833 66.5 187.5 66.5c46.667 0 89.667 -15.333 129 -46l26 28h91v-714zM341.001 144
l-0.00292969 205.001c-19.333 8.66699 -36.666 13 -51.999 13c-23.333 0 -42.666 -10.667 -57.999 -32s-23 -50.333 -23 -87s7.66699 -64.834 23 -84.501s37.333 -29.5 66 -29.5c14.667 0 29.334 5 44.001 15z" />
    <glyph glyph-name="r" unicode="r" horiz-adv-x="395" 
d="M385 339c-24 0 -50.332 -5 -78.999 -15s-53.334 -23 -74.001 -39v-285h-182v484h91l44 -59c23.333 16 50 30 80 42s57.667 18 83 18l37 -146v0z" />
    <glyph glyph-name="s" unicode="s" horiz-adv-x="451" 
d="M229 -11c-28.667 0 -64.166 4.66406 -106.499 13.9971s-75.833 23.666 -100.5 42.999l51 115c19.333 -9.33301 42.833 -17.333 70.5 -24s50.167 -10 67.5 -10c12 0 22 2 30 6s12 9.33301 12 16c0 4 -4.5 8.83301 -13.5 14.5s-20.5 10.834 -34.5 15.501
c-50.667 18 -92.167 39.333 -124.5 64s-48.5 57 -48.5 97c0 50.667 19 90.334 57 119.001s90.667 43 158 43c28.667 0 60.167 -3.83301 94.5 -11.5s63.833 -21.167 88.5 -40.5l-51 -115c-20 8.66699 -40.5 15.667 -61.5 21s-40.167 8 -57.5 8c-14.667 0 -26.667 -2 -36 -6
s-14 -9.33301 -14 -16c0 -4 4.66699 -8.66699 14 -14s21.666 -10.666 36.999 -15.999c50 -17.333 90.833 -38.5 122.5 -63.5s47.5 -57.5 47.5 -97.5c0 -51.333 -17 -91.166 -51 -119.499s-84.333 -42.5 -151 -42.5z" />
    <glyph glyph-name="t" unicode="t" horiz-adv-x="456" 
d="M267 465h127.001l17 -143h-144v-120c0 -20 5.16699 -35.833 15.5 -47.5s24.166 -17.5 41.499 -17.5c24 0 47.333 6.33301 70 19l52 -124c-12.667 -10.667 -32.5 -20.5 -59.5 -29.5s-51.833 -13.5 -74.5 -13.5c-40 0 -77.333 7.33301 -112 22s-62.5 36.5 -83.5 65.5
s-31.5 64.167 -31.5 105.5v140h-75v143h75v131l182 25v-156z" />
    <glyph glyph-name="u" unicode="u" horiz-adv-x="610" 
d="M280 130c10.667 0 25.667 2.83301 45 8.5s37 12.167 53 19.5v326h182v-485h-88l-52 50c-70.667 -44 -136.667 -66 -198 -66c-58.667 0 -102.667 17.167 -132 51.5s-44 79.833 -44 136.5v313h182v-296c0 -16.667 4 -30.5 12 -41.5s21.333 -16.5 40 -16.5z" />
    <glyph glyph-name="v" unicode="v" horiz-adv-x="569" 
d="M559 485l-191 -485h-172l-176 455l168 48l97 -292l93 274h181z" />
    <glyph glyph-name="w" unicode="w" horiz-adv-x="812" 
d="M802 485l-161 -485h-166l-76 251l-75 -251h-166l-148 455l168 48l70 -293l67 275h171l72 -275l63 275h181z" />
    <glyph glyph-name="x" unicode="x" horiz-adv-x="557" 
d="M278 104l-63 -104h-205l158 241l-157 217l176 42l85 -132l74 117h201l-165 -254l165 -231h-204z" />
    <glyph glyph-name="y" unicode="y" horiz-adv-x="561" 
d="M559 485l-191 -485v-230h-172v230l-176 455l168 48l97 -292l93 274h181z" />
    <glyph glyph-name="z" unicode="z" horiz-adv-x="452" 
d="M30 485h387l9 -101l-196 -241h197l17 -143h-414l-22 94l199 248h-160z" />
    <glyph glyph-name="braceleft" unicode="{" horiz-adv-x="349" 
d="M286 372c0 -16.667 -3.16699 -29.334 -9.5 -38.001s-14.5 -16.667 -24.5 -24c9.33301 -6.66699 17.333 -14.667 24 -24s10 -22 10 -38c0 -12.667 -1.5 -22.834 -4.5 -30.501s-7.5 -16.167 -13.5 -25.5c-6 -10 -10.333 -18.667 -13 -26s-4 -16.666 -4 -27.999
c0 -23.333 12.667 -35 38 -35h37l13 -142h-113c-48 0 -83.667 11.167 -107 33.5s-35 53.166 -35 92.499c0 11.333 1.5 22.166 4.5 32.499s7.83301 23.833 14.5 40.5c3.33301 8.66699 6.5 17.5 9.5 26.5s4.5 16.5 4.5 22.5c0 11.333 -4.16699 20.5 -12.5 27.5
s-18.166 10.5 -29.499 10.5h-45v126h45c11.333 0 21.166 3.5 29.499 10.5s12.5 16.167 12.5 27.5c0 10.667 -4.66699 26.334 -14 47.001c-6 15.333 -10.667 28.833 -14 40.5s-5 23.167 -5 34.5c0 39.333 11.667 70.166 35 92.499s59 33.5 107 33.5h113l-13 -142h-37
c-25.333 0 -38 -11.667 -38 -35c0 -11.333 1.5 -20.666 4.5 -27.999s7.16699 -15 12.5 -23c6 -9.33301 10.5 -18.166 13.5 -26.499s4.5 -19.166 4.5 -32.499z" />
    <glyph glyph-name="bar" unicode="|" horiz-adv-x="342" 
d="M80 0v713l182 -16v-713z" />
    <glyph glyph-name="braceright" unicode="}" horiz-adv-x="349" 
d="M63 248c0 16.667 3.16699 29.332 9.5 37.999s14.5 16.667 24.5 24c-9.33301 6.66699 -17.333 14.667 -24 24s-10 22 -10 38c0 12.667 1.5 22.834 4.5 30.501s7.5 16.167 13.5 25.5c6 10 10.333 18.667 13 26s4 16.666 4 27.999c0 23.333 -12.667 35 -38 35h-37l-13 142
h113c48 0 83.667 -11.167 107 -33.5s35 -53.166 35 -92.499c0 -11.333 -1.66699 -22.333 -5 -33s-8 -24 -14 -40c-0.666992 -2 -3.16699 -8.83301 -7.5 -20.5s-6.5 -21.167 -6.5 -28.5c0 -11.333 4.16699 -20.5 12.5 -27.5s18.166 -10.5 29.499 -10.5h45v-126h-45
c-11.333 0 -21.166 -3.5 -29.499 -10.5s-12.5 -16.167 -12.5 -27.5c0 -8 4.33301 -23 13 -45c6.66699 -18.667 11.667 -33.334 15 -44.001s5 -21.667 5 -33c0 -39.333 -11.667 -70.166 -35 -92.499s-59 -33.5 -107 -33.5h-113l13 142h37c25.333 0 38 11.667 38 35
c0 12 -1.5 21.667 -4.5 29s-7.16699 15.666 -12.5 24.999c-6 9.33301 -10.5 17.833 -13.5 25.5s-4.5 17.834 -4.5 30.501z" />
    <glyph glyph-name="asciitilde" unicode="~" horiz-adv-x="565" 
d="M218 224c-12 0 -22.5 -5.33203 -31.5 -15.999s-13.5 -21.667 -13.5 -33h-143c0 62 14 112.5 42 151.5s67.333 58.5 118 58.5c13.333 0 28.166 -1.83301 44.499 -5.5s31.833 -7.5 46.5 -11.5c36.667 -11.333 65.334 -17 86.001 -17c12 0 22 5.33301 30 16s12 21.667 12 33
h126c0 -64.667 -10.667 -115.834 -32 -153.501s-56 -56.5 -104 -56.5c-14.667 0 -28 1.33301 -40 4s-28.667 7 -50 13c-17.333 5.33301 -32.833 9.5 -46.5 12.5s-28.5 4.5 -44.5 4.5z" />
    <glyph glyph-name="uni00A0" unicode="&#xa0;" horiz-adv-x="220" 
 />
    <glyph glyph-name="exclamdown" unicode="&#xa1;" 
d="M213 623c0 -26 -8.83301 -47.833 -26.5 -65.5s-39.5 -26.5 -65.5 -26.5c-25.333 0 -46.833 8.83301 -64.5 26.5s-26.5 39.5 -26.5 65.5s8.83301 47.667 26.5 65s39.167 26 64.5 26c26 0 47.833 -8.66699 65.5 -26s26.5 -39 26.5 -65zM50 506l142 -40l20 -466h-182z" />
    <glyph glyph-name="cent" unicode="&#xa2;" horiz-adv-x="457" 
d="M400 163l50.998 -125c-24.667 -19.333 -54.334 -33 -89.001 -41v-122h-150v121c-59.333 12 -106.166 39.333 -140.499 82s-51.5 97.334 -51.5 164.001s17.167 122 51.5 166s81.166 72.667 140.499 86v124l150 13v-137c34.667 -8 64.334 -21.667 89.001 -41l-51 -125
c-19.333 10 -36 16.833 -50 20.5s-29.667 5.5 -47 5.5c-25.333 0 -47.5 -10.333 -66.5 -31s-28.5 -47.667 -28.5 -81c0 -32.667 9.33301 -58.334 28 -77.001s41 -28 67 -28c16.667 0 32.334 1.83301 47.001 5.5s31.334 10.5 50.001 20.5z" />
    <glyph glyph-name="sterling" unicode="&#xa3;" horiz-adv-x="522" 
d="M512 0h-463.001l-10 143c29.333 0.666992 50.333 6.5 63 17.5s19 26.833 19 47.5v60h-81v143h81v80c0 41.333 10.833 76.5 32.5 105.5s50.5 50.833 86.5 65.5s75.333 22 118 22c22.667 0 47.5 -4.5 74.5 -13.5s46.833 -18.833 59.5 -29.5l-52 -124
c-10.667 6 -22.667 10.667 -36 14s-24.666 5 -33.999 5c-21.333 0 -37.833 -5.83301 -49.5 -17.5s-17.5 -27.5 -17.5 -47.5v-60h133l17 -143h-150v-80c0 -15.333 -1.66699 -30.333 -5 -45h197z" />
    <glyph glyph-name="currency" unicode="&#xa4;" horiz-adv-x="813" 
d="M680 252c0 -41.333 -8.66699 -79.999 -26 -115.999l129 -116l-142 -118l-107 114c-18 -8.66699 -38.167 -15.334 -60.5 -20.001s-44.5 -7.33398 -66.5 -8.00098c-49.333 1.33301 -92 10.333 -128 27l-112 -118l-125 124l116 114c-16.667 36.667 -25 74.667 -25 114
c0 41.333 8.66699 80 26 116l-129 116l142 118l107 -114c18 8.66699 38.167 15.334 60.5 20.001s44.5 7 66.5 7c22.667 0 45.167 -2.16699 67.5 -6.5s42.5 -10.833 60.5 -19.5l112 118l125 -124l-116 -114c16.667 -36.667 25 -74.667 25 -114zM407 159.001
c27.333 0 49.832 8.83301 67.499 26.5s26.5 39.5 26.5 65.5s-9.16699 47.667 -27.5 65s-40.833 26 -67.5 26c-27.333 0 -49.666 -8.83301 -66.999 -26.5s-26.333 -39.5 -27 -65.5c0.666992 -26 10 -47.667 28 -65s40.333 -26 67 -26z" />
    <glyph glyph-name="yen" unicode="&#xa5;" horiz-adv-x="654" 
d="M408 162h138l10 -116h-148v-46h-182v46h-118l-10 116h128v38h-118l-10 116h101l-189 330l174 48l132 -259l141 245h187l-207 -364h109l10 -116h-148v-38z" />
    <glyph glyph-name="brokenbar" unicode="&#xa6;" horiz-adv-x="342" 
d="M80 410v303l182 -16v-303zM80 0v303l182 -16v-303z" />
    <glyph glyph-name="section" unicode="&#xa7;" horiz-adv-x="710" 
d="M527 88l-0.00292969 -7.00195c0 -38.667 -11 -73 -33 -103s-53.5 -53.667 -94.5 -71s-88.833 -26 -143.5 -26c-35.333 0 -74.833 5.33301 -118.5 16s-78.5 23.667 -104.5 39l60 137c18 -10.667 42.833 -20.5 74.5 -29.5s59.5 -13.5 83.5 -13.5c26.667 0 48 5.5 64 16.5
s24 23.167 24 36.5c0 8.66699 -5.83301 17.167 -17.5 25.5s-30.5 20.166 -56.5 35.499l-31 18c-45.333 26.667 -80.666 48.834 -105.999 66.501s-48 40.5 -68 68.5s-30 59.667 -30 95c0.666992 44.667 15.334 83.334 44.001 116.001s68.334 55.334 119.001 68.001v9
c0 37.333 10.5 70.833 31.5 100.5s50.5 52.834 88.5 69.501s82.333 25 133 25c34.667 0 70.167 -5 106.5 -15s67.5 -23.667 93.5 -41l-54 -123c-35.333 12 -62.5 20 -81.5 24s-39.833 6 -62.5 6c-20 0 -36.167 -4.66699 -48.5 -14s-18.5 -20.666 -18.5 -33.999
c0 -10 5.16699 -18.833 15.5 -26.5s27.5 -17.834 51.5 -30.501l36 -20c42 -24 77 -46.167 105 -66.5s51.833 -44.333 71.5 -72s29.5 -58.834 29.5 -93.501c0 -44 -14.333 -82.5 -43 -115.5s-68.667 -56.5 -120 -70.5zM449.997 226.998c16 4 28.667 10.6699 38 20.0029
s14 19 14 29c0 8.66699 -5.83301 17.167 -17.5 25.5s-30.5 20.166 -56.5 35.499l-31 18l-20 12c-45.333 26 -80.333 49.333 -105 70c-16 -2 -29 -7.5 -39 -16.5s-15 -19.167 -15 -30.5c0 -10 5.16699 -18.833 15.5 -26.5s27.5 -17.834 51.5 -30.501l36 -20
c58 -32.667 101 -61.334 129 -86.001z" />
    <glyph glyph-name="dieresis" unicode="&#xa8;" horiz-adv-x="398" 
d="M177 686c0 -23.333 -8 -43 -24 -59s-36 -24 -60 -24c-22.667 0 -42.167 8 -58.5 24s-24.5 35.667 -24.5 59c0 22.667 8.33301 42.167 25 58.5s36 24.5 58 24.5c24 0 44 -8.16699 60 -24.5s24 -35.833 24 -58.5zM388 686c0 -23.333 -8 -43 -24 -59s-36 -24 -60 -24
c-22.667 0 -42.167 8 -58.5 24s-24.5 35.667 -24.5 59c0 22.667 8.33301 42.167 25 58.5s36 24.5 58 24.5c24 0 44 -8.16699 60 -24.5s24 -35.833 24 -58.5z" />
    <glyph glyph-name="copyright" unicode="&#xa9;" horiz-adv-x="825" 
d="M412 716c76.667 0 144.834 -16.667 204.501 -50s106 -79 139 -137s49.5 -122.333 49.5 -193c0 -69.333 -16.5 -132.833 -49.5 -190.5s-79.333 -103.334 -139 -137.001s-127.834 -50.5 -204.501 -50.5c-76 0 -143.833 16.833 -203.5 50.5s-106 79.334 -139 137.001
s-49.5 121.167 -49.5 190.5c0 70.667 16.5 135 49.5 193s79.333 103.667 139 137s127.5 50 203.5 50zM412 593c-50.667 0 -95.502 -11.167 -134.502 -33.5s-69.167 -53 -90.5 -92s-32 -82.5 -32 -130.5s10.667 -91.333 32 -130s51.5 -69.167 90.5 -91.5
s83.833 -33.5 134.5 -33.5s95.5 11.167 134.5 33.5s69 52.833 90 91.5s31.5 82 31.5 130c0 49.333 -9.66699 93.333 -29 132s-48.166 69 -86.499 91s-85.166 33 -140.499 33zM568.998 158c-36 -28.667 -84.334 -42.999 -145.001 -42.999c-70 0 -126 19.5 -168 58.5
s-63 93.167 -63 162.5c0 46 9.66699 86.167 29 120.5s46.5 60.666 81.5 78.999s75.167 27.5 120.5 27.5c60.667 0 109 -14.333 145 -43l-44 -109c-16.667 8.66699 -31.167 14.667 -43.5 18s-26.166 5 -41.499 5c-22.667 0 -42.167 -9 -58.5 -27s-24.5 -41.667 -24.5 -71
c0 -28.667 8.16699 -51.167 24.5 -67.5s35.833 -24.5 58.5 -24.5c14 0 27.667 1.66699 41 5s28 9.33301 44 18z" />
    <glyph glyph-name="ordfeminine" unicode="&#xaa;" horiz-adv-x="347" 
d="M152 580c-11.333 0 -25.1689 -1.99805 -41.502 -5.99805s-31.166 -9 -44.499 -15l-35 110c20 9.33301 43.833 17.166 71.5 23.499s54.834 9.5 81.501 9.5c46 0 81.333 -12.833 106 -38.5s37 -60.834 37 -105.501v-214h-58l-23 27c-10.667 -10.667 -24.5 -19 -41.5 -25
s-35.167 -9 -54.5 -9c-42.667 0 -75 10.5 -97 31.5s-33 50.167 -33 87.5c0 36 12 63 36 81s57 27 99 27h34c-8 10.667 -20.333 16 -37 16zM160.997 475.002c-6.66699 0 -12.167 -1.16699 -16.5 -3.5s-6.5 -5.83301 -6.5 -10.5c0 -2.66699 1.83301 -5 5.5 -7s8.5 -3 14.5 -3
c7.33301 0 14.5 1.66699 21.5 5s12.833 8 17.5 14v5h-36z" />
    <glyph glyph-name="guillemotleft" unicode="&#xab;" horiz-adv-x="421" 
d="M187 73l-157 151v45l157 152l33 -107l-66 -67l66 -68zM368 73l-157 151v45l157 152l33 -107l-66 -67l66 -68z" />
    <glyph glyph-name="logicalnot" unicode="&#xac;" horiz-adv-x="554" 
d="M10 424h496l18 -67v-247l-168 7v164h-333z" />
    <glyph glyph-name="registered" unicode="&#xae;" horiz-adv-x="723" 
d="M361 815c68.667 0 128.834 -14.833 180.501 -44.5s91.5 -70.334 119.5 -122.001s42 -109.5 42 -173.5c0 -62.667 -14 -119.667 -42 -171s-67.833 -91.833 -119.5 -121.5s-111.834 -44.5 -180.501 -44.5c-68 0 -127.833 14.833 -179.5 44.5s-91.5 70.167 -119.5 121.5
s-42 108.333 -42 171c0 64 14 121.833 42 173.5s67.833 92.334 119.5 122.001s111.5 44.5 179.5 44.5zM361 710c-46.667 0 -87.5 -10 -122.5 -30s-61.667 -47.667 -80 -83s-27.5 -75.666 -27.5 -120.999c0 -44.667 9.16699 -84.667 27.5 -120s45 -63.166 80 -83.499
s75.833 -30.5 122.5 -30.5s87.5 10.167 122.5 30.5s61.833 48.166 80.5 83.499s28 75.333 28 120c0 45.333 -9.33301 85.666 -28 120.999s-45.5 63 -80.5 83s-75.833 30 -122.5 30zM517 534c0 -21.333 -5.33301 -40.332 -16 -56.999s-24.667 -30.334 -42 -41.001l58 -136
h-119l-43 112h-36v-112h-105v356h149c42.667 0 79 -10.333 109 -31s45 -51 45 -91zM401 534.001c0 15.333 -4.16699 25.834 -12.5 31.501s-21.166 8.5 -38.499 8.5h-31v-82h31c15.333 0 27.666 3.66699 36.999 11s14 17.666 14 30.999z" />
    <glyph glyph-name="degree" unicode="&#xb0;" horiz-adv-x="295" 
d="M10 588c0 24 6.16797 46.166 18.501 66.499s29.166 36.333 50.499 48s44.333 17.5 69 17.5c24 0 46.5 -6 67.5 -18s37.833 -28 50.5 -48s19 -42 19 -66s-6.33301 -46.167 -19 -66.5s-29.5 -36.166 -50.5 -47.499s-43.5 -17 -67.5 -17c-25.333 0 -48.5 5.66699 -69.5 17
s-37.667 27 -50 47s-18.5 42.333 -18.5 67zM149.001 559.999c7.33301 0 13.5 2.66699 18.5 8s7.5 11.333 7.5 18c0 7.33301 -2.5 13.833 -7.5 19.5s-11.167 8.5 -18.5 8.5c-6.66699 0 -12.667 -2.66699 -18 -8s-8 -11.333 -8 -18s2.66699 -13 8 -19s11.333 -9 18 -9z" />
    <glyph glyph-name="plusminus" unicode="&#xb1;" horiz-adv-x="545" 
d="M348 415h157l10 -123h-167v-143l-148 8v135h-157l-11 123h168v155h148v-155zM30 123h473l10 -123h-472z" />
    <glyph glyph-name="twosuperior" unicode="&#xb2;" horiz-adv-x="384" 
d="M15 716c26 17.333 52 30.834 78 40.501s55 14.5 87 14.5c56 0 97.833 -12.667 125.5 -38s41.5 -55.333 41.5 -90c0 -32.667 -7.33301 -62.834 -22 -90.501s-39 -56.834 -73 -87.501l-23 -21h123l12 -107h-329v90l128 113c40.667 35.333 61.667 65.333 63 90
c0 8.66699 -4.5 15.834 -13.5 21.501s-21.833 8.5 -38.5 8.5c-16 0 -31 -2.66699 -45 -8s-32.667 -14 -56 -26l-58 90v0z" />
    <glyph glyph-name="threesuperior" unicode="&#xb3;" horiz-adv-x="408" 
d="M16 716c47.333 36.667 105.672 54.999 175.005 54.999c55.333 0 99.666 -12.167 132.999 -36.5s50 -56.5 50 -96.5c0 -17.333 -6 -36.166 -18 -56.499s-24.667 -33.833 -38 -40.5c18 -10.667 33.333 -26.834 46 -48.501s19 -43.167 19 -64.5
c0 -29.333 -8.33301 -55.166 -25 -77.499s-40.334 -39.833 -71.001 -52.5s-65.667 -19 -105 -19c-28 0 -58.333 5 -91 15s-63 24 -91 42l73 91c21.333 -13.333 40.666 -23 57.999 -29s34.666 -9 51.999 -9c16.667 0 30.667 4 42 12s17 18.333 17 31
c0 14 -4.83301 25 -14.5 33s-22.167 12 -37.5 12h-77l-11 108h61c22 0 39.333 3.66699 52 11s19 17.333 19 30c0 10 -4.83301 18.167 -14.5 24.5s-23.834 9.5 -42.501 9.5c-28 0 -60 -12.333 -96 -37l-65 93v0z" />
    <glyph glyph-name="acute" unicode="&#xb4;" horiz-adv-x="266" 
d="M256 787l-114 -199l-132 22l66 177h180z" />
    <glyph glyph-name="mu" unicode="&#xb5;" horiz-adv-x="620" 
d="M570 -1h-108l-32 50c-68.667 -42.667 -132.667 -64.667 -192 -66v-192l-182 -10v703h182v-296c0 -16.667 4 -30.5 12 -41.5s21.333 -16.5 40 -16.5c10.667 0 25.667 2.83301 45 8.5s37 12.167 53 19.5v326h182v-485z" />
    <glyph glyph-name="paragraph" unicode="&#xb6;" horiz-adv-x="1053" 
d="M534 537v-537h-181v191h-25c-56.667 0 -108.167 9 -154.5 27s-83.5 45.667 -111.5 83s-42 83.333 -42 138c0 82 27.167 142.667 81.5 182s125.5 59 213.5 59h718v-143h-138v-537h-182v537h-179z" />
    <glyph glyph-name="cedilla" unicode="&#xb8;" horiz-adv-x="277" 
d="M135 -132c0 19.333 -28.332 32 -84.999 38l43 107h126l-20 -52c22.667 -7.33301 39.667 -21.166 51 -41.499s17 -40.833 17 -61.5c0 -36.667 -14 -65.834 -42 -87.501s-61 -32.5 -99 -32.5c-19.333 0 -39.333 3.66699 -60 11s-39.334 17.333 -56.001 30l38 86
c26 -10 44.667 -15 56 -15c8.66699 0 16 1.5 22 4.5s9 7.5 9 13.5z" />
    <glyph glyph-name="onesuperior" unicode="&#xb9;" horiz-adv-x="336" 
d="M276 764v-427h-137v271l-94 -42l-35 117l175 81h91z" />
    <glyph glyph-name="ordmasculine" unicode="&#xba;" horiz-adv-x="402" 
d="M20 519c0 56 16.168 100.499 48.501 133.499s76.166 49.5 131.499 49.5c57.333 0 102 -16.667 134 -50s48 -78.333 48 -135c0 -55.333 -17 -99.166 -51 -131.499s-79.333 -48.5 -136 -48.5c-55.333 0 -98.333 16.167 -129 48.5s-46 76.833 -46 133.5zM244.001 516.999
c0 20 -3.16797 35.167 -9.50098 45.5s-17.166 15.5 -32.499 15.5c-29.333 0 -44 -19.667 -44 -59c0 -20.667 3.16699 -36 9.5 -46s16.5 -15 30.5 -15c16 0 27.667 4.83301 35 14.5s11 24.5 11 44.5z" />
    <glyph glyph-name="guillemotright" unicode="&#xbb;" horiz-adv-x="421" 
d="M53 421l157 -151v-45l-157 -152l-33 107l66 67l-66 68zM234 421l157 -151v-45l-157 -152l-33 107l66 67l-66 68z" />
    <glyph glyph-name="onequarter" unicode="&#xbc;" horiz-adv-x="987" 
d="M185 764h91v-427h-137v271l-94 -42l-35 117zM236 -134h-167l596 834h168zM967 36l-7 -111h-71v-91h-141v91h-216l-16 103l268 298h105v-290h78zM682 36h66v77z" />
    <glyph glyph-name="onehalf" unicode="&#xbd;" horiz-adv-x="980" 
d="M276 764v-427h-137v271l-94 -42l-35 117l175 81h91zM69 -134l596 834h168l-597 -834h-167zM611 270c26 17.333 52 30.834 78 40.501s55 14.5 87 14.5c56 0 97.833 -12.667 125.5 -38s41.5 -55.333 41.5 -90c0 -32.667 -7.33301 -62.834 -22 -90.501
s-39 -56.834 -73 -87.501l-23 -21h123l12 -107h-329v90l128 113c40.667 35.333 61.667 65.333 63 90c0 8.66699 -4.5 15.834 -13.5 21.501s-21.833 8.5 -38.5 8.5c-16 0 -31 -2.66699 -45 -8s-32.667 -14 -56 -26z" />
    <glyph glyph-name="threequarters" unicode="&#xbe;" horiz-adv-x="993" 
d="M16 716c47.333 36.667 105.672 54.999 175.005 54.999c55.333 0 99.666 -12.167 132.999 -36.5s50 -56.5 50 -96.5c0 -17.333 -6 -36.166 -18 -56.499s-24.667 -33.833 -38 -40.5c18 -10.667 33.333 -26.834 46 -48.501s19 -43.167 19 -64.5
c0 -29.333 -8.33301 -55.166 -25 -77.499s-40.334 -39.833 -71.001 -52.5s-65.667 -19 -105 -19c-28 0 -58.333 5 -91 15s-63 24 -91 42l73 91c21.333 -13.333 40.666 -23 57.999 -29s34.666 -9 51.999 -9c16.667 0 30.667 4 42 12s17 18.333 17 31
c0 14 -4.83301 25 -14.5 33s-22.167 12 -37.5 12h-77l-11 108h61c22 0 39.333 3.66699 52 11s19 17.333 19 30c0 10 -4.83301 18.167 -14.5 24.5s-23.834 9.5 -42.501 9.5c-28 0 -60 -12.333 -96 -37zM81.0059 -134.001l596 834h168l-597 -834h-167zM790.006 325.999h105
v-290h78l-7 -111h-71v-91h-141v91h-216l-16 103zM754.006 112.999l-66 -77h66v77z" />
    <glyph glyph-name="questiondown" unicode="&#xbf;" horiz-adv-x="467" 
d="M392 573c0 -26 -8.83301 -47.833 -26.5 -65.5s-39.5 -26.5 -65.5 -26.5c-25.333 0 -46.833 8.83301 -64.5 26.5s-26.5 39.5 -26.5 65.5s8.83301 47.667 26.5 65s39.167 26 64.5 26c26 0 47.833 -8.66699 65.5 -26s26.5 -39 26.5 -65zM457 15
c-60.667 -34.667 -124.334 -52 -191.001 -52c-46 0 -87 8 -123 24s-63.833 38.5 -83.5 67.5s-29.5 62.5 -29.5 100.5c0 42 14 78.667 42 110s73 58 135 80l12 115l143 -39l7 -159c-44 -14 -80.167 -31.333 -108.5 -52s-42.5 -40 -42.5 -58c0 -12 4.83301 -21.833 14.5 -29.5
s21.834 -11.5 36.501 -11.5c47.333 0 102.333 17.667 165 53z" />
    <glyph glyph-name="Agrave" unicode="&#xc0;" horiz-adv-x="711" 
d="M452 755l-132 -22l-114 199h180zM10 0l255 680h182l254 -672l-179 -18l-49 144h-235l-47 -134h-181zM288 277h133l-68 185z" />
    <glyph glyph-name="Aacute" unicode="&#xc1;" horiz-adv-x="711" 
d="M518 932l-114 -199l-132 22l66 177h180zM10 0l255 680h182l254 -672l-179 -18l-49 144h-235l-47 -134h-181zM288 277h133l-68 185z" />
    <glyph glyph-name="Acircumflex" unicode="&#xc2;" horiz-adv-x="711" 
d="M413 739l-52 62l-53 -62l-177 20l174 179h107l174 -179zM10 0l255 680h182l254 -672l-179 -18l-49 144h-235l-47 -134h-181zM288 277h133l-68 185z" />
    <glyph glyph-name="Atilde" unicode="&#xc3;" horiz-adv-x="711" 
d="M396 876c5.33301 0 10.333 3.33301 15 10s7 13 7 19h122c0 -55.333 -11.833 -95.833 -35.5 -121.5s-52.834 -38.5 -87.501 -38.5c-11.333 0 -20.833 1.5 -28.5 4.5s-16.167 7.5 -25.5 13.5c-9.33301 5.33301 -17 9.33301 -23 12s-13.667 4 -23 4
c-5.33301 0 -10.333 -3.33301 -15 -10s-7 -13 -7 -19h-126c0 55.333 12.333 95.833 37 121.5s54.667 38.5 90 38.5c10.667 0 19.834 -1.5 27.501 -4.5s16.167 -7.5 25.5 -13.5c10 -5.33301 18.167 -9.33301 24.5 -12s13.833 -4 22.5 -4zM10 0l255 680h182l254 -672l-179 -18
l-49 144h-235l-47 -134h-181zM288 277h133l-68 185z" />
    <glyph glyph-name="Adieresis" unicode="&#xc4;" horiz-adv-x="711" 
d="M339 836c0 -23.333 -8 -43 -24 -59s-36 -24 -60 -24c-22.667 0 -42.167 8 -58.5 24s-24.5 35.667 -24.5 59c0 22.667 8.33301 42.167 25 58.5s36 24.5 58 24.5c24 0 44 -8.16699 60 -24.5s24 -35.833 24 -58.5zM550 836c0 -23.333 -8 -43 -24 -59s-36 -24 -60 -24
c-22.667 0 -42.167 8 -58.5 24s-24.5 35.667 -24.5 59c0 22.667 8.33301 42.167 25 58.5s36 24.5 58 24.5c24 0 44 -8.16699 60 -24.5s24 -35.833 24 -58.5zM10 0l255 680h182l254 -672l-179 -18l-49 144h-235l-47 -134h-181zM288 277h133l-68 185z" />
    <glyph glyph-name="Aring" unicode="&#xc5;" horiz-adv-x="711" 
d="M235 859c0 32.667 12.167 60.333 36.5 83s53.166 34 86.499 34c21.333 0 41.5 -5.16699 60.5 -15.5s34.167 -24.5 45.5 -42.5s17 -37.667 17 -59c0 -33.333 -12.167 -60.833 -36.5 -82.5s-53.166 -32.5 -86.499 -32.5c-34 0 -63 10.833 -87 32.5s-36 49.167 -36 82.5z
M330 858.999c0 -8 3 -15 9 -21s13 -9 21 -9s14.667 3 20 9s8 13 8 21s-2.66699 14.667 -8 20s-12 8 -20 8s-15 -2.66699 -21 -8s-9 -12 -9 -20zM10 -0.000976562l255 680h182l254 -672l-179 -18l-49 144h-235l-47 -134h-181zM288 276.999h133l-68 185z" />
    <glyph glyph-name="AE" unicode="&#xc6;" horiz-adv-x="987" 
d="M277 128l-92 -141l-175 26l459 667h451l17 -143h-286v-124h209l17 -143h-226v-127h299l17 -143h-498v128h-192zM469 271v128l-91 -128h91z" />
    <glyph glyph-name="Ccedilla" unicode="&#xc7;" horiz-adv-x="596" 
d="M502 -142c0 -36.667 -13.999 -65.834 -41.999 -87.501s-61 -32.5 -99 -32.5c-19.333 0 -39.333 3.66699 -60 11s-39.334 17.333 -56.001 30l38 86c26 -10 44.667 -15 56 -15c8.66699 0 16 1.5 22 4.5s9 7.5 9 13.5c0 19.333 -28.333 32 -85 38l34 85
c-60 8.66699 -111.667 28.667 -155 60s-76.5 71.5 -99.5 120.5s-34.5 104.167 -34.5 165.5c0 68.667 15 130 45 184s71.5 96.167 124.5 126.5s112.833 45.5 179.5 45.5c34.667 0 70.167 -5 106.5 -15s67.5 -23.667 93.5 -41l-54 -123c-35.333 12 -62.5 20 -81.5 24
s-39.833 6 -62.5 6c-27.333 0 -53.5 -8.66699 -78.5 -26s-45.333 -41.666 -61 -72.999s-23.5 -67 -23.5 -107c0 -40.667 8 -76.334 24 -107.001s37.167 -54.167 63.5 -70.5s53.833 -24.5 82.5 -24.5c44.667 0 87.667 12.333 129 37l69 -136c-35.333 -22 -82 -37 -140 -45
l-12 -31c22.667 -7.33301 39.667 -21.166 51 -41.499s17 -40.833 17 -61.5z" />
    <glyph glyph-name="Egrave" unicode="&#xc8;" horiz-adv-x="598" 
d="M428 755l-132 -22l-114 199h180zM561 143l17 -143h-498v680h481l17 -143h-316v-124h209l17 -143h-226v-127h299z" />
    <glyph glyph-name="Eacute" unicode="&#xc9;" horiz-adv-x="598" 
d="M494 932l-114 -199l-132 22l66 177h180zM561 143l17 -143h-498v680h481l17 -143h-316v-124h209l17 -143h-226v-127h299z" />
    <glyph glyph-name="Ecircumflex" unicode="&#xca;" horiz-adv-x="598" 
d="M389 739l-52 62l-53 -62l-177 20l174 179h107l174 -179zM561 143l17 -143h-498v680h481l17 -143h-316v-124h209l17 -143h-226v-127h299z" />
    <glyph glyph-name="Edieresis" unicode="&#xcb;" horiz-adv-x="598" 
d="M315 836c0 -23.333 -8 -43 -24 -59s-36 -24 -60 -24c-22.667 0 -42.167 8 -58.5 24s-24.5 35.667 -24.5 59c0 22.667 8.33301 42.167 25 58.5s36 24.5 58 24.5c24 0 44 -8.16699 60 -24.5s24 -35.833 24 -58.5zM526 836c0 -23.333 -8 -43 -24 -59s-36 -24 -60 -24
c-22.667 0 -42.167 8 -58.5 24s-24.5 35.667 -24.5 59c0 22.667 8.33301 42.167 25 58.5s36 24.5 58 24.5c24 0 44 -8.16699 60 -24.5s24 -35.833 24 -58.5zM561 143l17 -143h-498v680h481l17 -143h-316v-124h209l17 -143h-226v-127h299z" />
    <glyph glyph-name="Igrave" unicode="&#xcc;" horiz-adv-x="342" 
d="M267 755l-132 -22l-114 199h180zM262 680v-680h-182v680h182z" />
    <glyph glyph-name="Iacute" unicode="&#xcd;" horiz-adv-x="342" 
d="M333 932l-114 -199l-132 22l66 177h180zM262 680v-680h-182v680h182z" />
    <glyph glyph-name="Icircumflex" unicode="&#xce;" horiz-adv-x="342" 
d="M228 739l-52 62l-53 -62l-177 20l174 179h107l174 -179zM262 680v-680h-182v680h182z" />
    <glyph glyph-name="Idieresis" unicode="&#xcf;" horiz-adv-x="342" 
d="M154 836c0 -23.333 -8 -43 -24 -59s-36 -24 -60 -24c-22.667 0 -42.167 8 -58.5 24s-24.5 35.667 -24.5 59c0 22.667 8.33301 42.167 25 58.5s36 24.5 58 24.5c24 0 44 -8.16699 60 -24.5s24 -35.833 24 -58.5zM365 836c0 -23.333 -8 -43 -24 -59s-36 -24 -60 -24
c-22.667 0 -42.167 8 -58.5 24s-24.5 35.667 -24.5 59c0 22.667 8.33301 42.167 25 58.5s36 24.5 58 24.5c24 0 44 -8.16699 60 -24.5s24 -35.833 24 -58.5zM262 680v-680h-182v680h182z" />
    <glyph glyph-name="Eth" unicode="&#xd0;" horiz-adv-x="739" 
d="M709 344c0 -69.333 -13.6689 -129.999 -41.002 -181.999s-65.666 -92 -114.999 -120s-105.666 -42 -168.999 -42h-304v270h-63l-17 143h80v267h308c68 0 126.167 -14.333 174.5 -43s84.833 -68.334 109.5 -119.001s37 -108.667 37 -174zM520.998 344.001
c0 57.333 -12.5 103.832 -37.5 139.499s-59.833 53.5 -104.5 53.5h-117v-124h107l17 -143h-124v-127h110c44 0 79.833 17.333 107.5 52s41.5 84.334 41.5 149.001z" />
    <glyph glyph-name="Ntilde" unicode="&#xd1;" horiz-adv-x="773" 
d="M418 876c5.33301 0 10.333 3.33301 15 10s7 13 7 19h122c0 -55.333 -11.833 -95.833 -35.5 -121.5s-52.834 -38.5 -87.501 -38.5c-11.333 0 -20.833 1.5 -28.5 4.5s-16.167 7.5 -25.5 13.5c-9.33301 5.33301 -17 9.33301 -23 12s-13.667 4 -23 4
c-5.33301 0 -10.333 -3.33301 -15 -10s-7 -13 -7 -19h-126c0 55.333 12.333 95.833 37 121.5s54.667 38.5 90 38.5c10.667 0 19.834 -1.5 27.501 -4.5s16.167 -7.5 25.5 -13.5c10 -5.33301 18.167 -9.33301 24.5 -12s13.833 -4 22.5 -4zM262 358v-358h-182v680h169l262 -369
v369h182v-680h-170z" />
    <glyph glyph-name="Ograve" unicode="&#xd2;" horiz-adv-x="763" 
d="M473 755l-132 -22l-114 199h180zM30 337c0 68.667 15.001 130.166 45.001 184.499s71.667 96.666 125 126.999s113.666 45.5 180.999 45.5c72 0 134.5 -15.333 187.5 -46s93.667 -72.667 122 -126s42.5 -112.666 42.5 -177.999
c0 -69.333 -14.833 -131.166 -44.5 -185.499s-71.167 -96.666 -124.5 -126.999s-114.333 -45.5 -183 -45.5c-70.667 0 -132.5 15.5 -185.5 46.5s-93.833 73.167 -122.5 126.5s-43 112.666 -43 177.999zM383.001 541.999c-30.667 0 -58.5 -8.5 -83.5 -25.5s-45 -41 -60 -72
s-22.5 -66.5 -22.5 -106.5c0 -58.667 14.5 -106.667 43.5 -144s68.833 -56 119.5 -56c48.667 0 88.5 17.833 119.5 53.5s46.5 86.5 46.5 152.5c0 58 -14.833 105.5 -44.5 142.5s-69.167 55.5 -118.5 55.5z" />
    <glyph glyph-name="Oacute" unicode="&#xd3;" horiz-adv-x="763" 
d="M539 932l-114 -199l-132 22l66 177h180zM30 337c0 68.667 15.001 130.166 45.001 184.499s71.667 96.666 125 126.999s113.666 45.5 180.999 45.5c72 0 134.5 -15.333 187.5 -46s93.667 -72.667 122 -126s42.5 -112.666 42.5 -177.999
c0 -69.333 -14.833 -131.166 -44.5 -185.499s-71.167 -96.666 -124.5 -126.999s-114.333 -45.5 -183 -45.5c-70.667 0 -132.5 15.5 -185.5 46.5s-93.833 73.167 -122.5 126.5s-43 112.666 -43 177.999zM383.001 541.999c-30.667 0 -58.5 -8.5 -83.5 -25.5s-45 -41 -60 -72
s-22.5 -66.5 -22.5 -106.5c0 -58.667 14.5 -106.667 43.5 -144s68.833 -56 119.5 -56c48.667 0 88.5 17.833 119.5 53.5s46.5 86.5 46.5 152.5c0 58 -14.833 105.5 -44.5 142.5s-69.167 55.5 -118.5 55.5z" />
    <glyph glyph-name="Ocircumflex" unicode="&#xd4;" horiz-adv-x="763" 
d="M434 739l-52 62l-53 -62l-177 20l174 179h107l174 -179zM30 337c0 68.667 15.001 130.166 45.001 184.499s71.667 96.666 125 126.999s113.666 45.5 180.999 45.5c72 0 134.5 -15.333 187.5 -46s93.667 -72.667 122 -126s42.5 -112.666 42.5 -177.999
c0 -69.333 -14.833 -131.166 -44.5 -185.499s-71.167 -96.666 -124.5 -126.999s-114.333 -45.5 -183 -45.5c-70.667 0 -132.5 15.5 -185.5 46.5s-93.833 73.167 -122.5 126.5s-43 112.666 -43 177.999zM383.001 541.999c-30.667 0 -58.5 -8.5 -83.5 -25.5s-45 -41 -60 -72
s-22.5 -66.5 -22.5 -106.5c0 -58.667 14.5 -106.667 43.5 -144s68.833 -56 119.5 -56c48.667 0 88.5 17.833 119.5 53.5s46.5 86.5 46.5 152.5c0 58 -14.833 105.5 -44.5 142.5s-69.167 55.5 -118.5 55.5z" />
    <glyph glyph-name="Otilde" unicode="&#xd5;" horiz-adv-x="763" 
d="M417 876c5.33301 0 10.333 3.33301 15 10s7 13 7 19h122c0 -55.333 -11.833 -95.833 -35.5 -121.5s-52.834 -38.5 -87.501 -38.5c-11.333 0 -20.833 1.5 -28.5 4.5s-16.167 7.5 -25.5 13.5c-9.33301 5.33301 -17 9.33301 -23 12s-13.667 4 -23 4
c-5.33301 0 -10.333 -3.33301 -15 -10s-7 -13 -7 -19h-126c0 55.333 12.333 95.833 37 121.5s54.667 38.5 90 38.5c10.667 0 19.834 -1.5 27.501 -4.5s16.167 -7.5 25.5 -13.5c10 -5.33301 18.167 -9.33301 24.5 -12s13.833 -4 22.5 -4zM30 337
c0 68.667 15.001 130.166 45.001 184.499s71.667 96.666 125 126.999s113.666 45.5 180.999 45.5c72 0 134.5 -15.333 187.5 -46s93.667 -72.667 122 -126s42.5 -112.666 42.5 -177.999c0 -69.333 -14.833 -131.166 -44.5 -185.499s-71.167 -96.666 -124.5 -126.999
s-114.333 -45.5 -183 -45.5c-70.667 0 -132.5 15.5 -185.5 46.5s-93.833 73.167 -122.5 126.5s-43 112.666 -43 177.999zM383.001 541.999c-30.667 0 -58.5 -8.5 -83.5 -25.5s-45 -41 -60 -72s-22.5 -66.5 -22.5 -106.5c0 -58.667 14.5 -106.667 43.5 -144
s68.833 -56 119.5 -56c48.667 0 88.5 17.833 119.5 53.5s46.5 86.5 46.5 152.5c0 58 -14.833 105.5 -44.5 142.5s-69.167 55.5 -118.5 55.5z" />
    <glyph glyph-name="Odieresis" unicode="&#xd6;" horiz-adv-x="763" 
d="M360 836c0 -23.333 -8 -43 -24 -59s-36 -24 -60 -24c-22.667 0 -42.167 8 -58.5 24s-24.5 35.667 -24.5 59c0 22.667 8.33301 42.167 25 58.5s36 24.5 58 24.5c24 0 44 -8.16699 60 -24.5s24 -35.833 24 -58.5zM571 836c0 -23.333 -8 -43 -24 -59s-36 -24 -60 -24
c-22.667 0 -42.167 8 -58.5 24s-24.5 35.667 -24.5 59c0 22.667 8.33301 42.167 25 58.5s36 24.5 58 24.5c24 0 44 -8.16699 60 -24.5s24 -35.833 24 -58.5zM30 337c0 68.667 15.001 130.166 45.001 184.499s71.667 96.666 125 126.999s113.666 45.5 180.999 45.5
c72 0 134.5 -15.333 187.5 -46s93.667 -72.667 122 -126s42.5 -112.666 42.5 -177.999c0 -69.333 -14.833 -131.166 -44.5 -185.499s-71.167 -96.666 -124.5 -126.999s-114.333 -45.5 -183 -45.5c-70.667 0 -132.5 15.5 -185.5 46.5s-93.833 73.167 -122.5 126.5
s-43 112.666 -43 177.999zM383.001 541.999c-30.667 0 -58.5 -8.5 -83.5 -25.5s-45 -41 -60 -72s-22.5 -66.5 -22.5 -106.5c0 -58.667 14.5 -106.667 43.5 -144s68.833 -56 119.5 -56c48.667 0 88.5 17.833 119.5 53.5s46.5 86.5 46.5 152.5c0 58 -14.833 105.5 -44.5 142.5
s-69.167 55.5 -118.5 55.5z" />
    <glyph glyph-name="multiply" unicode="&#xd7;" horiz-adv-x="607" 
d="M379 29l-76 106l-88 -106h-185l192 234l-175 221h181l75 -106l89 106h185l-192 -234l175 -221h-181z" />
    <glyph glyph-name="Oslash" unicode="&#xd8;" horiz-adv-x="763" 
d="M733 344c0 -69.333 -14.832 -131.167 -44.499 -185.5s-71.167 -96.666 -124.5 -126.999s-114.333 -45.5 -183 -45.5c-70.667 0 -132.5 15.5 -185.5 46.5s-93.833 73.167 -122.5 126.5s-43 112.666 -43 177.999c0 68.667 15 130.167 45 184.5s71.667 96.666 125 126.999
s113.666 45.5 180.999 45.5c72 0 134.5 -15.333 187.5 -46s93.667 -72.667 122 -126s42.5 -112.666 42.5 -177.999zM217.001 337.999c0 -56.667 13.333 -103 40 -139l141 342l-15 1c-30.667 0 -58.5 -8.5 -83.5 -25.5s-45 -41 -60 -72s-22.5 -66.5 -22.5 -106.5z
M546.001 343.999c0 50 -11.667 93 -35 129l-144 -335h13c48.667 0 88.5 17.833 119.5 53.5s46.5 86.5 46.5 152.5z" />
    <glyph glyph-name="Ugrave" unicode="&#xd9;" horiz-adv-x="750" 
d="M467 755l-132 -22l-114 199h180zM70 680h181.998v-411c0 -41.333 11.333 -73.5 34 -96.5s52.334 -34.5 89.001 -34.5s66.334 11.5 89.001 34.5s34 55.167 34 96.5v411h182v-420c0 -58 -12.667 -107.5 -38 -148.5s-61 -72.167 -107 -93.5s-99.333 -32 -160 -32
s-114 10.667 -160 32s-81.667 52.5 -107 93.5s-38 90.5 -38 148.5v420z" />
    <glyph glyph-name="Uacute" unicode="&#xda;" horiz-adv-x="750" 
d="M533 932l-114 -199l-132 22l66 177h180zM70 680h181.998v-411c0 -41.333 11.333 -73.5 34 -96.5s52.334 -34.5 89.001 -34.5s66.334 11.5 89.001 34.5s34 55.167 34 96.5v411h182v-420c0 -58 -12.667 -107.5 -38 -148.5s-61 -72.167 -107 -93.5s-99.333 -32 -160 -32
s-114 10.667 -160 32s-81.667 52.5 -107 93.5s-38 90.5 -38 148.5v420z" />
    <glyph glyph-name="Ucircumflex" unicode="&#xdb;" horiz-adv-x="750" 
d="M428 739l-52 62l-53 -62l-177 20l174 179h107l174 -179zM70 680h181.998v-411c0 -41.333 11.333 -73.5 34 -96.5s52.334 -34.5 89.001 -34.5s66.334 11.5 89.001 34.5s34 55.167 34 96.5v411h182v-420c0 -58 -12.667 -107.5 -38 -148.5s-61 -72.167 -107 -93.5
s-99.333 -32 -160 -32s-114 10.667 -160 32s-81.667 52.5 -107 93.5s-38 90.5 -38 148.5v420z" />
    <glyph glyph-name="Udieresis" unicode="&#xdc;" horiz-adv-x="750" 
d="M354 836c0 -23.333 -8 -43 -24 -59s-36 -24 -60 -24c-22.667 0 -42.167 8 -58.5 24s-24.5 35.667 -24.5 59c0 22.667 8.33301 42.167 25 58.5s36 24.5 58 24.5c24 0 44 -8.16699 60 -24.5s24 -35.833 24 -58.5zM565 836c0 -23.333 -8 -43 -24 -59s-36 -24 -60 -24
c-22.667 0 -42.167 8 -58.5 24s-24.5 35.667 -24.5 59c0 22.667 8.33301 42.167 25 58.5s36 24.5 58 24.5c24 0 44 -8.16699 60 -24.5s24 -35.833 24 -58.5zM70 680h181.998v-411c0 -41.333 11.333 -73.5 34 -96.5s52.334 -34.5 89.001 -34.5s66.334 11.5 89.001 34.5
s34 55.167 34 96.5v411h182v-420c0 -58 -12.667 -107.5 -38 -148.5s-61 -72.167 -107 -93.5s-99.333 -32 -160 -32s-114 10.667 -160 32s-81.667 52.5 -107 93.5s-38 90.5 -38 148.5v420z" />
    <glyph glyph-name="Yacute" unicode="&#xdd;" horiz-adv-x="654" 
d="M474 932l-114 -199l-132 22l66 177h180zM408 266v-266h-182v268l-216 378l174 48l132 -259l141 245h187z" />
    <glyph glyph-name="Thorn" unicode="&#xde;" horiz-adv-x="666" 
d="M646 355c0 -52 -13.332 -95.833 -39.999 -131.5s-61.834 -62.167 -105.501 -79.5s-91.167 -26 -142.5 -26h-96v-118h-182v680h182v-80h104c52 0 99.167 -9.16699 141.5 -27.5s76 -46 101 -83s37.5 -81.833 37.5 -134.5zM458.001 355c0 30.667 -8.83301 55.333 -26.5 74
s-41.5 28 -71.5 28h-98v-196h100c28 0 51 9 69 27s27 40.333 27 67z" />
    <glyph glyph-name="germandbls" unicode="&#xdf;" horiz-adv-x="660" 
d="M242 -230l-182.003 -0.00390625v682c0 48.667 10.833 91.834 32.5 129.501s52.334 67.167 92.001 88.5s85.834 32 138.501 32c52 0 98.833 -8.16699 140.5 -24.5s74.167 -39.666 97.5 -69.999s35 -65.166 35 -104.499c0 -25.333 -5.5 -51 -16.5 -77
s-27.833 -46.667 -50.5 -62c28.667 -11.333 52.667 -32.833 72 -64.5s29 -64.834 29 -99.501c0 -40.667 -10.167 -76 -30.5 -106s-48.666 -53.167 -84.999 -69.5s-78.5 -24.5 -126.5 -24.5h-93v149h76c20.667 0 38.167 5.83301 52.5 17.5s21.5 27.5 21.5 47.5
c0 22.667 -6.33301 40.334 -19 53.001s-28.334 19 -47.001 19h-79v130h27c22.667 0 42.834 7.33301 60.501 22s26.5 30.334 26.5 47.001c0 17.333 -7.83301 32.333 -23.5 45s-36.167 19 -61.5 19c-22 0 -42 -8.16699 -60 -24.5s-27 -38.833 -27 -67.5v-687z" />
    <glyph glyph-name="agrave" unicode="&#xe0;" horiz-adv-x="509" 
d="M217 354c-16 0 -35.501 -2.83301 -58.501 -8.5s-43.833 -12.5 -62.5 -20.5l-48 131c28 12.667 61.333 23.5 100 32.5s76.667 13.5 114 13.5c64.667 0 114.334 -18 149.001 -54s52 -85.333 52 -148v-300h-88l-52 50c-32 -40.667 -68.333 -61 -109 -61
c-60 0 -105.333 15 -136 45s-46 70.667 -46 122c0 94.667 63.333 142 190 142h58c-2.66699 18.667 -9.5 32.667 -20.5 42s-25.167 14 -42.5 14zM224.999 198c-12 0 -21.832 -3.66797 -29.499 -11.001s-11.5 -16.666 -11.5 -27.999c0 -10 3.16699 -18.167 9.5 -24.5
s14.166 -9.5 23.499 -9.5c20.667 0 42 9 64 27v46h-56zM349 609.999l-132 -22l-114 199h180z" />
    <glyph glyph-name="aacute" unicode="&#xe1;" horiz-adv-x="509" 
d="M217 354c-16 0 -35.501 -2.83301 -58.501 -8.5s-43.833 -12.5 -62.5 -20.5l-48 131c28 12.667 61.333 23.5 100 32.5s76.667 13.5 114 13.5c64.667 0 114.334 -18 149.001 -54s52 -85.333 52 -148v-300h-88l-52 50c-32 -40.667 -68.333 -61 -109 -61
c-60 0 -105.333 15 -136 45s-46 70.667 -46 122c0 94.667 63.333 142 190 142h58c-2.66699 18.667 -9.5 32.667 -20.5 42s-25.167 14 -42.5 14zM224.999 198c-12 0 -21.832 -3.66797 -29.499 -11.001s-11.5 -16.666 -11.5 -27.999c0 -10 3.16699 -18.167 9.5 -24.5
s14.166 -9.5 23.499 -9.5c20.667 0 42 9 64 27v46h-56zM415 786.999l-114 -199l-132 22l66 177h180z" />
    <glyph glyph-name="acircumflex" unicode="&#xe2;" horiz-adv-x="509" 
d="M217 354c-16 0 -35.501 -2.83301 -58.501 -8.5s-43.833 -12.5 -62.5 -20.5l-48 131c28 12.667 61.333 23.5 100 32.5s76.667 13.5 114 13.5c64.667 0 114.334 -18 149.001 -54s52 -85.333 52 -148v-300h-88l-52 50c-32 -40.667 -68.333 -61 -109 -61
c-60 0 -105.333 15 -136 45s-46 70.667 -46 122c0 94.667 63.333 142 190 142h58c-2.66699 18.667 -9.5 32.667 -20.5 42s-25.167 14 -42.5 14zM224.999 198c-12 0 -21.832 -3.66797 -29.499 -11.001s-11.5 -16.666 -11.5 -27.999c0 -10 3.16699 -18.167 9.5 -24.5
s14.166 -9.5 23.499 -9.5c20.667 0 42 9 64 27v46h-56zM313 587.999l-52 62l-53 -62l-177 20l174 179h107l174 -179z" />
    <glyph glyph-name="atilde" unicode="&#xe3;" horiz-adv-x="509" 
d="M217 354c-16 0 -35.501 -2.83301 -58.501 -8.5s-43.833 -12.5 -62.5 -20.5l-48 131c28 12.667 61.333 23.5 100 32.5s76.667 13.5 114 13.5c64.667 0 114.334 -18 149.001 -54s52 -85.333 52 -148v-300h-88l-52 50c-32 -40.667 -68.333 -61 -109 -61
c-60 0 -105.333 15 -136 45s-46 70.667 -46 122c0 94.667 63.333 142 190 142h58c-2.66699 18.667 -9.5 32.667 -20.5 42s-25.167 14 -42.5 14zM224.999 198c-12 0 -21.832 -3.66797 -29.499 -11.001s-11.5 -16.666 -11.5 -27.999c0 -10 3.16699 -18.167 9.5 -24.5
s14.166 -9.5 23.499 -9.5c20.667 0 42 9 64 27v46h-56zM291 725.999c5.33301 0 10.333 3.33301 15 10s7 13 7 19h122c0 -55.333 -11.833 -95.833 -35.5 -121.5s-52.834 -38.5 -87.501 -38.5c-11.333 0 -20.833 1.5 -28.5 4.5s-16.167 7.5 -25.5 13.5
c-9.33301 5.33301 -17 9.33301 -23 12s-13.667 4 -23 4c-5.33301 0 -10.333 -3.33301 -15 -10s-7 -13 -7 -19h-126c0 55.333 12.333 95.833 37 121.5s54.667 38.5 90 38.5c10.667 0 19.834 -1.5 27.501 -4.5s16.167 -7.5 25.5 -13.5c10 -5.33301 18.167 -9.33301 24.5 -12
s13.833 -4 22.5 -4z" />
    <glyph glyph-name="adieresis" unicode="&#xe4;" horiz-adv-x="509" 
d="M217 354c-16 0 -35.501 -2.83301 -58.501 -8.5s-43.833 -12.5 -62.5 -20.5l-48 131c28 12.667 61.333 23.5 100 32.5s76.667 13.5 114 13.5c64.667 0 114.334 -18 149.001 -54s52 -85.333 52 -148v-300h-88l-52 50c-32 -40.667 -68.333 -61 -109 -61
c-60 0 -105.333 15 -136 45s-46 70.667 -46 122c0 94.667 63.333 142 190 142h58c-2.66699 18.667 -9.5 32.667 -20.5 42s-25.167 14 -42.5 14zM224.999 198c-12 0 -21.832 -3.66797 -29.499 -11.001s-11.5 -16.666 -11.5 -27.999c0 -10 3.16699 -18.167 9.5 -24.5
s14.166 -9.5 23.499 -9.5c20.667 0 42 9 64 27v46h-56zM235 685.999c0 -23.333 -8 -43 -24 -59s-36 -24 -60 -24c-22.667 0 -42.167 8 -58.5 24s-24.5 35.667 -24.5 59c0 22.667 8.33301 42.167 25 58.5s36 24.5 58 24.5c24 0 44 -8.16699 60 -24.5s24 -35.833 24 -58.5z
M446 685.999c0 -23.333 -8 -43 -24 -59s-36 -24 -60 -24c-22.667 0 -42.167 8 -58.5 24s-24.5 35.667 -24.5 59c0 22.667 8.33301 42.167 25 58.5s36 24.5 58 24.5c24 0 44 -8.16699 60 -24.5s24 -35.833 24 -58.5z" />
    <glyph glyph-name="aring" unicode="&#xe5;" horiz-adv-x="509" 
d="M217 354c-16 0 -35.501 -2.83301 -58.501 -8.5s-43.833 -12.5 -62.5 -20.5l-48 131c28 12.667 61.333 23.5 100 32.5s76.667 13.5 114 13.5c64.667 0 114.334 -18 149.001 -54s52 -85.333 52 -148v-300h-88l-52 50c-32 -40.667 -68.333 -61 -109 -61
c-60 0 -105.333 15 -136 45s-46 70.667 -46 122c0 94.667 63.333 142 190 142h58c-2.66699 18.667 -9.5 32.667 -20.5 42s-25.167 14 -42.5 14zM224.999 198c-12 0 -21.832 -3.66797 -29.499 -11.001s-11.5 -16.666 -11.5 -27.999c0 -10 3.16699 -18.167 9.5 -24.5
s14.166 -9.5 23.499 -9.5c20.667 0 42 9 64 27v46h-56zM137 708.999c0 32.667 12.167 60.333 36.5 83s53.166 34 86.499 34c21.333 0 41.5 -5.16699 60.5 -15.5s34.167 -24.5 45.5 -42.5s17 -37.667 17 -59c0 -33.333 -12.167 -60.833 -36.5 -82.5
s-53.166 -32.5 -86.499 -32.5c-34 0 -63 10.833 -87 32.5s-36 49.167 -36 82.5zM232 708.998c0 -8 3 -15 9 -21s13 -9 21 -9s14.667 3 20 9s8 13 8 21s-2.66699 14.667 -8 20s-12 8 -20 8s-15 -2.66699 -21 -8s-9 -12 -9 -20z" />
    <glyph glyph-name="ae" unicode="&#xe6;" horiz-adv-x="793" 
d="M478 197c6.66699 -20.667 19.166 -36.833 37.499 -48.5s42.5 -17.5 72.5 -17.5c46 0 90.333 11 133 33l51 -123c-20 -14.667 -48.833 -27 -86.5 -37s-76.167 -15 -115.5 -15c-82 0 -148.667 19.667 -200 59c-18 -17.333 -39 -31.5 -63 -42.5s-55 -16.5 -93 -16.5
c-60 0 -105.333 15 -136 45s-46 70.667 -46 122c0 94.667 63.333 142 190 142h58c-2.66699 18.667 -9.5 32.667 -20.5 42s-25.167 14 -42.5 14c-16 0 -35.5 -2.83301 -58.5 -8.5s-43.833 -12.5 -62.5 -20.5l-48 131c28 12.667 61.333 23.5 100 32.5s76.667 13.5 114 13.5
c54.667 0 98.667 -13 132 -39c44 26 93 39 147 39c50 0 92.333 -11.333 127 -34s60.834 -53 78.501 -91s26.5 -80.333 26.5 -127v-53h-295zM535.999 356.001c-16.667 0 -31.499 -7.00098 -44.499 -21.001s-19.167 -30 -18.5 -48h126c0 16.667 -5.33301 32.334 -16 47.001
s-26.334 22 -47.001 22zM217 125c16 0 29.834 2.49902 41.501 7.49902s23.5 11.833 35.5 20.5c-5.33301 15.333 -9 30.333 -11 45h-58c-12 0 -21.833 -3.66699 -29.5 -11s-11.5 -16.666 -11.5 -27.999c0 -10 3.16699 -18.167 9.5 -24.5s14.166 -9.5 23.499 -9.5z" />
    <glyph glyph-name="ccedilla" unicode="&#xe7;" horiz-adv-x="457" 
d="M347 -6l-13 -33c22.667 -7.33301 39.667 -21.166 51 -41.499s17 -40.833 17 -61.5c0 -36.667 -14 -65.834 -42 -87.501s-61 -32.5 -99 -32.5c-19.333 0 -39.333 3.66699 -60 11s-39.334 17.333 -56.001 30l38 86c26 -10 44.667 -15 56 -15c8.66699 0 16 1.5 22 4.5
s9 7.5 9 13.5c0 19.333 -28.333 32 -85 38l36 89c-62 10.667 -111 37.334 -147 80.001s-54 98.334 -54 167.001c0 53.333 11.167 99.666 33.5 138.999s53.5 69.333 93.5 90s86 31 138 31c69.333 0 124.666 -16.333 165.999 -49l-51 -125c-19.333 10 -36 16.833 -50 20.5
s-29.667 5.5 -47 5.5c-25.333 0 -47.5 -10.333 -66.5 -31s-28.5 -47.667 -28.5 -81c0 -32.667 9.33301 -58.334 28 -77.001s41 -28 67 -28c16.667 0 32.334 1.83301 47.001 5.5s31.334 10.5 50.001 20.5l51 -125c-27.333 -22 -62 -36.667 -104 -44z" />
    <glyph glyph-name="egrave" unicode="&#xe8;" horiz-adv-x="533" 
d="M281 502c50 0 92.333 -11.3301 127 -33.9971s60.834 -53 78.501 -91s26.5 -80.333 26.5 -127v-53h-295c6.66699 -20.667 19.167 -36.834 37.5 -48.501s42.5 -17.5 72.5 -17.5c46 0 90.333 11 133 33l51 -123c-20 -14.667 -48.833 -27 -86.5 -37s-76.167 -15 -115.5 -15
c-56.667 0 -106.834 9.66699 -150.501 29s-77.834 48.166 -102.501 86.499s-37 84.166 -37 137.499c0 52.667 11.333 98.667 34 138s53.834 69.5 93.501 90.5s84.167 31.5 133.5 31.5zM276 356.003c-16.667 0 -31.499 -7.00098 -44.499 -21.001s-19.167 -30 -18.5 -48h126
c0 16.667 -5.33301 32.334 -16 47.001s-26.334 22 -47.001 22zM370.001 610.002l-132 -22l-114 199h180z" />
    <glyph glyph-name="eacute" unicode="&#xe9;" horiz-adv-x="533" 
d="M281 502c50 0 92.333 -11.3301 127 -33.9971s60.834 -53 78.501 -91s26.5 -80.333 26.5 -127v-53h-295c6.66699 -20.667 19.167 -36.834 37.5 -48.501s42.5 -17.5 72.5 -17.5c46 0 90.333 11 133 33l51 -123c-20 -14.667 -48.833 -27 -86.5 -37s-76.167 -15 -115.5 -15
c-56.667 0 -106.834 9.66699 -150.501 29s-77.834 48.166 -102.501 86.499s-37 84.166 -37 137.499c0 52.667 11.333 98.667 34 138s53.834 69.5 93.501 90.5s84.167 31.5 133.5 31.5zM276 356.003c-16.667 0 -31.499 -7.00098 -44.499 -21.001s-19.167 -30 -18.5 -48h126
c0 16.667 -5.33301 32.334 -16 47.001s-26.334 22 -47.001 22zM436.001 787.002l-114 -199l-132 22l66 177h180z" />
    <glyph glyph-name="ecircumflex" unicode="&#xea;" horiz-adv-x="533" 
d="M281 502c50 0 92.333 -11.3301 127 -33.9971s60.834 -53 78.501 -91s26.5 -80.333 26.5 -127v-53h-295c6.66699 -20.667 19.167 -36.834 37.5 -48.501s42.5 -17.5 72.5 -17.5c46 0 90.333 11 133 33l51 -123c-20 -14.667 -48.833 -27 -86.5 -37s-76.167 -15 -115.5 -15
c-56.667 0 -106.834 9.66699 -150.501 29s-77.834 48.166 -102.501 86.499s-37 84.166 -37 137.499c0 52.667 11.333 98.667 34 138s53.834 69.5 93.501 90.5s84.167 31.5 133.5 31.5zM276 356.003c-16.667 0 -31.499 -7.00098 -44.499 -21.001s-19.167 -30 -18.5 -48h126
c0 16.667 -5.33301 32.334 -16 47.001s-26.334 22 -47.001 22zM334.001 588.002l-52 62l-53 -62l-177 20l174 179h107l174 -179z" />
    <glyph glyph-name="edieresis" unicode="&#xeb;" horiz-adv-x="533" 
d="M281 502c50 0 92.333 -11.3301 127 -33.9971s60.834 -53 78.501 -91s26.5 -80.333 26.5 -127v-53h-295c6.66699 -20.667 19.167 -36.834 37.5 -48.501s42.5 -17.5 72.5 -17.5c46 0 90.333 11 133 33l51 -123c-20 -14.667 -48.833 -27 -86.5 -37s-76.167 -15 -115.5 -15
c-56.667 0 -106.834 9.66699 -150.501 29s-77.834 48.166 -102.501 86.499s-37 84.166 -37 137.499c0 52.667 11.333 98.667 34 138s53.834 69.5 93.501 90.5s84.167 31.5 133.5 31.5zM276 356.003c-16.667 0 -31.499 -7.00098 -44.499 -21.001s-19.167 -30 -18.5 -48h126
c0 16.667 -5.33301 32.334 -16 47.001s-26.334 22 -47.001 22zM256.001 686.002c0 -23.333 -8 -43 -24 -59s-36 -24 -60 -24c-22.667 0 -42.167 8 -58.5 24s-24.5 35.667 -24.5 59c0 22.667 8.33301 42.167 25 58.5s36 24.5 58 24.5c24 0 44 -8.16699 60 -24.5
s24 -35.833 24 -58.5zM467.001 686.002c0 -23.333 -8 -43 -24 -59s-36 -24 -60 -24c-22.667 0 -42.167 8 -58.5 24s-24.5 35.667 -24.5 59c0 22.667 8.33301 42.167 25 58.5s36 24.5 58 24.5c24 0 44 -8.16699 60 -24.5s24 -35.833 24 -58.5z" />
    <glyph glyph-name="igrave" unicode="&#xec;" horiz-adv-x="282" 
d="M232 485v-485h-182v485h182zM236 610l-132 -22l-114 199h180z" />
    <glyph glyph-name="iacute" unicode="&#xed;" horiz-adv-x="282" 
d="M232 485v-485h-182v485h182zM297 787l-114 -199l-132 22l66 177h180z" />
    <glyph glyph-name="icircumflex" unicode="&#xee;" horiz-adv-x="282" 
d="M232 485v-485h-182v485h182zM200 588l-52 62l-53 -62l-177 20l174 179h107l174 -179z" />
    <glyph glyph-name="idieresis" unicode="&#xef;" horiz-adv-x="282" 
d="M232 485v-485h-182v485h182zM122 686c0 -23.333 -8 -43 -24 -59s-36 -24 -60 -24c-22.667 0 -42.167 8 -58.5 24s-24.5 35.667 -24.5 59c0 22.667 8.33301 42.167 25 58.5s36 24.5 58 24.5c24 0 44 -8.16699 60 -24.5s24 -35.833 24 -58.5zM333 686
c0 -23.333 -8 -43 -24 -59s-36 -24 -60 -24c-22.667 0 -42.167 8 -58.5 24s-24.5 35.667 -24.5 59c0 22.667 8.33301 42.167 25 58.5s36 24.5 58 24.5c24 0 44 -8.16699 60 -24.5s24 -35.833 24 -58.5z" />
    <glyph glyph-name="eth" unicode="&#xf0;" horiz-adv-x="590" 
d="M570 254c0 -53.333 -11.3311 -100.001 -33.998 -140.001s-54.334 -70.833 -95.001 -92.5s-87 -32.5 -139 -32.5c-53.333 0 -101.333 9.5 -144 28.5s-76.334 47.667 -101.001 86s-37 85.5 -37 141.5c0 52 11.833 97.5 35.5 136.5s55 68.833 94 89.5s80.833 31 125.5 31
l17 -1c-12 14 -25.667 27.667 -41 41l-145 -68l-50 106l71 34c-22 8.66699 -46.667 16.667 -74 24l61 112c60 -13.333 116 -33.666 168 -60.999l130 63l54 -110l-68 -32c55.333 -48 97.833 -103.167 127.5 -165.5s44.5 -125.833 44.5 -190.5zM382.002 239.999
c0 34.667 -3.33301 66.666 -10 95.999c-26 12 -51 18 -75 18c-28 0 -49.833 -9.66699 -65.5 -29s-23.5 -46 -23.5 -80c0 -33.333 7.33301 -59.666 22 -78.999s35.667 -29 63 -29c28.667 0 50.667 8.66699 66 26s23 43 23 77z" />
    <glyph glyph-name="ntilde" unicode="&#xf1;" horiz-adv-x="610" 
d="M330 354c-10.667 0 -25.667 -2.83301 -45 -8.5s-37 -12.167 -53 -19.5v-326h-182v485h108l32 -50c70.667 44 136.667 66 198 66c58.667 0 102.667 -17.167 132 -51.5s44 -79.833 44 -136.5v-313h-182v296c0 16.667 -4 30.5 -12 41.5s-21.333 16.5 -40 16.5zM386 726
c5.33301 0 10.333 3.33301 15 10s7 13 7 19h122c0 -55.333 -11.833 -95.833 -35.5 -121.5s-52.834 -38.5 -87.501 -38.5c-11.333 0 -20.833 1.5 -28.5 4.5s-16.167 7.5 -25.5 13.5c-9.33301 5.33301 -17 9.33301 -23 12s-13.667 4 -23 4
c-5.33301 0 -10.333 -3.33301 -15 -10s-7 -13 -7 -19h-126c0 55.333 12.333 95.833 37 121.5s54.667 38.5 90 38.5c10.667 0 19.834 -1.5 27.501 -4.5s16.167 -7.5 25.5 -13.5c10 -5.33301 18.167 -9.33301 24.5 -12s13.833 -4 22.5 -4z" />
    <glyph glyph-name="ograve" unicode="&#xf2;" horiz-adv-x="590" 
d="M291 -11c-81.333 0 -146.833 21.833 -196.5 65.5s-74.5 107.167 -74.5 190.5c0 52.667 12.167 98.5 36.5 137.5s57.333 68.667 99 89s88.167 30.5 139.5 30.5c54 0 101.667 -10 143 -30s73.666 -49.667 96.999 -89s35 -87 35 -143c0 -52.667 -12.167 -98 -36.5 -136
s-57.666 -66.667 -99.999 -86s-89.833 -29 -142.5 -29zM382 240c0 33.333 -7.5 60.666 -22.5 81.999s-35.833 32 -62.5 32c-28 0 -49.833 -9.66699 -65.5 -29s-23.5 -46 -23.5 -80c0 -33.333 7.33301 -59.666 22 -78.999s35.667 -29 63 -29c28.667 0 50.667 8.66699 66 26
s23 43 23 77zM383 610l-132 -22l-114 199h180z" />
    <glyph glyph-name="oacute" unicode="&#xf3;" horiz-adv-x="590" 
d="M291 -11c-81.333 0 -146.833 21.833 -196.5 65.5s-74.5 107.167 -74.5 190.5c0 52.667 12.167 98.5 36.5 137.5s57.333 68.667 99 89s88.167 30.5 139.5 30.5c54 0 101.667 -10 143 -30s73.666 -49.667 96.999 -89s35 -87 35 -143c0 -52.667 -12.167 -98 -36.5 -136
s-57.666 -66.667 -99.999 -86s-89.833 -29 -142.5 -29zM382 240c0 33.333 -7.5 60.666 -22.5 81.999s-35.833 32 -62.5 32c-28 0 -49.833 -9.66699 -65.5 -29s-23.5 -46 -23.5 -80c0 -33.333 7.33301 -59.666 22 -78.999s35.667 -29 63 -29c28.667 0 50.667 8.66699 66 26
s23 43 23 77zM449 787l-114 -199l-132 22l66 177h180z" />
    <glyph glyph-name="ocircumflex" unicode="&#xf4;" horiz-adv-x="590" 
d="M291 -11c-81.333 0 -146.833 21.833 -196.5 65.5s-74.5 107.167 -74.5 190.5c0 52.667 12.167 98.5 36.5 137.5s57.333 68.667 99 89s88.167 30.5 139.5 30.5c54 0 101.667 -10 143 -30s73.666 -49.667 96.999 -89s35 -87 35 -143c0 -52.667 -12.167 -98 -36.5 -136
s-57.666 -66.667 -99.999 -86s-89.833 -29 -142.5 -29zM382 240c0 33.333 -7.5 60.666 -22.5 81.999s-35.833 32 -62.5 32c-28 0 -49.833 -9.66699 -65.5 -29s-23.5 -46 -23.5 -80c0 -33.333 7.33301 -59.666 22 -78.999s35.667 -29 63 -29c28.667 0 50.667 8.66699 66 26
s23 43 23 77zM347 588l-52 62l-53 -62l-177 20l174 179h107l174 -179z" />
    <glyph glyph-name="otilde" unicode="&#xf5;" horiz-adv-x="590" 
d="M291 -11c-81.333 0 -146.833 21.833 -196.5 65.5s-74.5 107.167 -74.5 190.5c0 52.667 12.167 98.5 36.5 137.5s57.333 68.667 99 89s88.167 30.5 139.5 30.5c54 0 101.667 -10 143 -30s73.666 -49.667 96.999 -89s35 -87 35 -143c0 -52.667 -12.167 -98 -36.5 -136
s-57.666 -66.667 -99.999 -86s-89.833 -29 -142.5 -29zM382 240c0 33.333 -7.5 60.666 -22.5 81.999s-35.833 32 -62.5 32c-28 0 -49.833 -9.66699 -65.5 -29s-23.5 -46 -23.5 -80c0 -33.333 7.33301 -59.666 22 -78.999s35.667 -29 63 -29c28.667 0 50.667 8.66699 66 26
s23 43 23 77zM325 726c5.33301 0 10.333 3.33301 15 10s7 13 7 19h122c0 -55.333 -11.833 -95.833 -35.5 -121.5s-52.834 -38.5 -87.501 -38.5c-11.333 0 -20.833 1.5 -28.5 4.5s-16.167 7.5 -25.5 13.5c-9.33301 5.33301 -17 9.33301 -23 12s-13.667 4 -23 4
c-5.33301 0 -10.333 -3.33301 -15 -10s-7 -13 -7 -19h-126c0 55.333 12.333 95.833 37 121.5s54.667 38.5 90 38.5c10.667 0 19.834 -1.5 27.501 -4.5s16.167 -7.5 25.5 -13.5c10 -5.33301 18.167 -9.33301 24.5 -12s13.833 -4 22.5 -4z" />
    <glyph glyph-name="odieresis" unicode="&#xf6;" horiz-adv-x="590" 
d="M291 -11c-81.333 0 -146.833 21.833 -196.5 65.5s-74.5 107.167 -74.5 190.5c0 52.667 12.167 98.5 36.5 137.5s57.333 68.667 99 89s88.167 30.5 139.5 30.5c54 0 101.667 -10 143 -30s73.666 -49.667 96.999 -89s35 -87 35 -143c0 -52.667 -12.167 -98 -36.5 -136
s-57.666 -66.667 -99.999 -86s-89.833 -29 -142.5 -29zM382 240c0 33.333 -7.5 60.666 -22.5 81.999s-35.833 32 -62.5 32c-28 0 -49.833 -9.66699 -65.5 -29s-23.5 -46 -23.5 -80c0 -33.333 7.33301 -59.666 22 -78.999s35.667 -29 63 -29c28.667 0 50.667 8.66699 66 26
s23 43 23 77zM269 686c0 -23.333 -8 -43 -24 -59s-36 -24 -60 -24c-22.667 0 -42.167 8 -58.5 24s-24.5 35.667 -24.5 59c0 22.667 8.33301 42.167 25 58.5s36 24.5 58 24.5c24 0 44 -8.16699 60 -24.5s24 -35.833 24 -58.5zM480 686c0 -23.333 -8 -43 -24 -59
s-36 -24 -60 -24c-22.667 0 -42.167 8 -58.5 24s-24.5 35.667 -24.5 59c0 22.667 8.33301 42.167 25 58.5s36 24.5 58 24.5c24 0 44 -8.16699 60 -24.5s24 -35.833 24 -58.5z" />
    <glyph glyph-name="divide" unicode="&#xf7;" horiz-adv-x="512" 
d="M164 459c0 26 8.83301 47.833 26.5 65.5s39.5 26.5 65.5 26.5c25.333 0 46.833 -8.83301 64.5 -26.5s26.5 -39.5 26.5 -65.5s-8.83301 -47.667 -26.5 -65s-39.167 -26 -64.5 -26c-26 0 -47.833 8.66699 -65.5 26s-26.5 39 -26.5 65zM30 340h442l10 -133h-441zM164 91
c0 26 8.83301 47.833 26.5 65.5s39.5 26.5 65.5 26.5c25.333 0 46.833 -8.83301 64.5 -26.5s26.5 -39.5 26.5 -65.5s-8.83301 -47.667 -26.5 -65s-39.167 -26 -64.5 -26c-26 0 -47.833 8.66699 -65.5 26s-26.5 39 -26.5 65z" />
    <glyph glyph-name="oslash" unicode="&#xf8;" horiz-adv-x="590" 
d="M570 240c0 -52.667 -12.167 -98 -36.5 -136s-57.666 -66.667 -99.999 -86s-89.833 -29 -142.5 -29c-81.333 0 -146.833 21.833 -196.5 65.5s-74.5 107.167 -74.5 190.5c0 52.667 12.167 98.5 36.5 137.5s57.333 68.667 99 89s88.167 30.5 139.5 30.5
c54 0 101.667 -10 143 -30s73.666 -49.667 96.999 -89s35 -87 35 -143zM208 245c0 -20 2.33301 -36.667 7 -50l87 159h-5c-28 0 -49.833 -9.66699 -65.5 -29s-23.5 -46 -23.5 -80zM382 240c0 19.333 -2.33301 35.667 -7 49l-86 -152h4c28.667 0 50.667 8.66699 66 26
s23 43 23 77z" />
    <glyph glyph-name="ugrave" unicode="&#xf9;" horiz-adv-x="610" 
d="M280 130c10.667 0 25.667 2.83301 45 8.5s37 12.167 53 19.5v326h182v-485h-88l-52 50c-70.667 -44 -136.667 -66 -198 -66c-58.667 0 -102.667 17.167 -132 51.5s-44 79.833 -44 136.5v313h182v-296c0 -16.667 4 -30.5 12 -41.5s21.333 -16.5 40 -16.5zM393 610
l-132 -22l-114 199h180z" />
    <glyph glyph-name="uacute" unicode="&#xfa;" horiz-adv-x="610" 
d="M280 130c10.667 0 25.667 2.83301 45 8.5s37 12.167 53 19.5v326h182v-485h-88l-52 50c-70.667 -44 -136.667 -66 -198 -66c-58.667 0 -102.667 17.167 -132 51.5s-44 79.833 -44 136.5v313h182v-296c0 -16.667 4 -30.5 12 -41.5s21.333 -16.5 40 -16.5zM459 787
l-114 -199l-132 22l66 177h180z" />
    <glyph glyph-name="ucircumflex" unicode="&#xfb;" horiz-adv-x="610" 
d="M280 130c10.667 0 25.667 2.83301 45 8.5s37 12.167 53 19.5v326h182v-485h-88l-52 50c-70.667 -44 -136.667 -66 -198 -66c-58.667 0 -102.667 17.167 -132 51.5s-44 79.833 -44 136.5v313h182v-296c0 -16.667 4 -30.5 12 -41.5s21.333 -16.5 40 -16.5zM357 588l-52 62
l-53 -62l-177 20l174 179h107l174 -179z" />
    <glyph glyph-name="udieresis" unicode="&#xfc;" horiz-adv-x="610" 
d="M280 130c10.667 0 25.667 2.83301 45 8.5s37 12.167 53 19.5v326h182v-485h-88l-52 50c-70.667 -44 -136.667 -66 -198 -66c-58.667 0 -102.667 17.167 -132 51.5s-44 79.833 -44 136.5v313h182v-296c0 -16.667 4 -30.5 12 -41.5s21.333 -16.5 40 -16.5zM279 686
c0 -23.333 -8 -43 -24 -59s-36 -24 -60 -24c-22.667 0 -42.167 8 -58.5 24s-24.5 35.667 -24.5 59c0 22.667 8.33301 42.167 25 58.5s36 24.5 58 24.5c24 0 44 -8.16699 60 -24.5s24 -35.833 24 -58.5zM490 686c0 -23.333 -8 -43 -24 -59s-36 -24 -60 -24
c-22.667 0 -42.167 8 -58.5 24s-24.5 35.667 -24.5 59c0 22.667 8.33301 42.167 25 58.5s36 24.5 58 24.5c24 0 44 -8.16699 60 -24.5s24 -35.833 24 -58.5z" />
    <glyph glyph-name="yacute" unicode="&#xfd;" horiz-adv-x="561" 
d="M559 485l-191 -485v-230h-172v230l-176 455l168 48l97 -292l93 274h181zM431 787l-114 -199l-132 22l66 177h180z" />
    <glyph glyph-name="thorn" unicode="&#xfe;" horiz-adv-x="579" 
d="M559 249c0 -84.667 -23.168 -149.167 -69.501 -193.5s-108.833 -66.5 -187.5 -66.5c-18.667 0 -40 4.33301 -64 13v-211l-182 -10v914l182 11v-220c28 10.667 52 16 72 16c74.667 0 134.834 -21.333 180.501 -64s68.5 -105.667 68.5 -189zM370.999 248
c0 36.667 -7.66504 64.833 -22.998 84.5s-37.333 29.5 -66 29.5c-14 0 -28.667 -5 -44 -15v-205c19.333 -8.66699 36.666 -13 51.999 -13c23.333 0 42.666 10.667 57.999 32s23 50.333 23 87z" />
    <glyph glyph-name="ydieresis" unicode="&#xff;" horiz-adv-x="561" 
d="M559 485l-191 -485v-230h-172v230l-176 455l168 48l97 -292l93 274h181zM251 686c0 -23.333 -8 -43 -24 -59s-36 -24 -60 -24c-22.667 0 -42.167 8 -58.5 24s-24.5 35.667 -24.5 59c0 22.667 8.33301 42.167 25 58.5s36 24.5 58 24.5c24 0 44 -8.16699 60 -24.5
s24 -35.833 24 -58.5zM462 686c0 -23.333 -8 -43 -24 -59s-36 -24 -60 -24c-22.667 0 -42.167 8 -58.5 24s-24.5 35.667 -24.5 59c0 22.667 8.33301 42.167 25 58.5s36 24.5 58 24.5c24 0 44 -8.16699 60 -24.5s24 -35.833 24 -58.5z" />
    <glyph glyph-name="dotlessi" unicode="&#x131;" horiz-adv-x="282" 
d="M232 485v-485h-182v485h182z" />
    <glyph glyph-name="Lslash" unicode="&#x141;" horiz-adv-x="578" 
d="M56 167l-56 139l80 49v325h182v-214l132 81l73 -133l-205 -123v-148h289l17 -143h-488v181z" />
    <glyph glyph-name="lslash" unicode="&#x142;" horiz-adv-x="386" 
d="M280 510l65 45l41 -160l-106 -73v-322h-182v196l-58 -40l-40 160l98 68v311l182 11v-196z" />
    <glyph glyph-name="OE" unicode="&#x152;" horiz-adv-x="1032" 
d="M514 6c-44 -12.667 -87.668 -19.002 -131.001 -19.002c-72 0 -134.667 14.833 -188 44.5s-94.166 70.834 -122.499 123.501s-42.5 113.334 -42.5 182.001s15 130 45 184s71.5 96.167 124.5 126.5s112.833 45.5 179.5 45.5c46.667 0 91.667 -8 135 -24v11h451l17 -143
h-286v-124h209l17 -143h-226v-127h299l17 -143h-498v6zM513.999 170.998v347c-31.333 10.667 -55.833 17.667 -73.5 21s-37.5 5 -59.5 5c-27.333 0 -53.5 -8.66699 -78.5 -26s-45.333 -41.666 -61 -72.999s-23.5 -67 -23.5 -107c0 -40.667 8 -76.334 24 -107.001
s37.167 -54.167 63.5 -70.5s53.833 -24.5 82.5 -24.5c43.333 0 85.333 11.667 126 35z" />
    <glyph glyph-name="oe" unicode="&#x153;" horiz-adv-x="856" 
d="M541 197c6.66699 -20.667 19.165 -36.832 37.498 -48.499s42.5 -17.5 72.5 -17.5c46 0 90.333 11 133 33l51 -123c-20 -14.667 -48.833 -27 -86.5 -37s-76.167 -15 -115.5 -15c-73.333 0 -134.666 15.667 -183.999 47c-42 -31.333 -96.667 -47 -164 -47
c-80 0 -144.167 22.167 -192.5 66.5s-72.5 106.5 -72.5 186.5c0 53.333 11.167 99.666 33.5 138.999s53.5 69.333 93.5 90s86 31 138 31c66.667 0 120.667 -15.333 162 -46c44 30.667 96.333 46 157 46c50 0 92.333 -11.333 127 -34s60.834 -53 78.501 -91
s26.5 -80.333 26.5 -127v-53h-295zM598.998 356.002c-16.667 0 -31.499 -7.00098 -44.499 -21.001s-19.167 -30 -18.5 -48h126c0 16.667 -5.33301 32.334 -16 47.001s-26.334 22 -47.001 22zM302.999 137.001c20.667 0 39.667 3.00098 57 9.00098
c-11.333 28.667 -17 60.667 -17 96c0 38.667 6 73 18 103c-16 6 -35.333 9 -58 9c-25.333 0 -47.5 -10.333 -66.5 -31s-28.5 -47.667 -28.5 -81c0 -32.667 9.33301 -58.334 28 -77.001s41 -28 67 -28z" />
    <glyph glyph-name="Scaron" unicode="&#x160;" horiz-adv-x="547" 
d="M230 938l53 -62l52 62l173 -20l-174 -179h-107l-174 179zM256 -13c-35.333 0 -74.834 5.33301 -118.501 16s-78.5 23.667 -104.5 39l60 137c18 -10.667 42.833 -20.5 74.5 -29.5s59.5 -13.5 83.5 -13.5c26.667 0 48 5.5 64 16.5s24 23.167 24 36.5
c0 8.66699 -5.83301 17.167 -17.5 25.5s-30.5 20.166 -56.5 35.499l-31 18c-45.333 26.667 -80.666 48.834 -105.999 66.501s-48 40.5 -68 68.5s-30 59.667 -30 95c0 37.333 10.5 70.833 31.5 100.5s50.5 52.834 88.5 69.501s82.333 25 133 25c34.667 0 70.167 -5 106.5 -15
s67.5 -23.667 93.5 -41l-54 -123c-35.333 12 -62.5 20 -81.5 24s-39.833 6 -62.5 6c-20 0 -36.167 -4.66699 -48.5 -14s-18.5 -20.666 -18.5 -33.999c0 -10 5.16699 -18.833 15.5 -26.5s27.5 -17.834 51.5 -30.501l36 -20c42 -24 77 -46.167 105 -66.5
s51.833 -44.333 71.5 -72s29.5 -58.834 29.5 -93.501c0 -38.667 -11 -73 -33 -103s-53.5 -53.667 -94.5 -71s-88.833 -26 -143.5 -26z" />
    <glyph glyph-name="scaron" unicode="&#x161;" horiz-adv-x="451" 
d="M229 -11c-28.667 0 -64.166 4.66406 -106.499 13.9971s-75.833 23.666 -100.5 42.999l51 115c19.333 -9.33301 42.833 -17.333 70.5 -24s50.167 -10 67.5 -10c12 0 22 2 30 6s12 9.33301 12 16c0 4 -4.5 8.83301 -13.5 14.5s-20.5 10.834 -34.5 15.501
c-50.667 18 -92.167 39.333 -124.5 64s-48.5 57 -48.5 97c0 50.667 19 90.334 57 119.001s90.667 43 158 43c28.667 0 60.167 -3.83301 94.5 -11.5s63.833 -21.167 88.5 -40.5l-51 -115c-20 8.66699 -40.5 15.667 -61.5 21s-40.167 8 -57.5 8c-14.667 0 -26.667 -2 -36 -6
s-14 -9.33301 -14 -16c0 -4 4.66699 -8.66699 14 -14s21.666 -10.666 36.999 -15.999c50 -17.333 90.833 -38.5 122.5 -63.5s47.5 -57.5 47.5 -97.5c0 -51.333 -17 -91.166 -51 -119.499s-84.333 -42.5 -151 -42.5zM197.001 786.997l53 -62l52 62l173 -20l-174 -179h-107
l-174 179z" />
    <glyph glyph-name="Ydieresis" unicode="&#x178;" horiz-adv-x="654" 
d="M295 836c0 -23.333 -8 -43 -24 -59s-36 -24 -60 -24c-22.667 0 -42.167 8 -58.5 24s-24.5 35.667 -24.5 59c0 22.667 8.33301 42.167 25 58.5s36 24.5 58 24.5c24 0 44 -8.16699 60 -24.5s24 -35.833 24 -58.5zM506 836c0 -23.333 -8 -43 -24 -59s-36 -24 -60 -24
c-22.667 0 -42.167 8 -58.5 24s-24.5 35.667 -24.5 59c0 22.667 8.33301 42.167 25 58.5s36 24.5 58 24.5c24 0 44 -8.16699 60 -24.5s24 -35.833 24 -58.5zM408 266v-266h-182v268l-216 378l174 48l132 -259l141 245h187z" />
    <glyph glyph-name="Zcaron" unicode="&#x17d;" horiz-adv-x="584" 
d="M238 938l53 -62l52 62l173 -20l-174 -179h-107l-174 179zM220 143h334l17 -143h-541l-20 128l347 409h-301l-17 143h516l19 -129z" />
    <glyph glyph-name="zcaron" unicode="&#x17e;" horiz-adv-x="452" 
d="M30 485h387l9 -101l-196 -241h197l17 -143h-414l-22 94l199 248h-160zM179 787l53 -62l52 62l173 -20l-174 -179h-107l-174 179z" />
    <glyph glyph-name="florin" unicode="&#x192;" horiz-adv-x="560" 
d="M109 308v143h80v59c0 41.333 10.833 76.5 32.5 105.5s50.5 50.833 86.5 65.5s75.333 22 118 22c22.667 0 47.5 -4.5 74.5 -13.5s46.833 -18.833 59.5 -29.5l-52 -124c-10.667 6 -22.667 10.667 -36 14s-24.666 5 -33.999 5c-21.333 0 -37.833 -5.83301 -49.5 -17.5
s-17.5 -27.5 -17.5 -47.5v-39h134l17 -143h-151v-238c0 -41.333 -10.833 -76.5 -32.5 -105.5s-50.5 -50.833 -86.5 -65.5s-75.333 -22 -118 -22c-22.667 0 -47.5 4.5 -74.5 13.5s-46.833 18.833 -59.5 29.5l52 124c10.667 -6 22.667 -10.667 36 -14s24.666 -5 33.999 -5
c21.333 0 37.833 5.83301 49.5 17.5s17.5 27.5 17.5 47.5v218h-80z" />
    <glyph glyph-name="circumflex" unicode="&#x2c6;" horiz-adv-x="475" 
d="M292 588l-52 62l-53 -62l-177 20l174 179h107l174 -179z" />
    <glyph glyph-name="caron" unicode="&#x2c7;" horiz-adv-x="475" 
d="M187 787l53 -62l52 62l173 -20l-174 -179h-107l-174 179z" />
    <glyph glyph-name="breve" unicode="&#x2d8;" horiz-adv-x="380" 
d="M190 721c16 0 28.502 5.16699 37.502 15.5s13.5 23.833 13.5 40.5h129c0 -57.333 -16.333 -103 -49 -137s-76.334 -51.333 -131.001 -52c-54.667 0.666992 -98.334 18 -131.001 52s-49 79.667 -49 137h129c0 -16.667 4.5 -30.167 13.5 -40.5s21.5 -15.5 37.5 -15.5z" />
    <glyph glyph-name="dotaccent" unicode="&#x2d9;" horiz-adv-x="202" 
d="M192 686c0 -26.667 -8.33203 -48.667 -24.999 -66s-38.334 -26 -65.001 -26c-26 0 -47.833 8.83301 -65.5 26.5s-26.5 39.5 -26.5 65.5c0 25.333 9 47 27 65s39.667 27 65 27c26 0 47.5 -8.83301 64.5 -26.5s25.5 -39.5 25.5 -65.5z" />
    <glyph glyph-name="ring" unicode="&#x2da;" horiz-adv-x="266" 
d="M10 709c0 32.667 12.167 60.333 36.5 83s53.166 34 86.499 34c21.333 0 41.5 -5.16699 60.5 -15.5s34.167 -24.5 45.5 -42.5s17 -37.667 17 -59c0 -33.333 -12.167 -60.833 -36.5 -82.5s-53.166 -32.5 -86.499 -32.5c-34 0 -63 10.833 -87 32.5s-36 49.167 -36 82.5z
M105 708.999c0 -8 3 -15 9 -21s13 -9 21 -9s14.667 3 20 9s8 13 8 21s-2.66699 14.667 -8 20s-12 8 -20 8s-15 -2.66699 -21 -8s-9 -12 -9 -20z" />
    <glyph glyph-name="ogonek" unicode="&#x2db;" horiz-adv-x="291" 
d="M10 -93c0 12.667 2.49707 28.999 7.49707 48.999s10.833 36.333 17.5 49h144c-7.33301 -9.33301 -14.5 -22.666 -21.5 -39.999s-10.5 -32 -10.5 -44c0 -8 2.83301 -15.333 8.5 -22s12.5 -10 20.5 -10c7.33301 0 14.333 1.33301 21 4s14.334 8 23.001 16l61 -102
c-12 -14 -29 -25.333 -51 -34s-46 -13 -72 -13c-31.333 0 -58.166 6.83301 -80.499 20.5s-39.166 31.667 -50.499 54s-17 46.5 -17 72.5z" />
    <glyph glyph-name="tilde" unicode="&#x2dc;" horiz-adv-x="391" 
d="M237 726c5.33301 0 10.333 3.33301 15 10s7 13 7 19h122c0 -55.333 -11.833 -95.833 -35.5 -121.5s-52.834 -38.5 -87.501 -38.5c-11.333 0 -20.833 1.5 -28.5 4.5s-16.167 7.5 -25.5 13.5c-9.33301 5.33301 -17 9.33301 -23 12s-13.667 4 -23 4
c-5.33301 0 -10.333 -3.33301 -15 -10s-7 -13 -7 -19h-126c0 55.333 12.333 95.833 37 121.5s54.667 38.5 90 38.5c10.667 0 19.834 -1.5 27.501 -4.5s16.167 -7.5 25.5 -13.5c10 -5.33301 18.167 -9.33301 24.5 -12s13.833 -4 22.5 -4z" />
    <glyph glyph-name="hungarumlaut" unicode="&#x2dd;" horiz-adv-x="513" 
d="M256 787l-114 -199l-132 22l66 177h180zM503 787l-114 -199l-132 22l66 177h180z" />
    <glyph glyph-name="endash" unicode="&#x2013;" horiz-adv-x="456" 
d="M30 345h386l10 -143h-385z" />
    <glyph glyph-name="emdash" unicode="&#x2014;" horiz-adv-x="573" 
d="M30 345h503l10 -143h-502z" />
    <glyph glyph-name="quoteleft" unicode="&#x2018;" 
d="M214 533c0 -23.333 -9 -44.501 -27 -63.501s-39.667 -28.5 -65 -28.5c-26 0 -47.833 10 -65.5 30s-26.5 45.667 -26.5 77c0 39.333 15 77.333 45 114s67.333 63.334 112 80.001l36 -80c-10.667 -6 -21.5 -14 -32.5 -24s-17.5 -19 -19.5 -27c12.667 -8 23 -19 31 -33
s12 -29 12 -45z" />
    <glyph glyph-name="quoteright" unicode="&#x2019;" 
d="M29 650c0 23.333 9 44.501 27 63.501s39.667 28.5 65 28.5c26 0 47.833 -10 65.5 -30s26.5 -45.667 26.5 -77c0 -39.333 -15 -77.333 -45 -114s-67.333 -63.334 -112 -80.001l-36 80c10.667 6 21.5 14 32.5 24s17.5 19 19.5 27c-12.667 8 -23 19 -31 33s-12 29 -12 45z
" />
    <glyph glyph-name="quotesinglbase" unicode="&#x201a;" 
d="M29 55c0 23.333 9 44.501 27 63.501s39.667 28.5 65 28.5c26 0 47.833 -10 65.5 -30s26.5 -45.667 26.5 -77c0 -39.333 -15 -77.333 -45 -114s-67.333 -63.334 -112 -80.001l-36 80c10.667 6 21.5 14 32.5 24s17.5 19 19.5 27c-12.667 8 -23 19 -31 33s-12 29 -12 45z
" />
    <glyph glyph-name="quotedblleft" unicode="&#x201c;" horiz-adv-x="453" 
d="M214 533c0 -23.333 -9 -44.501 -27 -63.501s-39.667 -28.5 -65 -28.5c-26 0 -47.833 10 -65.5 30s-26.5 45.667 -26.5 77c0 39.333 15 77.333 45 114s67.333 63.334 112 80.001l36 -80c-10.667 -6 -21.5 -14 -32.5 -24s-17.5 -19 -19.5 -27c12.667 -8 23 -19 31 -33
s12 -29 12 -45zM424 532.999c0 -23.333 -9 -44.501 -27 -63.501s-39.667 -28.5 -65 -28.5c-26 0 -47.833 10 -65.5 30s-26.5 45.667 -26.5 77c0 39.333 15 77.333 45 114s67.333 63.334 112 80.001l36 -80c-10.667 -6 -21.5 -14 -32.5 -24s-17.5 -19 -19.5 -27
c12.667 -8 23 -19 31 -33s12 -29 12 -45z" />
    <glyph glyph-name="quotedblright" unicode="&#x201d;" horiz-adv-x="453" 
d="M29 650c0 23.333 9 44.501 27 63.501s39.667 28.5 65 28.5c26 0 47.833 -10 65.5 -30s26.5 -45.667 26.5 -77c0 -39.333 -15 -77.333 -45 -114s-67.333 -63.334 -112 -80.001l-36 80c10.667 6 21.5 14 32.5 24s17.5 19 19.5 27c-12.667 8 -23 19 -31 33s-12 29 -12 45z
M239 650.001c0 23.333 9 44.501 27 63.501s39.667 28.5 65 28.5c26 0 47.833 -10 65.5 -30s26.5 -45.667 26.5 -77c0 -39.333 -15 -77.333 -45 -114s-67.333 -63.334 -112 -80.001l-36 80c10.667 6 21.5 14 32.5 24s17.5 19 19.5 27c-12.667 8 -23 19 -31 33s-12 29 -12 45z
" />
    <glyph glyph-name="quotedblbase" unicode="&#x201e;" horiz-adv-x="453" 
d="M29 55c0 23.333 9 44.501 27 63.501s39.667 28.5 65 28.5c26 0 47.833 -10 65.5 -30s26.5 -45.667 26.5 -77c0 -39.333 -15 -77.333 -45 -114s-67.333 -63.334 -112 -80.001l-36 80c10.667 6 21.5 14 32.5 24s17.5 19 19.5 27c-12.667 8 -23 19 -31 33s-12 29 -12 45z
M239 55.001c0 23.333 9 44.501 27 63.501s39.667 28.5 65 28.5c26 0 47.833 -10 65.5 -30s26.5 -45.667 26.5 -77c0 -39.333 -15 -77.333 -45 -114s-67.333 -63.334 -112 -80.001l-36 80c10.667 6 21.5 14 32.5 24s17.5 19 19.5 27c-12.667 8 -23 19 -31 33s-12 29 -12 45z
" />
    <glyph glyph-name="dagger" unicode="&#x2020;" horiz-adv-x="506" 
d="M165 625v155h180v-155h113l18 -142h-142v-483h-169v483h-116l-19 142h135z" />
    <glyph glyph-name="daggerdbl" unicode="&#x2021;" horiz-adv-x="519" 
d="M350 154l5 -153l-192 -7l5 160h-119l-19 143h138v186h-119l-19 142h135v155h188v-155h118l18 -142h-136v-186h118l18 -143h-139z" />
    <glyph glyph-name="bullet" unicode="&#x2022;" horiz-adv-x="308" 
d="M278 331c0 -22 -5.66602 -42.5 -16.999 -61.5s-26.5 -34 -45.5 -45s-39.833 -16.5 -62.5 -16.5c-34 0 -63 12 -87 36s-36 53 -36 87s12 63.167 36 87.5s53 36.5 87 36.5c22 0 42.667 -5.66699 62 -17s34.666 -26.5 45.999 -45.5s17 -39.5 17 -61.5z" />
    <glyph glyph-name="ellipsis" unicode="&#x2026;" horiz-adv-x="620" 
d="M196 83c0 -24 -8 -43.833 -24 -59.5s-35.667 -23.5 -59 -23.5s-43 7.83301 -59 23.5s-24 35.5 -24 59.5c0 23.333 8 43 24 59s35.667 24 59 24s43 -8 59 -24s24 -35.667 24 -59zM393 83c0 -24 -8 -43.833 -24 -59.5s-35.667 -23.5 -59 -23.5s-43 7.83301 -59 23.5
s-24 35.5 -24 59.5c0 23.333 8 43 24 59s35.667 24 59 24s43 -8 59 -24s24 -35.667 24 -59zM590 83c0 -24 -8 -43.833 -24 -59.5s-35.667 -23.5 -59 -23.5s-43 7.83301 -59 23.5s-24 35.5 -24 59.5c0 23.333 8 43 24 59s35.667 24 59 24s43 -8 59 -24s24 -35.667 24 -59z
" />
    <glyph glyph-name="perthousand" unicode="&#x2030;" horiz-adv-x="1365" 
d="M244 0l298 706h188l-299 -706h-187zM20 519c0 56 16.168 100.499 48.501 133.499s76.166 49.5 131.499 49.5c57.333 0 102 -16.667 134 -50s48 -78.333 48 -135c0 -55.333 -17 -99.166 -51 -131.499s-79.333 -48.5 -136 -48.5c-55.333 0 -98.333 16.167 -129 48.5
s-46 76.833 -46 133.5zM244.001 516.999c0 20 -3.16797 35.167 -9.50098 45.5s-17.166 15.5 -32.499 15.5c-29.333 0 -44 -19.667 -44 -59c0 -20.667 3.16699 -36 9.5 -46s16.5 -15 30.5 -15c16 0 27.667 4.83301 35 14.5s11 24.5 11 44.5zM592 182.999
c0 56 16.168 100.499 48.501 133.499s76.166 49.5 131.499 49.5c57.333 0 102 -16.667 134 -50s48 -78.333 48 -135c0 -55.333 -17 -99.166 -51 -131.499s-79.333 -48.5 -136 -48.5c-55.333 0 -98.333 16.167 -129 48.5s-46 76.833 -46 133.5zM983.001 182.998
c0 56 16.168 100.499 48.501 133.499s76.166 49.5 131.499 49.5c57.333 0 102 -16.667 134 -50s48 -78.333 48 -135c0 -55.333 -17 -99.166 -51 -131.499s-79.333 -48.5 -136 -48.5c-55.333 0 -98.333 16.167 -129 48.5s-46 76.833 -46 133.5zM816.002 180.997
c0 20 -3.16797 35.167 -9.50098 45.5s-17.166 15.5 -32.499 15.5c-29.333 0 -44 -19.667 -44 -59c0 -20.667 3.16699 -36 9.5 -46s16.5 -15 30.5 -15c16 0 27.667 4.83301 35 14.5s11 24.5 11 44.5zM1207 180.997c0 20 -3.16797 35.167 -9.50098 45.5
s-17.166 15.5 -32.499 15.5c-29.333 0 -44 -19.667 -44 -59c0 -20.667 3.16699 -36 9.5 -46s16.5 -15 30.5 -15c16 0 27.667 4.83301 35 14.5s11 24.5 11 44.5z" />
    <glyph glyph-name="guilsinglleft" unicode="&#x2039;" horiz-adv-x="270" 
d="M217 58l-187 161v65l187 162l33 -137l-66 -57l66 -58z" />
    <glyph glyph-name="guilsinglright" unicode="&#x203a;" horiz-adv-x="270" 
d="M53 446l187 -161v-65l-187 -162l-33 137l66 57l-66 58z" />
    <glyph glyph-name="fraction" unicode="&#x2044;" horiz-adv-x="506" 
d="M10 0l298 706h188l-299 -706h-187z" />
    <glyph glyph-name="Euro" unicode="&#x20ac;" horiz-adv-x="656" 
d="M443 -13c-82.667 0 -152.668 19.167 -210.001 57.5s-97.666 90.833 -120.999 157.5h-100l-12 116h90v19c0 12 0.333008 21 1 27h-79l-12 116h116c26 65.333 67.667 117.166 125 155.499s123.333 57.5 198 57.5c34.667 0 70.167 -5 106.5 -15s67.5 -23.667 93.5 -41
l-54 -123c-35.333 12 -62.5 20 -81.5 24s-39.833 6 -62.5 6c-22 0 -43.333 -5.66699 -64 -17s-38.667 -27 -54 -47h183l10 -116h-237c-0.666992 -5.33301 -1 -14 -1 -26l1 -20h227l10 -116h-196c16 -21.333 35.333 -37.666 58 -48.999s46 -17 70 -17
c44.667 0 87.667 12.333 129 37l69 -136c-26 -15.333 -57.5 -27.5 -94.5 -36.5s-73.167 -13.5 -108.5 -13.5z" />
    <glyph glyph-name="trademark" unicode="&#x2122;" horiz-adv-x="804" 
d="M10 680h337l12 -104h-117v-286h-125v286h-107v104zM648 460l-37 -41l-52 -6l-48 52v-175h-125v390h91l108 -127l100 127h89v-390h-126v170z" />
    <glyph glyph-name="minus" unicode="&#x2212;" horiz-adv-x="496" 
d="M30 345h426l10 -143h-425z" />
    <glyph glyph-name="fi" unicode="&#xfb01;" horiz-adv-x="733" 
d="M90 322h-80.001v143h80v45c0 41.333 10.5 76.5 31.5 105.5s48.833 50.833 83.5 65.5s72 22 112 22c22.667 0 47.5 -4.5 74.5 -13.5s46.833 -18.833 59.5 -29.5l-52 -124c-22.667 12.667 -46 19 -70 19c-17.333 0 -31.166 -5.83301 -41.499 -17.5s-15.5 -27.5 -15.5 -47.5
v-25h134l17 -143h-151v-552h-182v552zM690.999 649c0 -26.667 -9.83301 -49.667 -29.5 -69s-43.167 -29 -70.5 -29c-26.667 0 -49.667 9.66699 -69 29s-29 42.333 -29 69c0 27.333 9.66699 50.833 29 70.5s42.333 29.5 69 29.5c27.333 0 50.833 -9.83301 70.5 -29.5
s29.5 -43.167 29.5 -70.5zM682.999 485v-485h-182v485h182z" />
    <glyph glyph-name="fl" unicode="&#xfb02;" horiz-adv-x="753" 
d="M90 322h-80.001v143h80v45c0 41.333 10.5 76.5 31.5 105.5s48.833 50.833 83.5 65.5s72 22 112 22c22.667 0 47.5 -4.5 74.5 -13.5s46.833 -18.833 59.5 -29.5l-52 -124c-22.667 12.667 -46 19 -70 19c-17.333 0 -31.166 -5.83301 -41.499 -17.5s-15.5 -27.5 -15.5 -47.5
v-25h134l17 -143h-151v-552h-182v552zM692.999 706v-706h-182v695z" />
  </font>
</defs>
</svg>
